<?xml version="1.0" encoding="UTF-8"?>
<svg xmlns="http://www.w3.org/2000/svg" viewBox="0 0 242.2813 57.4299">
  <defs>
    <style>
      .d {
        fill: #fff;
      }

      .e {
        fill: #1c1f75;
      }

      .f {
        fill: #ce9500;
      }

      .g {
        fill: #2e3192;
      }
    </style>
  </defs>
  <g id="a" data-name="Capa 1"/>
  <g id="b" data-name="Capa 2">
    <g id="c" data-name="homePage">
      <g>
        <g>
          <g>
            <path class="e" d="M91.5789,6.8762c1.8357,0,3.5477,1.456,3.5477,3.542l-.0178,33.3699c0,3.3132,.9884,4.3016,2.2076,4.3016l-2.9589,2.0749c-.6353,.4455-1.3354,.647-2.0182,.647-1.8358,0-3.5478-1.456-3.5478-3.542l.0178-33.3698c0-3.3132-.9884-4.3016-2.2076-4.3016l2.9589-2.0749c.6353-.4455,1.3354-.647,2.0182-.647m.0001-4.6265h-.0002c-1.6722,0-3.2886,.5138-4.6744,1.4855l-2.9589,2.0749c-1.6528,1.159-2.3633,3.2557-1.7556,5.1807,.3433,1.0874,1.0623,1.9781,1.987,2.5474,.0038,.109,.006,.2293,.006,.3615l-.0178,33.3674c0,4.5066,3.667,8.171,8.1743,8.171,1.6721,0,3.2886-.5137,4.6745-1.4855l2.9589-2.0749c1.6527-1.159,2.3633-3.2557,1.7556-5.1807-.3433-1.0874-1.0623-1.9781-1.987-2.5474-.0038-.109-.006-.2293-.006-.3615l.0178-33.3674c0-4.5066-3.6669-8.171-8.1741-8.171h0Z"/>
            <path class="e" d="M68.9249,6.8762c1.8357,0,3.5477,1.456,3.5477,3.542l1.9096-1.3406c1.0064-.7065,2.1805-1.0598,3.3544-1.0598,1.1711,0,2.342,.3515,3.347,1.0547h0c1.7976,1.2578,2.8683,3.3137,2.8683,5.5077v2.4654c0,3.4315-2.0984,6.514-5.291,7.7721h0l1.324,.5815c3.2662,1.4344,5.3754,4.6643,5.3753,8.2316v2.0594c0,3.8983-1.9155,7.5477-5.1237,9.7623l-7.7641,5.3593-6.3173-4.4234V13.8997c0-3.3132-.9884-4.3016-2.2076-4.3016l2.9589-2.0749c.6353-.4455,1.3354-.647,2.0182-.647m0-4.6265c-1.6722,0-3.2886,.5137-4.6745,1.4856l-2.9589,2.0749c-1.6528,1.159-2.3633,3.2557-1.7556,5.1807,.3433,1.0874,1.0623,1.9781,1.987,2.5474,.0038,.109,.006,.2293,.006,.3615V46.3882c0,1.5095,.7364,2.924,1.9728,3.7898l6.3173,4.4234c.7963,.5576,1.725,.8367,2.6537,.8367,.9185,0,1.8369-.2728,2.6282-.819l7.7641-5.3593c4.4595-3.0782,7.1219-8.151,7.122-13.5697v-2.0594c0-3.507-1.347-6.8001-3.6454-9.2731,1.4307-2.1019,2.2371-4.6284,2.2371-7.3121v-2.4654c0-3.7007-1.8103-7.1768-4.8424-9.2984-1.7676-1.2368-3.842-1.8905-5.9992-1.8905-1.2732,0-2.5173,.2276-3.6863,.6682-1.403-1.1316-3.1865-1.8098-5.1257-1.8098h0Z"/>
            <path class="e" d="M231.917,6.8762c1.8358,0,3.5478,1.456,3.5478,3.542l-.0178,33.3699c0,3.3132,.9884,4.3016,2.2076,4.3016l-2.9589,2.0749c-.6353,.4455-1.3354,.647-2.0182,.647-1.8357,0-3.5477-1.456-3.5477-3.542l.0178-33.3698c0-3.3132-.9884-4.3016-2.2076-4.3016l2.9589-2.0749c.6353-.4455,1.3354-.647,2.0182-.647m.0001-4.6265h-.0002c-1.6722,0-3.2886,.5138-4.6744,1.4855l-2.9589,2.0749c-1.6527,1.159-2.3633,3.2557-1.7556,5.1807,.3433,1.0874,1.0623,1.9781,1.987,2.5474,.0038,.109,.006,.2293,.006,.3615l-.0178,33.3674c0,4.5066,3.6669,8.171,8.1742,8.171,1.6721,0,3.2885-.5137,4.6745-1.4855l2.9589-2.0749c1.6528-1.159,2.3633-3.2557,1.7556-5.1807-.3433-1.0874-1.0623-1.9781-1.987-2.5474-.0038-.109-.006-.2293-.006-.3615l.0178-33.3674c0-4.5066-3.6669-8.171-8.1741-8.171h0Z"/>
            <path class="e" d="M179.5625,6.8762c1.8356,.0002,3.5478,1.4562,3.5478,3.542v3.9071h2.1125v.0178h1.498c3.3132,0,4.3016-.9884,4.3016-2.2076l2.0749,2.9589c1.6432,2.3432-.0331,5.5659-2.895,5.5659l-7.092-.0093v19.5131h-.0178v3.6239c0,3.3132,.9884,4.3016,2.2076,4.3016l-2.9589,2.0749c-.6354,.4456-1.3352,.647-2.0182,.647-1.8356,0-3.5477-1.4562-3.5477-3.542v-7.2253h.0178V20.6428l-.1626-.0002c-3.3132,0-4.3016,.9884-4.3016,2.2076h0l-2.0749-2.9589c-1.6431-2.3432,.0331-5.5659,2.895-5.5659h3.644v-.4256c0-3.3133-.9883-4.3016-2.2076-4.3016l2.9589-2.0749c.6354-.4456,1.3352-.6471,2.0182-.647m.0005-4.6265h0c-1.6722-.0002-3.2888,.5135-4.6749,1.4855l-2.9589,2.0749c-1.4623,1.0254-2.187,2.7848-1.9138,4.5099-1.7396,.721-3.2039,2.037-4.1078,3.7746-1.4103,2.7115-1.1964,5.9504,.5584,8.4528l2.0749,2.9589c.85,1.2121,2.2046,1.9175,3.6257,1.9677v12.1677c-.0118,.1333-.0178,.2676-.0178,.4025v7.2253c0,4.5041,3.667,8.1685,8.1743,8.1685,1.6722,0,3.2886-.5137,4.6745-1.4855l2.9589-2.0749c1.6527-1.159,2.3633-3.2557,1.7556-5.1807-.3433-1.0874-1.0623-1.9781-1.987-2.5474-.0038-.109-.006-.2293-.006-.3615v-3.2167c.0118-.1342,.0178-.27,.0178-.4072v-14.8805l2.4594,.0032c3.0624,0,5.8372-1.6844,7.2475-4.3959,1.4103-2.7115,1.1963-5.9504-.5584-8.4528l-2.0748-2.9589c-.8824-1.2583-2.3086-1.9705-3.7885-1.9706-.4639,0-.9328,.0699-1.3922,.2149-.7921,.2501-1.48,.6996-2.0152,1.2828-.6711-3.8331-4.0266-6.7559-8.0516-6.7567h0Z"/>
            <path class="e" d="M120.3181,24.1361v16.0278h-.0178v3.6239c0,3.3133,.9884,4.3016,2.2076,4.3016l-2.9589,2.0749c-.6354,.4456-1.3352,.647-2.0182,.647-1.8356,0-3.5477-1.4562-3.5477-3.542v-.0072l-3.4391,2.3565c-1.0562,.7237-2.2132,1.0512-3.3421,1.0512-3.091,0-5.9681-2.4567-5.9642-5.9624l.0053-13.4908c0-3.3132-.9884-4.3016-2.2076-4.3016h0l2.9589-2.0749c.6354-.4456,1.3352-.6471,2.0182-.647,1.8356,.0002,3.5477,1.4562,3.5477,3.542v18.3755c0,.7238,.5941,1.2311,1.2328,1.2311,.2318,0,.4696-.0669,.6869-.2145l4.5032-3.0775v-4.0056l-.0659-9.9267c-.0052-.7858,.3657-1.5268,.998-1.9934l5.403-3.9877m.0005-4.6265c-.9714,0-1.9369,.3055-2.7479,.9041l-5.403,3.9877c-.1799,.1328-.3527,.2736-.5178,.4216-1.1763-3.0701-4.1561-5.2563-7.6371-5.2566-1.6722-.0002-3.2888,.5135-4.6749,1.4855l-2.9589,2.0749c-1.6528,1.159-2.3633,3.2557-1.7557,5.1807,.3433,1.0874,1.0623,1.9781,1.987,2.5474,.0038,.109,.006,.2293,.006,.3615l-.0053,13.489c-.0031,2.8277,1.0864,5.4792,3.0679,7.463,1.9855,1.9877,4.7275,3.1278,7.5228,3.1278,1.9053,0,3.762-.5197,5.4083-1.5086,1.3699,1.0357,3.0747,1.6502,4.9206,1.6502,1.6721,0,3.2885-.5137,4.6744-1.4855l2.9589-2.0749c1.6527-1.159,2.3633-3.2557,1.7556-5.1807-.3433-1.0874-1.0623-1.9781-1.987-2.5474-.0038-.109-.006-.2293-.006-.3615v-3.2167c.0118-.1342,.0178-.2699,.0178-.4072V24.1361c0-1.746-.9829-3.3433-2.5416-4.1301-.6588-.3326-1.3732-.4964-2.0844-.4964h0Z"/>
            <path class="e" d="M136.9505,23.6619c3.091,0,5.968,2.4567,5.9642,5.9624l-.002,3.1459c-.0002,.3313-.1601,.6421-.4295,.8349l-5.1553,3.6902,.0032,.0147-5.4369,3.7529v3.1044c0,1.2133,.9957,2.0598,2.0632,2.0598,.3979,0,.806-.1177,1.1759-.3779l7.3888-5.1966v3.3148l-5.6251,3.9401-2.0191,1.3835c-1.0562,.7237-2.2132,1.0512-3.3421,1.0512-3.091,0-5.968-2.4567-5.9642-5.9624l.0053-8.0036h0c0-3.9389,1.9774-7.6148,5.2642-9.7855l.7482-.4942,2.0191-1.3835c1.0562-.7237,2.2132-1.0512,3.3421-1.0512m-5.0564,13.9594l4.7316-3.3239-.0335-2.7897c0-1.756-1.4411-2.9792-2.9844-2.9792-.5804,0-1.1754,.1731-1.7136,.5559h0v8.5369m5.0564-18.5859c-2.1203,0-4.1803,.6436-5.9572,1.8611l-1.9862,1.361-.7156,.4727c-4.5967,3.0359-7.341,8.1372-7.341,13.646l-.0053,8.0005c-.0031,2.8289,1.0864,5.4805,3.0679,7.4642,1.9855,1.9877,4.7275,3.1278,7.5228,3.1278,2.1203,0,4.1803-.6436,5.9572-1.8611l2.0191-1.3835,5.6642-3.9672c1.2361-.8658,1.9723-2.2802,1.9723-3.7894v-3.3148c0-1.3811-.6151-2.6703-1.6455-3.5383,1.2809-1.0675,2.035-2.6612,2.0361-4.3411l.002-3.146c.0031-2.8288-1.0864-5.4804-3.0679-7.4641-1.9856-1.9877-4.7275-3.1278-7.5228-3.1278h0Z"/>
            <path class="e" d="M199.7381,23.6619c3.091,0,5.968,2.4567,5.9642,5.9624l-.002,3.1459c-.0002,.3313-.1601,.6421-.4295,.8349l-5.1553,3.6902,.0032,.0147-5.4369,3.7529v3.1044c0,1.2133,.9957,2.0598,2.0632,2.0598,.3979,0,.806-.1177,1.1759-.3779l5.277-3.092c.2281-.1337,.4705-.1946,.7068-.1946,.7323,0,1.405,.5854,1.405,1.4048h0l-5.6251,3.9401-2.0191,1.3835c-1.0562,.7237-2.2132,1.0512-3.3421,1.0512-3.091,0-5.968-2.4567-5.9642-5.9624l.0053-8.0036h0c0-3.9389,1.9774-7.6148,5.2642-9.7855l.7482-.4942,2.0191-1.3835c1.0562-.7237,2.2132-1.0512,3.3421-1.0512m-5.0564,13.9594l4.7316-3.3239-.0335-2.7897c0-1.756-1.4411-2.9792-2.9844-2.9792-.5804,0-1.1754,.1731-1.7136,.5559h0v8.5369m5.0564-18.5859c-2.1203,0-4.1803,.6436-5.9572,1.8611l-1.9862,1.361-.7156,.4727c-4.5967,3.0359-7.341,8.1372-7.341,13.646l-.0053,8.0005c-.0031,2.8289,1.0864,5.4805,3.0679,7.4642,1.9855,1.9877,4.7275,3.1278,7.5228,3.1278,2.1203,0,4.1803-.6436,5.9572-1.8611l2.0191-1.3835,5.6642-3.9672c1.2361-.8658,1.9723-2.2802,1.9723-3.7894,0-2.433-1.4483-4.5342-3.528-5.4869l1.5555-1.1135c1.4785-1.0583,2.3619-2.7757,2.3631-4.5939l.002-3.146c.0031-2.8288-1.0864-5.4804-3.0679-7.4641-1.9856-1.9877-4.7275-3.1278-7.5228-3.1278h0Z"/>
            <path class="e" d="M220.0324,23.6619c3.091,0,5.9681,2.4567,5.9642,5.9624l-.002,3.1459c-.0002,.3313-.1601,.6421-.4295,.8349l-5.1553,3.6902,.0032,.0147-5.4369,3.7529v3.1044c0,1.2133,.9957,2.0598,2.0632,2.0598,.3979,0,.806-.1177,1.1759-.3779l5.277-3.092c.2281-.1337,.4705-.1946,.7068-.1946,.7323,0,1.405,.5854,1.405,1.4048h0l-5.6251,3.9401-2.0191,1.3835c-1.0562,.7237-2.2132,1.0512-3.3421,1.0512-3.091,0-5.9681-2.4567-5.9642-5.9624l.0053-8.0036h0c0-3.9389,1.9774-7.6148,5.2643-9.7855l.7482-.4942,2.0191-1.3835c1.0562-.7237,2.2132-1.0512,3.3421-1.0512m-5.0564,13.9594l4.7316-3.3239-.0336-2.7897c0-1.756-1.4411-2.9792-2.9844-2.9792-.5805,0-1.1754,.1731-1.7136,.5559v8.5369m5.0564-18.5859c-2.1203,0-4.1803,.6436-5.9572,1.8611l-1.9864,1.3611-.7155,.4726c-4.5966,3.0359-7.341,8.1372-7.341,13.646l-.0053,8.0005c-.0031,2.8289,1.0864,5.4805,3.0679,7.4642,1.9856,1.9877,4.7275,3.1278,7.5228,3.1278,2.1203,0,4.1803-.6436,5.9572-1.8611l2.0191-1.3835,5.6642-3.9672c1.2361-.8658,1.9723-2.2802,1.9723-3.7894,0-2.433-1.4483-4.5342-3.528-5.4869l1.5555-1.1135c1.4786-1.0585,2.3619-2.7758,2.3631-4.5939l.002-3.146c.0031-2.8288-1.0864-5.4804-3.0679-7.4641-1.9856-1.9877-4.7275-3.1278-7.5228-3.1278h0Z"/>
            <path class="e" d="M160.4136,6.1006c1.2968,0,2.5731,.6119,3.373,1.7552,1.3328,1.9034,2.4077,2.5912,3.2756,2.5912,.3696,0,.7018-.1248,1.0001-.3337l-1.2337,3.3968c-.5509,1.5169-1.9362,2.3295-3.3342,2.3295-1.0811,0-2.1698-.4861-2.8857-1.5085l-1.6228-2.3176c-.377-.5384-.9781-.8265-1.5891-.8265-.3839,0-.7715,.1137-1.1098,.3506-.8767,.6138-1.0898,1.8222-.4759,2.6989l15.145,21.9021c2.618,3.7388,1.686,8.8949-2.0751,11.4807l-3.5694,2.454c-.6805,.4679-1.4566,.6924-2.2249,.6924-1.2409,0-2.4615-.5859-3.2262-1.6788-1.3133-2.109-2.1099-2.8662-2.8906-2.8662-.4373,0-.8698,.2378-1.3851,.6087l1.2337-3.3968c.5271-1.4514,1.745-2.1852,3.013-2.1851,1.0821,.0001,2.2008,.5348,2.9566,1.6143l1.6157,2.3074c.3486,.4979,.9277,.7249,1.5307,.7249,.5121,0,1.0414-.1638,1.4608-.4647,.8721-.6255,1.1676-1.8642,.552-2.7434l-14.1426-20.4705c-3.2147-4.5911-2.1001-10.9188,2.49-14.135l1.7628-1.2352c.7181-.5032,1.5411-.7448,2.3561-.7448m0-4.6265c-1.8009,0-3.5337,.5472-5.011,1.5824l-1.7628,1.2352c-6.6707,4.6742-8.2968,13.9052-3.6248,20.5776l8.2299,11.9123c-2.6292,.5406-4.809,2.4125-5.7748,5.0717l-1.2337,3.3969c-.6929,1.9079-.0613,4.0445,1.5574,5.2691,.8247,.6239,1.8077,.9368,2.7913,.9368,.0981,0,.1965-.0031,.2945-.0094l.0537,.0859c.0436,.0701,.0891,.1389,.1364,.2065,1.6004,2.2875,4.2236,3.6532,7.0171,3.6532,1.7367,0,3.4124-.5209,4.8459-1.5065l3.5695-2.454c2.8436-1.955,4.7476-4.9017,5.3614-8.2975,.6138-3.3957-.1382-6.8226-2.1175-9.6493l-9.1807-13.2769c2.5697-.6562,4.6689-2.5223,5.6118-5.1187l1.2337-3.3968c.6891-1.8974,.0685-4.0225-1.5334-5.2508-.8288-.6355-1.8214-.955-2.8154-.9551-.0911,0-.1823,.0027-.2733,.0081-.0656-.0871-.1364-.1844-.2123-.2927-1.6327-2.3338-4.3108-3.728-7.1628-3.728h0Z"/>
          </g>
          <g>
            <path class="d" d="M72.4726,50.8116l-6.3173-4.4234V13.8997c0-3.3133-.9884-4.3016-2.2076-4.3016h0l2.9589-2.0749c2.3432-1.6431,5.5659,.0331,5.5659,2.895l1.9096-1.3406c2.0103-1.4112,4.6889-1.4133,6.7014-.0052h0c1.7976,1.2578,2.8683,3.3137,2.8683,5.5077v2.4654c0,3.4315-2.0984,6.514-5.291,7.7721h0l1.324,.5814c3.2662,1.4344,5.3754,4.6643,5.3753,8.2316v2.0593c-.0001,3.8983-1.9155,7.5477-5.1237,9.7623l-7.7641,5.3593Z"/>
            <path class="g" d="M72.4726,12.8899v12.8205l5.1622-3.6146v-6.5186c0-2.6543-2.988-4.2097-5.1622-2.6873h0Z"/>
            <path class="g" d="M72.4726,33.2257v14.1455l2.5294-1.7218c2.528-1.7209,4.041-4.5809,4.041-7.6391v-6.0194c0-2.1719-1.0595-4.2073-2.8387-5.453h0l-3.7333,2.6141,.0016,4.0737Z"/>
            <path class="d" d="M95.1088,40.1642v3.6239c0,3.3133,.9884,4.3016,2.2076,4.3016h0l-2.9589,2.0749c-2.3432,1.6431-5.5659-.0331-5.5659-2.895v-7.2253h.0178V13.8997c0-3.3133-.9884-4.3016-2.2076-4.3016h0l2.9589-2.0749c2.3432-1.6431,5.5659,.0331,5.5659,2.895v29.746"/>
            <path class="d" d="M235.4469,40.1642v3.6239c0,3.3133,.9884,4.3016,2.2076,4.3016h0l-2.9589,2.0749c-2.3432,1.6431-5.5659-.0331-5.5659-2.895v-7.2253h.0178V13.8997c0-3.3133-.9884-4.3016-2.2076-4.3016h0l2.9589-2.0749c2.3432-1.6431,5.5659,.0331,5.5659,2.895v29.746"/>
            <path class="d" d="M193.0973,15.0945l-2.0749-2.9589c0,1.2192-.9884,2.2076-4.3016,2.2076h-1.4981v-.0178h-2.1125v-3.9071c0-2.8619-3.2227-4.5381-5.5659-2.895l-2.9589,2.0749c1.2192,0,2.2076,.9884,2.2076,4.3016v.4256h-3.6441c-2.8619,0-4.5381,3.2227-2.895,5.5659l2.0749,2.9589h0c0-1.2192,.9884-2.2076,4.3016-2.2076l.1626,.0002v19.4015h-.0178v7.2253c0,2.8619,3.2227,4.5381,5.5659,2.895l2.9589-2.0749c-1.2192,0-2.2076-.9884-2.2076-4.3016v-3.6239h.0178V20.6511l7.092,.0093c2.8619,0,4.5382-3.2227,2.895-5.5659Z"/>
            <path class="d" d="M120.3003,43.7878v-3.6239h.0178V24.1361l-5.403,3.9878c-.6323,.4667-1.0032,1.2076-.998,1.9934l.0659,9.9267v4.0056l-4.5032,3.0775c-.816,.5543-1.9196-.0302-1.9196-1.0166V27.735c0-2.8619-3.2227-4.5381-5.5659-2.895l-2.9589,2.0749h0c1.2192,0,2.2076,.9884,2.2076,4.3016l-.0053,13.4908c-.0053,4.786,5.3582,7.6165,9.3063,4.9113l3.4391-2.3565v.0072c0,2.8619,3.2227,4.5382,5.5659,2.895l2.9589-2.0749c-1.2192,0-2.2076-.9884-2.2076-4.3016Z"/>
            <path class="d" d="M133.6083,24.7131l-2.0191,1.3835-.7482,.4942c-3.2868,2.1708-5.2642,5.8466-5.2642,9.7855h0l-.0053,8.0036c-.0053,4.786,5.3582,7.6165,9.3063,4.9112l2.0191-1.3835,5.6251-3.9401v-3.3148l-7.3888,5.1966c-1.3624,.9582-3.2391-.0163-3.2391-1.6819v-3.1044l5.4369-3.7529-.0032-.0147,5.1553-3.6903c.2694-.1928,.4293-.5037,.4295-.8349l.002-3.1459c.0053-4.786-5.3582-7.6165-9.3063-4.9113Zm-1.7143,12.9082v-8.5369h0c1.9689-1.4008,4.698,.0069,4.698,2.4233l.0335,2.7897-4.7316,3.3239Z"/>
            <path class="d" d="M196.396,24.7131l-2.0191,1.3835-.7482,.4942c-3.2868,2.1708-5.2642,5.8466-5.2642,9.7855h0l-.0053,8.0036c-.0053,4.786,5.3582,7.6165,9.3063,4.9112l2.0191-1.3835,5.6251-3.9401h0c0-1.0838-1.1767-1.7581-2.1118-1.2102l-5.277,3.092c-1.3624,.9582-3.2391-.0163-3.2391-1.6819v-3.1044l5.4369-3.7529-.0032-.0147,5.1553-3.6903c.2694-.1928,.4293-.5037,.4295-.8349l.002-3.1459c.0053-4.786-5.3582-7.6165-9.3063-4.9113Zm-1.7143,12.9082v-8.5369h0c1.9689-1.4008,4.698,.0069,4.698,2.4233l.0335,2.7897-4.7316,3.3239Z"/>
            <path class="d" d="M216.6903,24.7131l-2.0191,1.3835-.7482,.4942c-3.2868,2.1708-5.2642,5.8466-5.2642,9.7855h0l-.0053,8.0036c-.0053,4.786,5.3582,7.6165,9.3063,4.9112l2.0191-1.3835,5.6251-3.9401h0c0-1.0838-1.1767-1.7581-2.1118-1.2102l-5.277,3.092c-1.3624,.9582-3.2391-.0163-3.2391-1.6819v-3.1044l5.4369-3.7529-.0032-.0147,5.1553-3.6903c.2694-.1928,.4293-.5037,.4295-.8349l.002-3.1459c.0053-4.786-5.3582-7.6165-9.3063-4.9113Zm-1.7143,12.9082v-8.5369h0c1.9689-1.4008,4.698,.0069,4.698,2.4233l.0335,2.7897-4.7316,3.3239Z"/>
            <path class="d" d="M158.0574,6.8454l-1.7628,1.2352c-4.59,3.2162-5.7047,9.544-2.4899,14.135l14.1426,20.4705c.6156,.8791,.3201,2.1179-.552,2.7434h0c-.9133,.6551-2.3468,.6605-2.9915-.2602l-1.6157-2.3074c-1.6415-2.3443-4.9926-2.1192-5.9696,.5708l-1.2337,3.3968h0c1.4351-1.033,2.2266-1.033,4.2757,2.2575h0c1.2381,1.7696,3.6714,2.2099,5.4511,.9864l3.5694-2.454c3.7611-2.5858,4.6931-7.7419,2.0751-11.4807l-15.145-21.9021c-.6139-.8767-.4008-2.085,.4759-2.6989h0c.8767-.6139,2.085-.4008,2.6989,.4759l1.6228,2.3176c1.6415,2.3443,5.2429,1.869,6.2198-.821l1.2337-3.3968h0c-.9987,.6993-2.3753,.4566-4.2757-2.2575h0c-1.3026-1.8618-3.8682-2.3143-5.7291-1.0104Z"/>
          </g>
        </g>
        <g>
          <g>
            <g>
              <path class="d" d="M32.1637,43.5364V10.7881H1.5235V43.4498l7.2379,.1426c7.8008,.1537,15.6089,.3059,23.4023-.0561Z"/>
              <path class="f" d="M8.7614,43.5924l-7.2379-.1426v3.9013c0,2.3935,1.9404,4.3339,4.3339,4.3339h5.4241c3.2458,0,5.5621,3.1706,5.5621,3.1706,0,0,2.3163-3.1706,5.5621-3.1706h5.4241c2.3935,0,4.3339-1.9403,4.3339-4.3339v-3.8147c-7.7934,.362-15.6015,.2098-23.4023,.0561Z"/>
            </g>
            <g>
              <path class="f" d="M15.9492,55.5095c-.0186-.0254-2.0513-2.7163-4.6675-2.7163H5.8574c-3.0005,0-5.4419-2.4414-5.4419-5.4419V9.6804H33.272V47.3513c0,3.0005-2.4414,5.4419-5.4419,5.4419h-5.4243c-2.6265,0-4.6479,2.6904-4.6685,2.7178l-.896,1.2168-.8921-1.2183ZM2.6313,47.3513c0,1.7788,1.4473,3.2256,3.2261,3.2256h5.4243c2.4971,0,4.4644,1.5117,5.562,2.6074,1.0977-1.0957,3.0649-2.6074,5.562-2.6074h5.4243c1.7788,0,3.2256-1.4468,3.2256-3.2256V11.8962H2.6313V47.3513Z"/>
              <path class="d" d="M32.8562,10.0956V47.3511c0,2.7716-2.2547,5.0263-5.0263,5.0263h-5.4242c-2.846,0-4.9822,2.8587-5.0033,2.8877l-.56,.7607-.5578-.7617c-.0206-.0279-2.1568-2.8866-5.0031-2.8866H5.8573c-2.7716,0-5.0263-2.2547-5.0263-5.0263V10.0956H32.8562M5.8573,50.9924h5.4242c2.6107,0,4.6311,1.7851,5.5622,2.7906,.9311-1.0055,2.9515-2.7906,5.5619-2.7906h5.4242c2.0077,0,3.6413-1.6336,3.6413-3.6413V11.4807H2.216V47.3511c0,2.0077,1.6336,3.6413,3.6413,3.6413M33.6872,9.2646H0V47.3511c0,3.2297,2.6276,5.8573,5.8573,5.8573h5.4242c2.3989,0,4.3171,2.526,4.3362,2.5515l.5542,.7568,.6687,.9132,.671-.9115,.56-.7607c.0175-.0234,1.9333-2.5493,4.3341-2.5493h5.4242c3.2297,0,5.8573-2.6276,5.8573-5.8573V9.2646h0ZM3.047,12.3116H30.6402V47.3511c0,1.5496-1.2607,2.8103-2.8103,2.8103h-5.4242c-2.431,0-4.3729,1.3395-5.5619,2.4458-1.189-1.1063-3.131-2.4458-5.5622-2.4458H5.8573c-1.5496,0-2.8103-1.2607-2.8103-2.8103V12.3116h0Z"/>
            </g>
          </g>
          <g>
            <g>
              <path class="f" d="M24.813,44.9084c-2.6572-.0005-4.8848-1.8755-5.4297-4.3716-.0806,.2593-.2612,.4805-.5283,.6445-.2231,.1377-.4595,.207-.7017,.207-.6074,0-1.0322-.4424-1.0498-.4614-.0283-.0317-1.7969-2.0381-2.9595-3.3379,.1865,.5557,.2871,1.1484,.2876,1.7622-.0005,3.0635-2.4937,5.5566-5.5571,5.5571-3.064-.0005-5.5571-2.4937-5.5571-5.5571,0-2.9385,2.2446-5.332,5.1494-5.541,.0303-.1162,.063-.231,.0986-.3433,.2305-.7202,.5303-1.2759,.918-1.7002,.231-.2515,.4932-.4521,.7793-.5957,.3076-.1548,.644-.2437,1.0005-.2656,.9771-.0601,2.1279-.0908,3.4194-.0908,.5166,0,1.0137,.0054,1.4727,.0127,1.0264-.8574,1.9097-1.5684,1.9097-1.5684,.1069-.063,.186-.1289,.208-.166-.0225,0-.1411-.1064-.5845-.2197-1.4072-.3589-4.7617-.4077-4.7954-.4077-.1431,0-.2896-.0146-.4351-.0435l-1.6167,2.1968c-.5317,.4111-2.9346,2.1621-3.8789,2.1621-.0903,0-.1729-.0142-.2451-.0425-.3398-.1338-.4487-.3516-.4805-.5112-.0859-.4302,.3066-.835,.3862-.9116l2.8818-2.2393,1.1597-3.501c.0239-.1006,.0625-.2188,.1108-.3315,.2236-.5186,.6255-.9336,1.1348-1.1743l.0117-.0117,.0669-.0225c.1274-.0581,.2852-.1089,.4429-.1416,.832-.2529,1.687-.3843,2.5156-.3843,3.3979,0,5.6489,2.1948,6.6104,3.1323l.1499,.1455c1.2168,1.1719,1.4829,2.9023,.5933,3.8574-.1411,.1519-.6865,.5298-1.9785,1.3691,.5679,.5244,1.3232,1.2954,2.1191,2.312,.7378-.3486,1.5527-.5317,2.3716-.5317,3.0635,0,5.5566,2.4932,5.5571,5.5571-.0005,3.0635-2.4937,5.5566-5.5571,5.5571h0Zm-2.7227-8.6968c-.0752,.064-.1479,.1299-.2178,.1992-.7847,.7852-1.2173,1.8296-1.2178,2.9404,.0005,1.1104,.4331,2.1548,1.2183,2.9404,.7856,.7852,1.8296,1.2173,2.9399,1.2173s2.1543-.4321,2.9404-1.2178c.7847-.7852,1.2173-1.8296,1.2178-2.9399-.0005-1.1108-.4331-2.1553-1.2183-2.9409-.7861-.7852-1.8301-1.2173-2.9399-1.2173-.5249,0-1.0366,.0981-1.5249,.293,.7642,1.126,1.4243,2.332,1.9653,3.5889,.1523,.355-.0127,.7671-.3667,.9189-.0879,.0376-.1807,.0566-.2759,.0566-.2798,0-.5322-.166-.6426-.4233-.5146-1.1978-1.146-2.3452-1.8779-3.4155Zm-13.8931-.96c-.855,.1406-1.6479,.5444-2.2637,1.1592-.7852,.7861-1.2173,1.8301-1.2173,2.9404s.4321,2.1538,1.2178,2.9404c.7856,.7852,1.8301,1.2173,2.9404,1.2173s2.1543-.4321,2.9404-1.2178c.7852-.7856,1.2173-1.8296,1.2173-2.9399s-.4321-2.1548-1.2178-2.9409c-.6006-.6001-1.3765-1.0029-2.2075-1.1514-.0869,.646-.1279,1.334-.1279,2.0825,0,.5557,.0229,1.0425,.0454,1.3896,.0117,.1724,.0229,.3101,.0317,.4038l-.2754,.1357,.2852-.0308c.0239,.2202-.0293,.4028-.146,.5483-.1167,.146-.2832,.2373-.4692,.2578h-.0103c-.4282,0-.7227-.2661-.7612-.6187-.0171-.1592-.0991-.9888-.0991-2.0859,.0005-.7529,.04-1.4536,.1172-2.0898Zm10.75-2.3501c-1.0781,.6948-2.167,1.396-2.832,1.854-.1006,.0693-.1646,.1738-.1807,.2949-.0161,.1216,.019,.2402,.0986,.334,.7256,.8555,2.042,2.562,2.6753,3.3823,.1797,.2334,.3042,.3945,.3428,.4429,.0337,.0425,.124,.1616,.208,.3296-.002-.0625-.0034-.125-.0034-.188,0-1.6699,.7256-3.2104,2.0005-4.2705-.3032-.3818-.6196-.7505-.9429-1.0996-.3989-.4302-.8047-.8267-1.208-1.1816l-.1582,.1021Zm-9.0483,.9888c1.0967,.2041,2.0728,.7285,2.8359,1.4668-.0581-.5449,.0503-1.0996,.2314-1.5522,.0449-.1113,.1323-.3301,1.5649-1.5908-1.2065,.0024-2.2764,.0317-3.1831,.0874-.1689,.0107-.3188,.0498-.458,.1196-.2393,.1201-.4468,.3306-.6343,.644-.1348,.2246-.2544,.501-.3569,.8252Z"/>
              <path class="d" d="M14.9471,23.7961c3.4641,0,5.6775,2.3469,6.5611,3.1978,1.1073,1.0664,1.3632,2.617,.5827,3.455-.1563,.1678-1.1014,.7917-2.2382,1.5273,.6369,.5619,1.5492,1.4601,2.5061,2.7113,.7331-.3866,1.5677-.6064,2.4541-.6065,2.9108,.0003,5.2698,2.3593,5.2701,5.27-.0003,2.9107-2.3593,5.2698-5.2701,5.2701-2.9107-.0003-5.2698-2.3593-5.27-5.2701,.0002-1.7275,.8312-3.2607,2.1153-4.2218-.3927-.5094-.7768-.957-1.1344-1.3428-.5495-.5929-1.0346-1.0389-1.3927-1.3445-1.1867,.7646-2.4423,1.5701-3.1783,2.0772-.3486,.2402-.4124,.7281-.1385,1.051,.9282,1.0948,2.8382,3.6008,3.0132,3.8194,.2331,.2914,.6349,1.0814-.1227,1.5476-.1949,.1199-.3815,.1644-.5514,.1644-.4907,0-.8412-.3716-.8412-.3716,0,0-3.0304-3.4384-3.788-4.2543-.7576-.8159-.5245-1.9814-.2914-2.5642,.0997-.2492,1.0312-1.0955,2.0642-1.9824-.2011-.0015-.4058-.0024-.6145-.0024-1.0952,0-2.2765,.0223-3.3517,.0885-.2175,.0137-.4018,.0656-.5693,.1493-.2912,.1461-.5401,.3991-.7518,.7536-.1985,.3309-.3565,.7465-.477,1.2053,2.5997,.3244,4.6114,2.54,4.6116,5.2276-.0003,2.9107-2.3593,5.2698-5.27,5.2701-2.9107-.0003-5.2698-2.3593-5.27-5.2701,.0003-2.8501,2.2625-5.1698,5.0894-5.2655,.0434-.1807,.0906-.3591,.1454-.5322,.193-.6046,.4602-1.1596,.8562-1.5926,.198-.2158,.4297-.3997,.6962-.5334,.2662-.1339,.5659-.2159,.8887-.2355,1.1005-.0677,2.2959-.09,3.4025-.09,.5553,0,1.088,.0057,1.5747,.0141,1.0585-.8859,1.9874-1.6335,1.9874-1.6335,0,0,.9716-.5154-.4853-.887-1.4569-.3716-4.8624-.417-4.8624-.417-.1935,0-.38-.0288-.5572-.0796l-1.7294,2.35s-2.75,2.0452-3.6478,2.0452c-.0536,0-.1008-.0073-.1402-.0228-.6994-.2748,0-.9491,0-.9491l2.9277-2.2728,1.1871-3.5836c.0265-.1062,.0597-.2097,.1022-.3085h0c.2011-.4671,.5734-.8422,1.0376-1.0486l.0002-.0004,.0024-.0008c.1302-.0577,.2671-.1032,.4101-.1325,.8789-.266,1.6982-.3788,2.4577-.3788m9.6638,15.9676c-.1599,0-.312-.0935-.3792-.2497-.6243-1.4526-1.3543-2.6896-2.0804-3.717-.1691,.1269-.3322,.2616-.4816,.4109-.805,.8057-1.3017,1.9144-1.302,3.1432,.0003,1.2288,.4969,2.3375,1.302,3.1432,.8057,.8051,1.9144,1.3017,3.1432,1.302,1.2288-.0002,2.3375-.4969,3.1432-1.302,.805-.8057,1.3017-1.9144,1.302-3.1432-.0003-1.2288-.4969-2.3375-1.302-3.1432-.8057-.8051-1.9144-1.3017-3.1432-1.302-.7043,.0001-1.3666,.1678-1.9575,.4587,.7456,1.0608,1.4929,2.3326,2.1344,3.8235,.09,.2093-.0068,.4519-.2161,.5419-.0531,.0228-.1083,.0336-.1627,.0336m-15.7366,4.0325c1.2288-.0002,2.3375-.4969,3.1432-1.3019,.8051-.8057,1.3017-1.9144,1.302-3.1432-.0003-1.2288-.4969-2.3375-1.302-3.1432-.6969-.6964-1.6211-1.1605-2.6532-1.2736l-.0089,.0519c-.1246,.7929-.1636,1.6316-.1635,2.3554,0,.5628,.0233,1.0565,.0466,1.4081,.0116,.1758,.0232,.3161,.0319,.4118,.0043,.0479,.0079,.0846,.0103,.109l.0028,.0273,.0009,.0081c.025,.2264-.1384,.4302-.3648,.4552-.0154,.0017-.0306,.0025-.0457,.0025-.2076,0-.3862-.1562-.4095-.3673h0c-.0011-.0101-.0973-.8839-.0974-2.0547,.0008-.7349,.0382-1.5846,.1645-2.4183-1.091,.0834-2.0706,.5554-2.8003,1.2846-.8051,.8057-1.3017,1.9144-1.302,3.1432,.0003,1.2288,.4969,2.3375,1.302,3.1432,.8057,.8051,1.9144,1.3017,3.1432,1.302m6.0729-20.574h0c-.849,0-1.7236,.1333-2.6,.3962-.159,.0345-.3181,.0857-.4736,.1527l-.0021,.0007-.0279,.0121c-.5996,.2671-1.0724,.7452-1.3312,1.3461-.0527,.1224-.0959,.2521-.132,.3965l-1.1201,3.3765-2.7899,2.1658-.0243,.0188-.0221,.0213c-.0984,.0949-.5835,.5974-.4688,1.1743,.0374,.1879,.1725,.5315,.6572,.7219,.1056,.0415,.2234,.0626,.3501,.0626,.4222,0,1.0703-.2891,1.7312-.6625-.1528,.2888-.2859,.612-.4014,.9735-.0171,.0541-.0336,.1086-.0494,.1634-2.9556,.3137-5.2122,2.7871-5.2125,5.8088,.0003,3.2221,2.6218,5.8436,5.8438,5.8439,3.2221-.0003,5.8436-2.6218,5.8439-5.8438,0-.2501-.0159-.4968-.0468-.7394,1.05,1.1813,2.1918,2.4765,2.2104,2.4977,.0663,.0707,.554,.566,1.2717,.566,.2964,0,.5831-.084,.8522-.2496,.1046-.0644,.1941-.1333,.2706-.2045,.7817,2.3078,2.9684,3.9734,5.5367,3.9736,3.2221-.0003,5.8437-2.6218,5.8439-5.8438-.0003-3.2221-2.6218-5.8436-5.8438-5.8439-.7844,0-1.5654,.16-2.285,.4653-.6365-.7952-1.2431-1.4348-1.7439-1.9173,1.2597-.8229,1.5948-1.0736,1.7268-1.2153,.9954-1.0688,.7242-2.9796-.6047-4.2594l-.149-.1447c-.9862-.9615-3.2963-3.2132-6.8101-3.2136h0Zm-3.7522,7.4003l1.3906-1.8896c.1038,.0128,.2078,.0193,.3114,.0193,.0257,.0004,3.3466,.0488,4.7206,.3992,.0332,.0085,.0641,.0168,.0929,.0249-.2962,.24-.9359,.7607-1.6572,1.3623-.4304-.0065-.8922-.0107-1.3706-.0107-1.2986,0-2.4552,.0307-3.4377,.0911l-.0499,.0034h0Zm-.9174,3.056c.069-.1757,.1439-.3311,.2243-.4652,.1567-.2623,.3304-.4423,.517-.5359,.1054-.0527,.2162-.0813,.348-.0896,.7087-.0436,1.516-.0711,2.4084-.082-.9441,.8646-1.0203,1.0553-1.0752,1.1925-.1238,.3094-.216,.6631-.2514,1.0314-.631-.4893-1.3665-.8531-2.1711-1.0513h0Zm8.7288,5.005l-.0511-.0663c-.6381-.8273-1.966-2.5488-2.7031-3.4182-.034-.0401-.0367-.0824-.0329-.1109,.0037-.0279,.017-.0674,.0593-.0965,.6535-.4503,1.7398-1.1505,2.799-1.8326,.3432,.3112,.6869,.6522,1.0255,1.0175,.2576,.2779,.5109,.5691,.7567,.8697-1.0445,.955-1.696,2.2346-1.8534,3.6373h0Zm4.7259-3.0481c.3504-.1034,.712-.1556,1.0809-.1557,1.0335,.0002,2.0058,.4029,2.7375,1.1341,.7308,.7313,1.1335,1.7036,1.1338,2.7374-.0002,1.0335-.403,2.0057-1.1341,2.7375-.7314,.7308-1.7037,1.1335-2.7374,1.1337-1.0335-.0002-2.0058-.4029-2.7375-1.1341-.7308-.7314-1.1335-1.7036-1.1338-2.7374,.0002-1.0162,.3897-1.9733,1.0977-2.7006,.643,.9752,1.2019,2.012,1.6653,3.0901,.1559,.3627,.5117,.597,.9064,.597,.1344,0,.2654-.027,.3893-.0802,.2421-.104,.4291-.2961,.5267-.5408,.0976-.2447,.094-.5128-.01-.7549-.4986-1.1589-1.0976-2.2749-1.7848-3.3261h0Zm-14.8583,4.702h.0315l.077-.006c.2619-.0289,.4969-.158,.6616-.3636,.1648-.2056,.2396-.463,.2107-.7249l-.0129-.1333c-.0083-.0923-.0195-.2279-.0308-.3979-.0207-.3125-.0453-.8039-.0453-1.3702,0-.625,.0289-1.2063,.0865-1.7353,.6612,.1728,1.2722,.5204,1.7597,1.0075,.7308,.7314,1.1335,1.7036,1.1338,2.7374-.0002,1.0335-.403,2.0058-1.1341,2.7375-.7314,.7308-1.7036,1.1335-2.7373,1.1337-1.0335-.0002-2.0058-.4029-2.7375-1.134-.7308-.7313-1.1335-1.7036-1.1338-2.7374,.0002-1.0335,.403-2.0058,1.1341-2.7375,.4815-.4811,1.0806-.8236,1.7326-.9979-.0502,.5366-.0759,1.114-.0766,1.7254,0,1.1494,.0903,2.02,.1005,2.1155,.0554,.5033,.4766,.881,.9801,.881h0Z"/>
            </g>
            <polygon class="f" points="7.355 33.5377 7.355 33.5377 7.3551 33.5376 7.355 33.5377"/>
            <path class="f" d="M11.9426,23.0652c-.0584,.0006-.1152,.0015-.1703,.0025-.0002,1.1167-.9055,2.022-2.0223,2.022s-2.0223-.9054-2.0223-2.0223c0,0-.5655-1.4529,1.3809-1.9168,.2017-.0675,.4169-.1056,.6413-.1056,1.95-.1963,2.4344,.9417,2.5529,1.592,.0406,.2227-.1339,.4259-.3602,.4282Z"/>
            <path class="f" d="M26.0276,38.9385c.4059,.6088-.0028,1.486-.6451,1.77-.6226,.3246-1.5611,.0986-1.7869-.5963,.564,.0988,.9586,.0727,1.4288-.1465,.451-.2256,.7342-.5288,1.0033-1.0272Z"/>
            <path class="f" d="M9.2365,39.9658c.451-.2256,.7343-.5288,1.0033-1.0272,.4059,.6088-.0028,1.486-.6451,1.77-.6227,.3246-1.5611,.0986-1.7869-.5963,.5639,.0988,.9586,.0727,1.4287-.1465Z"/>
            <path class="f" d="M6.0484,31.2685c-.172-.1155-.3332-.1582-.4813-.1587-.1965,.0002-.3764,.0789-.5107,.2138-.1334,.1358-.22,.3229-.2207,.5569,.0001,.1231,.0246,.2607,.086,.4128,.0435,.1062,.1007,.184,.1754,.2523,.1111,.1013,.2707,.1794,.4658,.2292,.194,.0501,.4185,.0705,.6354,.0703,.2561,.0001,.5014-.0275,.6794-.0553,.089-.0139,.1613-.0277,.2102-.0378l.055-.0119,.0127-.003,.0024-.0006h0c.2211-.0543,.4444,.0808,.4989,.3019,.0545,.2212-.0806,.4447-.3018,.4992-.0191,.004-.5301,.1314-1.1568,.1323-.3549-.0009-.7494-.0395-1.1247-.1884-.1871-.0749-.3699-.1793-.5305-.3249-.1606-.145-.2967-.3322-.386-.5537-.0987-.2435-.1465-.4882-.1464-.7225-.0008-.4478,.1757-.8523,.4597-1.1376,.2832-.2862,.6752-.4582,1.0966-.458,.3161-.0005,.6453,.0983,.9429,.2999,.1888,.1275,.2386,.3839,.1111,.5727-.1274,.1888-.3839,.2385-.5727,.1111Z"/>
          </g>
          <g>
            <g>
              <g>
                <path class="d" d="M34.8978,32.9008c5.1974-.1347,10.4311,1.0387,15.5708,.3588V1.5235H19.8285v31.3986c4.7961,1.4524,10.0182,.1096,15.0693-.0213Z"/>
                <path class="f" d="M34.8978,32.9008c-5.0511,.1309-10.2732,1.4737-15.0693,.0213v5.1644c0,2.3935,1.9403,4.3339,4.3339,4.3339h5.4241c3.2458,0,5.5621,3.1706,5.5621,3.1706,0,0,2.3163-3.1706,5.5621-3.1706h5.4241c2.3935,0,4.3339-1.9403,4.3339-4.3339v-4.8269c-5.1397,.6799-10.3734-.4935-15.5708-.3588Z"/>
              </g>
              <g>
                <path class="f" d="M34.2544,46.2448c-.019-.0254-2.0518-2.7163-4.668-2.7163h-5.4243c-3.0005,0-5.4419-2.4414-5.4419-5.4419V.4157H51.5766V38.0866c0,3.0005-2.4414,5.4419-5.4419,5.4419h-5.4243c-2.626,0-4.6475,2.6904-4.668,2.7178l-.896,1.2163-.8921-1.2178Zm-13.3179-8.1582c0,1.7788,1.4468,3.2256,3.2256,3.2256h5.4243c2.498,0,4.4648,1.5117,5.562,2.6074,1.0977-1.0957,3.0649-2.6074,5.562-2.6074h5.4243c1.7788,0,3.2261-1.4468,3.2261-3.2256V2.6315H20.9365V38.0866Z"/>
                <path class="d" d="M51.1611,.831V38.0865c0,2.7716-2.2547,5.0263-5.0263,5.0263h-5.4242c-2.846,0-4.9822,2.8587-5.0033,2.8877l-.5599,.7607-.5578-.7617c-.0206-.0279-2.1568-2.8866-5.0031-2.8866h-5.4242c-2.7716,0-5.0263-2.2547-5.0263-5.0263V.831H51.1611M24.1622,41.7278h5.4242c2.6107,0,4.6311,1.7851,5.5622,2.7906,.9311-1.0055,2.9515-2.7906,5.5619-2.7906h5.4242c2.0077,0,3.6413-1.6336,3.6413-3.6413V2.216H20.5209V38.0865c0,2.0077,1.6336,3.6413,3.6413,3.6413M51.9921,0H18.3049V38.0865c0,3.2297,2.6276,5.8573,5.8573,5.8573h5.4242c2.3988,0,4.3172,2.5261,4.3363,2.5516l.5541,.7567,.6687,.9132,.671-.9115,.5599-.7607c.0176-.0235,1.9331-2.5493,4.3341-2.5493h5.4242c3.2297,0,5.8573-2.6276,5.8573-5.8573V0h0ZM21.3519,3.047h27.5932V38.0865c0,1.5496-1.2607,2.8103-2.8103,2.8103h-5.4242c-2.431,0-4.3729,1.3395-5.5619,2.4458-1.189-1.1063-3.131-2.4458-5.5622-2.4458h-5.4242c-1.5496,0-2.8103-1.2607-2.8103-2.8103V3.047h0Z"/>
              </g>
            </g>
            <g>
              <circle class="f" cx="37.5121" cy="9.2155" r="2.1976"/>
              <circle class="f" cx="35.7725" cy="13.7577" r="2.2319"/>
              <circle class="f" cx="34.4831" cy="22.6396" r="2.1976"/>
              <g>
                <path class="f" d="M45.4726,35.3854c-1.207,0-1.7412-2.0059-2.9126-6.4004l-.4087-1.5269c-.6846-.2676-3.8081-1.4971-6.0093-2.5083-.3032,1.353-1.2148,5-2.3306,5.5532-2.0435,1.0112-8.5483,3.8906-8.6138,3.9194-.0239,.0117-.7637,.3604-1.4487,.3604-.7295,0-1.0288-.3818-1.1514-.7021-.4897-1.2788,.8066-2.0029,2.1792-2.7695l.3306-.1855c1.4863-.8394,5.209-2.8901,5.9131-3.2778,.209-1.0161,1.5737-7.7803,1.7793-11.728-.6421,.3506-1.8604,1.0059-2.8682,1.4946,.4585,2.6987,.999,7.0024-.1602,7.2505l-.0298,.0063-.0889,.0059c-1.1602,.0005-1.9517-3.8242-1.9585-3.8628l-.1709-.9399c-.3633-1.9712-.6768-3.6733-.2822-4.5518,.4277-.9507,5.3828-4.2266,8.0356-4.228l2.2725,.6938,4.3901,3.3818c.8047-.5566,3.7241-2.5122,5.0479-2.5122,.4521,0,.6543,.2153,.7446,.3955,.1377,.2759,.0708,.6274-.2056,1.0742-1.0264,1.6611-4.9512,4.5586-6.1753,4.5586-.0762,0-.147-.0093-.2104-.0273-.7505-.2163-2.2944-1.4048-3.0571-2.0171l-.3477,4.0288c1.438,.6562,6.5137,3.0288,6.9282,3.981,.6641,1.5244,2.2876,8.5454,1.5098,10.104-.1362,.2729-.3252,.3687-.4595,.4009-.0811,.019-.1626,.0288-.2417,.0288h0Z"/>
                <path class="d" d="M35.277,11.5815l2.1383,.6656,4.5159,3.4792s3.65-2.581,5.0563-2.581c.2334,0,.4049,.0711,.4878,.2368,.5389,1.0781-4.7644,5.2173-6.1243,5.2173-.0488,0-.0925-.0053-.1307-.0163-.931-.268-3.3762-2.3067-3.3762-2.3067l-.4117,4.7714s6.5559,2.9697,6.9688,3.9179c.7652,1.7573,2.5255,9.8063,1.2469,10.1114-.0598,.0143-.1183,.0214-.1752,.0214-1.114,0-1.6962-2.726-3.0818-7.855,0,0-3.9694-1.5385-6.4528-2.7048,0,0-1.0795,5.1252-2.254,5.7068-2.0617,1.0209-8.6025,3.9149-8.6025,3.9149,0,0-.7044,.3358-1.3324,.3358-.3802,0-.7324-.123-.8836-.5179-.434-1.1333,.9225-1.7774,2.3831-2.6027,1.6437-.9287,6.0263-3.3404,6.0263-3.3404,0,0,1.7187-8.2064,1.8321-12.4117,0,0-2.0317,1.1299-3.4948,1.8258,0,0,1.1973,6.8998,.0992,7.135-.0195,.0042-.0391,.0062-.0587,.0062-.7391,0-1.5475-2.8994-1.676-3.6261-.3891-2.2005-.8921-4.3941-.4739-5.3239,.3828-.8511,5.2563-4.058,7.774-4.059m.0871-.5739h-.0874c-2.6649,.0011-7.7817,3.2517-8.2971,4.3975-.4318,.9599-.1104,2.7031,.2616,4.7215,.0572,.31,.115,.6238,.1705,.9378,.0072,.041,.7902,4.1,2.241,4.1,.06,0,.1201-.0064,.1788-.0189,.3972-.0851,1.59-.3405,.4187-7.3675,.7673-.3775,1.6117-.8245,2.2312-1.1587-.275,3.8252-1.4507,9.7418-1.7153,11.0411-.9286,.5114-4.3897,2.419-5.7998,3.2157l-.3293,.1846c-1.3527,.7556-2.8859,1.6121-2.3074,3.1229,.1268,.3311,.4798,.8865,1.4195,.8865,.7366,0,1.4953-.3515,1.5793-.3916,.2528-.1116,6.561-2.9039,8.6102-3.9186,1.1332-.5611,2.0101-3.7169,2.405-5.403,2.0537,.9265,4.7202,1.983,5.5685,2.3159,.1306,.4851,.2539,.9478,.3712,1.3879,1.2099,4.5398,1.7621,6.6119,3.1893,6.6119,.1015,0,.2052-.0125,.3084-.0371,.1937-.0462,.4636-.1794,.6493-.5515,.8831-1.7693-.8943-8.9488-1.5032-10.3472-.4153-.9538-4.3362-2.8751-6.8883-4.0432l.2843-3.295c.8432,.657,2.0607,1.541,2.7383,1.736,.0892,.0257,.1866,.0387,.2894,.0387,1.4496,0,5.3945-3.0362,6.4193-4.694,.1224-.198,.4948-.8006,.2184-1.3537-.1035-.2069-.3711-.5541-1.0011-.5541-1.3242,0-3.9745,1.7162-5.0388,2.4439l-4.1832-3.2229-.0815-.0628-.0982-.0306-2.1383-.6656-.0834-.026h0Z"/>
              </g>
            </g>
          </g>
        </g>
      </g>
    </g>
  </g>
</svg>