<svg xmlns="http://www.w3.org/2000/svg" viewBox="0 0 537.4717 269.02">
  <defs>
    <style>
      .a {
        fill: #171a73;
      }

      .b {
        fill: none;
        stroke: #ce9500;
        stroke-miterlimit: 10;
        stroke-width: 7.2952px;
      }

      .c {
        fill: #fffcf8;
      }

      .d {
        fill: #e3aa19;
      }

      .e {
        fill: #fff;
      }
    </style>
  </defs>
  <g>
    <g>
      <path class="a" d="M.9775,164.4873a.394.394,0,0,1,.4454-.4453H14.9805v8.9355H5.29v-4.0009a2.0962,2.0962,0,0,0-.2-1.045,2.1138,2.1138,0,0,0-1.0888-.6445L1.3779,166.31a.6.6,0,0,1-.4-.5782ZM1.4229,197.56a.393.393,0,0,1-.4454-.4444V195.87a.598.598,0,0,1,.4-.5771l2.6231-.9785a2.4285,2.4285,0,0,0,1.0888-.667,1.9593,1.9593,0,0,0,.2-1.0225v-4h9.6905v3.5557a2.048,2.048,0,0,0,.2441,1.2451,1.917,1.917,0,0,0,.9121.4443L21.07,195.293a.5576.5576,0,0,1,.4443.5771v1.2451a.3926.3926,0,0,1-.4443.4444Zm3.8671,0V164.042h9.6905V197.56Zm23.56-24.4932a.6607.6607,0,0,1-.7109-.2666l-2.09-3.1123a3.5011,3.5011,0,0,0-1.1328-1.0889,2.7147,2.7147,0,0,0-1.2676-.289H14.9805V164.042H25.0713l4.09-.3555a3.061,3.061,0,0,1,1.2217.0449q.378.1334.4893.7559a13.4816,13.4816,0,0,1,.1113,2.0889l.0439,5.7343a.494.494,0,0,1-.4443.5333Zm-3.6455,14.0908a.7162.7162,0,0,1-.666-.3994l-.9336-1.6445a2.5667,2.5667,0,0,0-1-1.1338,2.715,2.715,0,0,0-1.2676-.2891H14.9805v-4.2675h6.1787a2.866,2.866,0,0,0,1.5117-.3331,2.7649,2.7649,0,0,0,.8887-.9111l.9785-1.6894a.7171.7171,0,0,1,.666-.4h1.5566a.393.393,0,0,1,.4444.4443v10.18a.3926.3926,0,0,1-.4444.4443Z"/>
      <path class="a" d="M43.5186,164.4873a.394.394,0,0,1,.4453-.4453H57.5215v8.9355h-9.69v-4.0009a1.418,1.418,0,0,0-1.2891-1.6895l-2.6231-.9775a.5994.5994,0,0,1-.4-.5782Zm.4453,33.0723a.3929.3929,0,0,1-.4453-.4444V195.87a.5979.5979,0,0,1,.4-.5771l2.6231-.9785a2.43,2.43,0,0,0,1.0889-.667,1.96,1.96,0,0,0,.2-1.0225v-4h9.69v3.8223a2.1649,2.1649,0,0,0,.2441,1.2675,2.0176,2.0176,0,0,0,.8672.5108l2.89,1.0674a.5971.5971,0,0,1,.3994.5771v1.2451a.3927.3927,0,0,1-.4444.4444Zm3.8672,0V164.042h9.69V197.56Zm9.69-13.5576v-4.2676H59.61a4.1027,4.1027,0,0,0,3.4453-1.5117,7.1323,7.1323,0,0,0,1.1777-4.4454,6.2871,6.2871,0,0,0-1.1328-4.1337,4.3278,4.3278,0,0,0-3.49-1.334H57.5215V164.042H59.61q7.1118,0,10.625,2.4228a8.2928,8.2928,0,0,1,3.5117,7.3125,8.82,8.82,0,0,1-3.6016,7.6016q-3.6006,2.6235-10.5351,2.6231ZM69.2568,197.56a5.0576,5.0576,0,0,1-1.289-.1338,1.8611,1.8611,0,0,1-.9336-.6885q-.4453-.5552-1.2442-1.8008l-5.6455-9.0683a6.2375,6.2375,0,0,0-.8672-1.2217,2.226,2.226,0,0,0-.7109-.5117,1.8409,1.8409,0,0,0-.6894-.1328l3.6-1.9122a12.3,12.3,0,0,1,3.8233.7559,9.82,9.82,0,0,1,2.7119,1.6006,14.8613,14.8613,0,0,1,2.1777,2.3115l4.7569,6.0449a7.2154,7.2154,0,0,0,1.1777,1.1787,4.2021,4.2021,0,0,0,1.2227.6446l1.5107.622a.63.63,0,0,1,.4.6221v1.2451a.3926.3926,0,0,1-.4443.4444Z"/>
      <path class="a" d="M107.8857,198.2705a21.7187,21.7187,0,0,1-10.0019-2.2,16.4119,16.4119,0,0,1-6.7119-6.1348,17.2638,17.2638,0,0,1-2.4-9.1787,17.07,17.07,0,0,1,2.4-9.1132,16.4673,16.4673,0,0,1,6.7119-6.1124,21.72,21.72,0,0,1,10.0019-2.2,22.1078,22.1078,0,0,1,10.0909,2.1787,16.2692,16.2692,0,0,1,6.7129,6.1113,18.6675,18.6675,0,0,1,0,18.3144,16.4146,16.4146,0,0,1-6.7129,6.1348A21.9238,21.9238,0,0,1,107.8857,198.2705Zm.045-4.9785a7.6145,7.6145,0,0,0,4.6894-1.4443,8.9573,8.9573,0,0,0,2.9561-4.2012,21.9511,21.9511,0,0,0-.044-13.38,9.8413,9.8413,0,0,0-3.0449-4.4014,7.9795,7.9795,0,0,0-9.3135-.11,8.8956,8.8956,0,0,0-2.9111,4.1777,22.4873,22.4873,0,0,0,.0439,13.4033,9.7429,9.7429,0,0,0,3.001,4.4A7.1967,7.1967,0,0,0,107.9307,193.292Z"/>
      <path class="a" d="M139.0918,197.56a.3926.3926,0,0,1-.4443-.4444V195.87a.5576.5576,0,0,1,.4443-.5771l2.8008-.8448a2.4421,2.4421,0,0,0,.9336-.4892,2.0507,2.0507,0,0,0,.3115-1.2451l1.4219-24.0928a1.7494,1.7494,0,0,0-.2891-1.3779,1.9031,1.9031,0,0,0-1.0439-.5332l-2.4893-.4454a.4939.4939,0,0,1-.4453-.5332v-1.2441a.394.394,0,0,1,.4453-.4453h14.8018a.4656.4656,0,0,1,.623.623v.3106a11.9035,11.9035,0,0,0,.2,2.3564,9.8065,9.8065,0,0,0,.6,1.9112l8.5352,21.07-4.8008,3.2451,9.3349-24.1377a13.3,13.3,0,0,0,.667-2.2666,11.031,11.031,0,0,0,.1778-1.9561v-.5332a.4653.4653,0,0,1,.622-.623h14.1807a.3937.3937,0,0,1,.4443.4453v1.2441a.4938.4938,0,0,1-.4443.5332l-2.2226.4a1.7989,1.7989,0,0,0-1.2227.6221,1.8662,1.8662,0,0,0-.2451,1.1563l2.4013,24.538a2.0607,2.0607,0,0,0,.3555,1.2217,2.6677,2.6677,0,0,0,.9336.4668l2.667.667a.4951.4951,0,0,1,.4443.5332v1.2451a.3926.3926,0,0,1-.4443.4444h-17.248a.3927.3927,0,0,1-.4444-.4444V195.87a.4952.4952,0,0,1,.4444-.5332l2.4892-.6221a2.0494,2.0494,0,0,0,1.1113-.5556,1.6392,1.6392,0,0,0,.0889-1l-2.4443-25.4268,3.7334-.7558-12.2237,30.1826a.6315.6315,0,0,1-.623.4H159.94a.6286.6286,0,0,1-.622-.4l-13.5137-30.1826,3.7783-.4444L148.16,192.8916a1.7554,1.7554,0,0,0,.1562,1.0225,2.0806,2.0806,0,0,0,1.1328.5781l2.4893.8008a.5584.5584,0,0,1,.4453.5771v1.2451a.3933.3933,0,0,1-.4453.4444Z"/>
      <path class="a" d="M221.5059,164.4873a.394.394,0,0,1,.4453-.4453h13.5576v8.9355h-9.69v-4.0009a1.418,1.418,0,0,0-1.2891-1.6895l-2.6231-.9775a.5994.5994,0,0,1-.4-.5782Zm.4453,33.0723a.3929.3929,0,0,1-.4453-.4444V195.87a.5979.5979,0,0,1,.4-.5771l2.6231-.9785a2.43,2.43,0,0,0,1.0889-.667,1.9593,1.9593,0,0,0,.2-1.0225v-4h9.69V197.56Zm3.8672,0V164.042h9.69v27.6055a1.7314,1.7314,0,0,0,.3779,1.3115,1.596,1.596,0,0,0,1.0889.333h.6221a5.4937,5.4937,0,0,0,3.9785-1.2441,6.5243,6.5243,0,0,0-.0215-7.7579,5.4534,5.4534,0,0,0-3.957-1.2666h-2.0889v-4.2675h2.0889a3.7367,3.7367,0,0,0,3.1347-1.5557,6.5277,6.5277,0,0,0,1.1778-4.0449,5.2974,5.2974,0,0,0-1.0889-3.6231,4.0962,4.0962,0,0,0-3.2236-1.2226h-2.0889V164.042h2.0889q6.8905,0,10.3359,2.1787a7.1818,7.1818,0,0,1,3.4443,6.49,5.8339,5.8339,0,0,1-1.1113,3.5557,9.1362,9.1362,0,0,1-2.7783,2.4893,13.8,13.8,0,0,1-3.4,1.4453,11.7656,11.7656,0,0,1-2.9785.4668v-.8448a16.8905,16.8905,0,0,1,2.5566.2442,17.6788,17.6788,0,0,1,3.2.8447A14.4892,14.4892,0,0,1,250,182.49a8.1972,8.1972,0,0,1,2.4,2.4453,6.3109,6.3109,0,0,1,.9336,3.4668,7.4761,7.4761,0,0,1-3.7783,6.9346q-3.7794,2.2236-11.958,2.2227Z"/>
      <path class="a" d="M265.292,164.4873a.394.394,0,0,1,.4453-.4453h13.5576v8.9355h-9.69v-4.0009a1.418,1.418,0,0,0-1.2891-1.6895l-2.623-.9775a.6.6,0,0,1-.4-.5782Zm.4453,33.0723a.3929.3929,0,0,1-.4453-.4444V195.87a.598.598,0,0,1,.4-.5771l2.623-.9785a2.43,2.43,0,0,0,1.0889-.667,1.9593,1.9593,0,0,0,.2-1.0225v-4h9.69V197.56Zm3.8672,0V164.042h9.69v27.6055a1.731,1.731,0,0,0,.378,1.3115,1.5956,1.5956,0,0,0,1.0888.333h7.9571a3.4994,3.4994,0,0,0,1.5556-.2891,2.9659,2.9659,0,0,0,1.0225-.8662l2.9345-3.5566a.5175.5175,0,0,1,.711-.2217l1.7334.4443a.5511.5511,0,0,1,.4.5772l-.9785,6.624a3.0143,3.0143,0,0,1-.3331,1.2,1.1009,1.1009,0,0,1-.8886.4668,18.359,18.359,0,0,1-2.1123.0225l-2.8448-.1338Zm24.3594-24.4932a.6615.6615,0,0,1-.711-.2666l-2.0888-3.1123a3.5136,3.5136,0,0,0-1.1338-1.0889,2.7108,2.7108,0,0,0-1.2666-.289h-9.4688V164.042h10.8906l4.09-.3555a3.0658,3.0658,0,0,1,1.2226.0449q.3765.1334.4893.7559a13.6427,13.6427,0,0,1,.11,2.0889l.0449,5.7343a.4941.4941,0,0,1-.4444.5333Zm-3.6446,13.4688a.718.718,0,0,1-.667-.3995l-.9335-1.6894a2.5723,2.5723,0,0,0-1-1.1338,2.711,2.711,0,0,0-1.2667-.2891h-7.1572v-4.2675h6.98a2.8538,2.8538,0,0,0,1.5108-.333,2.77,2.77,0,0,0,.89-.9112l.9775-1.6894a.7188.7188,0,0,1,.667-.4h1.6a.3944.3944,0,0,1,.4454.4453v10.2236a.3934.3934,0,0,1-.4454.4444Z"/>
      <path class="a" d="M310.0547,164.4873a.394.394,0,0,1,.4453-.4453h17.5137a.3937.3937,0,0,1,.4443.4453v1.2441a.5985.5985,0,0,1-.3994.5782l-2.89,1.0664a2.0356,2.0356,0,0,0-.8671.5117,2.1655,2.1655,0,0,0-.2442,1.2666v3.8232h-9.69v-4.0009a1.418,1.418,0,0,0-1.2891-1.6895l-2.623-.9775a.6.6,0,0,1-.4-.5782ZM310.5,197.56a.3929.3929,0,0,1-.4453-.4444V195.87a.598.598,0,0,1,.4-.5771l2.623-.9785a2.43,2.43,0,0,0,1.0889-.667,1.9593,1.9593,0,0,0,.2-1.0225v-4h9.69V197.56Zm3.8672,0V164.042h9.69v27.6055a1.7314,1.7314,0,0,0,.3779,1.3115,1.596,1.596,0,0,0,1.0889.333h6.5791a3.1615,3.1615,0,0,0,1.5332-.3106,2.85,2.85,0,0,0,.9561-.89l2.5781-3.5117a.6237.6237,0,0,1,.7119-.2217l1.7334.4443a.55.55,0,0,1,.3994.5772l-.9775,6.624a3.0161,3.0161,0,0,1-.333,1.2,1.1033,1.1033,0,0,1-.89.4668,18.34,18.34,0,0,1-2.1113.0225l-2.5781-.1338Z"/>
      <path class="a" d="M370.8213,168.31a7.3217,7.3217,0,0,0-4.6006,1.4892,9.24,9.24,0,0,0-2.9561,4.2676,22.62,22.62,0,0,0,0,13.4473,9.2276,9.2276,0,0,0,2.9561,4.289,7.3158,7.3158,0,0,0,4.6006,1.4893,17.3243,17.3243,0,0,0,2.5781-.2,12.9868,12.9868,0,0,0,2.3555-.5557v-6.2226a1.9343,1.9343,0,0,0-.2442-1.2227,2.0893,2.0893,0,0,0-.9111-.4228l-3.8232-.8887a.4946.4946,0,0,1-.4444-.5332v-2.0449a.3931.3931,0,0,1,.4444-.4444H386.957a.3937.3937,0,0,1,.4453.4444v2.0449a.63.63,0,0,1-.4.6221l-1.2452.5332a2.3047,2.3047,0,0,0-1.0888.6894,2.1019,2.1019,0,0,0-.2,1.0449v5.1114l.3115,2.8447a1.1325,1.1325,0,0,1-.0449.6006,1.344,1.344,0,0,1-.4444.3779,19.4258,19.4258,0,0,1-5.6679,2.2891,31.0336,31.0336,0,0,1-7.7569.9111,21.7187,21.7187,0,0,1-10.0019-2.2,16.3622,16.3622,0,0,1-6.7119-6.1562,17.301,17.301,0,0,1-2.4-9.1573,17.07,17.07,0,0,1,2.4-9.1132,16.4673,16.4673,0,0,1,6.7119-6.1124,21.72,21.72,0,0,1,10.0019-2.2,25.4419,25.4419,0,0,1,4.89.4443q2.2675.4454,3.29.7558l1.7783.3116a3.2144,3.2144,0,0,1,1.1778.3779,1.4155,1.4155,0,0,1,.5332.9111,14.25,14.25,0,0,1,.2441,2.1338l.4,7.8682q.0894.4-.4.4883l-2.3554.2675a.5048.5048,0,0,1-.6221-.3564l-1.9121-3.9561a11.7791,11.7791,0,0,0-.6885-1.2441,8.7386,8.7386,0,0,0-.7334-.89,6.8176,6.8176,0,0,0-2.5342-1.6221A9.1372,9.1372,0,0,0,370.8213,168.31Z"/>
      <path class="a" d="M398.87,164.4873a.394.394,0,0,1,.4453-.4453h17.5137a.3937.3937,0,0,1,.4443.4453v1.2441a.5985.5985,0,0,1-.3994.5782l-2.89,1.0664a2.036,2.036,0,0,0-.8672.5117,2.1655,2.1655,0,0,0-.2442,1.2666v3.8232h-9.69v-4.0009a1.418,1.418,0,0,0-1.289-1.6895l-2.6231-.9775a.6.6,0,0,1-.4-.5782Zm.4453,33.0723a.393.393,0,0,1-.4453-.4444V195.87a.598.598,0,0,1,.4-.5771l2.6231-.9785a2.4291,2.4291,0,0,0,1.0888-.667,1.9593,1.9593,0,0,0,.2-1.0225v-4h9.69v3.8223a2.1647,2.1647,0,0,0,.2442,1.2675,2.017,2.017,0,0,0,.8672.5108l2.89,1.0674a.5971.5971,0,0,1,.3994.5771v1.2451a.3926.3926,0,0,1-.4443.4444Zm3.8672,0V164.042h9.69V197.56Z"/>
      <path class="a" d="M428.9189,164.4873a.394.394,0,0,1,.4454-.4453h17.5136a.3937.3937,0,0,1,.4444.4453v1.2441a.5985.5985,0,0,1-.3994.5782l-2.89,1.0664a2.0367,2.0367,0,0,0-.8672.5117,2.1657,2.1657,0,0,0-.2441,1.2666v3.8232h-9.69v-4.0009a1.418,1.418,0,0,0-1.289-1.6895l-2.6231-.9775a.6.6,0,0,1-.4-.5782Zm34.2286,20.3584q0,6.4469-3.9561,9.9355-3.9565,3.4908-11.2461,3.4893-7.1133,0-10.9131-3.1777t-3.8008-9.0908v-21.96h9.69v22.9824a6.0124,6.0124,0,0,0,1.7783,4.5781,6.8041,6.8041,0,0,0,4.89,1.69,6.5114,6.5114,0,0,0,5.045-1.9561,7.7718,7.7718,0,0,0,1.8007-5.4677V164.042h6.712Zm-11.0684-20.3584a.3933.3933,0,0,1,.4443-.4453h14.58a.3944.3944,0,0,1,.4453.4453v1.2441a.6.6,0,0,1-.4.5782l-2.89,1.0664a2.0256,2.0256,0,0,0-.8662.5117,2.1558,2.1558,0,0,0-.2451,1.2666v3.8232h-6.712v-4.0009a1.4178,1.4178,0,0,0-1.289-1.6895l-2.667-.9775a.6.6,0,0,1-.4-.5782Z"/>
      <path class="a" d="M477.5947,197.56a.3926.3926,0,0,1-.4443-.4444V195.87a.5576.5576,0,0,1,.4443-.5771l2.8008-.8448a2.4413,2.4413,0,0,0,.9336-.4892,2.05,2.05,0,0,0,.3115-1.2451l1.4219-24.0928a1.749,1.749,0,0,0-.2891-1.3779,1.9031,1.9031,0,0,0-1.0439-.5332l-2.4893-.4454a.494.494,0,0,1-.4453-.5332v-1.2441a.394.394,0,0,1,.4453-.4453H494.042a.4656.4656,0,0,1,.623.623v.3106a11.9035,11.9035,0,0,0,.2,2.3564,9.8065,9.8065,0,0,0,.6,1.9112L504,190.3135l-4.8008,3.2451,9.335-24.1377a13.31,13.31,0,0,0,.667-2.2666,11.0308,11.0308,0,0,0,.1777-1.9561v-.5332a.4653.4653,0,0,1,.6221-.623h14.1806a.3937.3937,0,0,1,.4444.4453v1.2441a.4939.4939,0,0,1-.4444.5332l-2.2226.4a1.7989,1.7989,0,0,0-1.2227.6221,1.8669,1.8669,0,0,0-.2451,1.1563l2.4014,24.538a2.0608,2.0608,0,0,0,.3554,1.2217,2.6677,2.6677,0,0,0,.9336.4668l2.667.667a.4952.4952,0,0,1,.4444.5332v1.2451a.3927.3927,0,0,1-.4444.4444h-17.248a.3927.3927,0,0,1-.4444-.4444V195.87a.4952.4952,0,0,1,.4444-.5332l2.4892-.6221a2.05,2.05,0,0,0,1.1114-.5556,1.64,1.64,0,0,0,.0888-1l-2.4443-25.4268,3.7334-.7558-12.2236,30.1826a.6317.6317,0,0,1-.6231.4h-3.289a.6287.6287,0,0,1-.6221-.4l-13.5137-30.1826,3.7783-.4444-1.4228,26.3594a1.7554,1.7554,0,0,0,.1562,1.0225,2.081,2.081,0,0,0,1.1328.5781l2.4893.8008a.5584.5584,0,0,1,.4453.5771v1.2451a.3933.3933,0,0,1-.4453.4444Z"/>
      <path class="a" d="M64.4121,216.8516a3.2788,3.2788,0,0,1,1.1787-.044c.251.06.4219.2959.5108.711a11.2829,11.2829,0,0,1,.1338,2.0888l.1777,7.4238a.4729.4729,0,0,1-.4443.4893l-1.6895.1777a.5046.5046,0,0,1-.6221-.3554l-2.001-4.2237a2.698,2.698,0,0,0-.955-1.1777,2.4535,2.4535,0,0,0-1.2227-.2891H41.208a2.4952,2.4952,0,0,0-1.4668.3555,2.6431,2.6431,0,0,0-.8.9785l-2.09,4.3565a.5054.5054,0,0,1-.6221.3554l-1.69-.1777a.4728.4728,0,0,1-.4443-.4893l.1338-8.6679a3.7513,3.7513,0,0,1,.2-1.2q.1553-.3559.8-.3555a15.2418,15.2418,0,0,1,2.0674.2217l1.1113.1777q1.8661.0455,3.5117.0889,1.6436.0455,3.6006.0674t4.7119.0215q2.8008,0,4.7559-.0215t3.623-.0674q1.6671-.0425,3.4893-.0889ZM41.52,250.9023a.3922.3922,0,0,1-.4443-.4443v-1.2451a.5973.5973,0,0,1,.3994-.5772l2.6231-.9785a2.4164,2.4164,0,0,0,1.0888-.667,1.9586,1.9586,0,0,0,.2-1.0224v-4h9.69V245.79a2.1632,2.1632,0,0,0,.2452,1.2676,2.0061,2.0061,0,0,0,.8662.5108l2.89,1.0673a.5982.5982,0,0,1,.4.5772v1.2451a.3926.3926,0,0,1-.4443.4443Zm3.8672,0V217.3848h9.69v33.5175Z"/>
      <path class="a" d="M97.1738,251.6133a21.7187,21.7187,0,0,1-10.0019-2.2,16.4112,16.4112,0,0,1-6.7119-6.1348,17.264,17.264,0,0,1-2.4-9.1787,17.07,17.07,0,0,1,2.4-9.1133,16.4671,16.4671,0,0,1,6.7119-6.1123,21.7187,21.7187,0,0,1,10.0019-2.2,22.1087,22.1087,0,0,1,10.0908,2.1787,16.2688,16.2688,0,0,1,6.7129,6.1114,18.6669,18.6669,0,0,1,0,18.3144,16.4133,16.4133,0,0,1-6.7129,6.1348A21.9234,21.9234,0,0,1,97.1738,251.6133Zm.045-4.9785a7.6142,7.6142,0,0,0,4.6894-1.4444,8.9575,8.9575,0,0,0,2.9561-4.2011,21.9511,21.9511,0,0,0-.044-13.38,9.8413,9.8413,0,0,0-3.0449-4.4014,7.979,7.979,0,0,0-9.3135-.11,8.8946,8.8946,0,0,0-2.9111,4.1777,22.4873,22.4873,0,0,0,.0439,13.4033,9.7429,9.7429,0,0,0,3.001,4.4A7.1967,7.1967,0,0,0,97.2188,246.6348Z"/>
      <path class="a" d="M150.3828,250.9023a.3922.3922,0,0,1-.4443-.4443v-1.2451a.63.63,0,0,1,.4-.6221l1.1552-.4892a4.2808,4.2808,0,0,0,1.3555-.8887,4.5462,4.5462,0,0,0,.7783-1.1113l12.5362-27.7832a.8124.8124,0,0,1,.622-.4883l4.1338-.89a.4012.4012,0,0,1,.5332.3555l.7119,2.8008,12.7129,25.8711a4.1544,4.1544,0,0,0,.9112,1.3115,4.0088,4.0088,0,0,0,1.1338.7334l1.2451.5781a.63.63,0,0,1,.3994.6221v1.2451a.3926.3926,0,0,1-.4444.4443H170.6084a.3926.3926,0,0,1-.4443-.4443v-1.2451a.5982.5982,0,0,1,.4-.5772l2-.7119q1.2889-.4438,1.5117-1.0888a2.1053,2.1053,0,0,0-.2227-1.5782l-9.6015-20.67,5.3789-3.2012-10.3575,23.6485a1.6628,1.6628,0,0,0,1.0664,2.7568l2.6231.8447a.5578.5578,0,0,1,.4443.5772v1.2451a.3926.3926,0,0,1-.4443.4443Zm8.5791-13.4248q4.49.2667,9.335.2666t9.291-.2666v4.2676q-4.4459.2667-9.291.2666t-9.335-.2666Z"/>
      <path class="a" d="M224.5742,216.8516a3.2788,3.2788,0,0,1,1.1787-.044c.251.06.4219.2959.5108.711a11.2829,11.2829,0,0,1,.1338,2.0888l.1777,7.4238a.4728.4728,0,0,1-.4443.4893l-1.69.1777a.5046.5046,0,0,1-.6221-.3554l-2.0009-4.2237a2.6988,2.6988,0,0,0-.9551-1.1777,2.4532,2.4532,0,0,0-1.2227-.2891H201.37a2.4952,2.4952,0,0,0-1.4668.3555,2.6431,2.6431,0,0,0-.8.9785l-2.09,4.3565a.5054.5054,0,0,1-.6221.3554l-1.69-.1777a.4728.4728,0,0,1-.4443-.4893l.1338-8.6679a3.7513,3.7513,0,0,1,.2-1.2q.1552-.3559.8-.3555a15.2418,15.2418,0,0,1,2.0674.2217l1.1113.1777q1.8663.0455,3.5117.0889,1.6436.0455,3.6006.0674,1.9555.0219,4.7119.0215,2.8008,0,4.7559-.0215t3.623-.0674q1.6671-.0425,3.4893-.0889Zm-22.8926,34.0507a.3922.3922,0,0,1-.4443-.4443v-1.2451a.5973.5973,0,0,1,.3994-.5772l2.6231-.9785a2.4164,2.4164,0,0,0,1.0888-.667,1.9586,1.9586,0,0,0,.2-1.0224v-4h9.69V245.79a2.1634,2.1634,0,0,0,.2451,1.2676,2.0061,2.0061,0,0,0,.8662.5108l2.89,1.0673a.5982.5982,0,0,1,.4.5772v1.2451a.3926.3926,0,0,1-.4443.4443Zm3.8672,0V217.3848h9.69v33.5175Z"/>
      <path class="a" d="M237.7764,217.83a.394.394,0,0,1,.4453-.4453h17.5137a.3937.3937,0,0,1,.4443.4453v1.2441a.5983.5983,0,0,1-.3994.5781l-2.89,1.0665a2.0367,2.0367,0,0,0-.8672.5117,2.1663,2.1663,0,0,0-.2441,1.2666V226.32h-9.69v-4.001A1.418,1.418,0,0,0,240.8,220.63l-2.623-.9776a.5992.5992,0,0,1-.4-.5781Zm.4453,33.0722a.3929.3929,0,0,1-.4453-.4443v-1.2451a.5982.5982,0,0,1,.4-.5772l2.623-.9785a2.4288,2.4288,0,0,0,1.0889-.667,1.9586,1.9586,0,0,0,.2-1.0224v-4h9.69V245.79a2.1661,2.1661,0,0,0,.2441,1.2676,2.0176,2.0176,0,0,0,.8672.5108l2.89,1.0673a.5973.5973,0,0,1,.3994.5772v1.2451a.3926.3926,0,0,1-.4443.4443Zm3.8672,0V217.3848h9.69v33.5175Zm0-19.7812q3.6006.4,7.69.6221t8.3125.2226q4.2216,0,8.3125-.2226,4.0884-.2212,7.69-.6221v4.3115q-3.6006.4-7.69.6006-4.09.1992-8.3125.2-4.2246,0-8.3125-.2-4.0913-.2007-7.69-.6006Zm18.0029-13.291a.3937.3937,0,0,1,.4443-.4453h17.5147a.3937.3937,0,0,1,.4443.4453v1.2441a.5979.5979,0,0,1-.4.5781l-2.8886,1.0665a2.0232,2.0232,0,0,0-.8672.5117,2.1653,2.1653,0,0,0-.2442,1.2666V226.32h-9.6914v-4.001a1.4163,1.4163,0,0,0-1.289-1.6894l-2.6221-.9776a.5992.5992,0,0,1-.4-.5781Zm.4443,33.0722a.3926.3926,0,0,1-.4443-.4443v-1.2451a.5982.5982,0,0,1,.4-.5772l2.6221-.9785a2.4277,2.4277,0,0,0,1.09-.667,1.97,1.97,0,0,0,.1992-1.0224v-4h9.6914V245.79a2.1651,2.1651,0,0,0,.2442,1.2676,2.0044,2.0044,0,0,0,.8672.5108l2.8886,1.0673a.5969.5969,0,0,1,.4.5772v1.2451a.3926.3926,0,0,1-.4443.4443Zm3.8672,0V217.3848h9.6914v33.5175Z"/>
      <path class="a" d="M290.23,217.83a.394.394,0,0,1,.4453-.4453h17.5137a.3937.3937,0,0,1,.4443.4453v1.2441a.5983.5983,0,0,1-.3994.5781l-2.89,1.0665a2.0354,2.0354,0,0,0-.8672.5117,2.1653,2.1653,0,0,0-.2442,1.2666V226.32h-9.69v-4.001a1.418,1.418,0,0,0-1.2891-1.6894l-2.623-.9776a.5992.5992,0,0,1-.4-.5781Zm.4453,33.0722a.3929.3929,0,0,1-.4453-.4443v-1.2451a.5982.5982,0,0,1,.4-.5772l2.623-.9785a2.4288,2.4288,0,0,0,1.0889-.667,1.9586,1.9586,0,0,0,.2-1.0224v-4h9.69v8.9345Zm3.8672,0V217.3848h9.69V244.99a1.7311,1.7311,0,0,0,.378,1.3116,1.5961,1.5961,0,0,0,1.0888.333h6.5791a3.1626,3.1626,0,0,0,1.5332-.3106,2.85,2.85,0,0,0,.9561-.89l2.5781-3.5117a.6234.6234,0,0,1,.7119-.2217l1.7334.4443a.55.55,0,0,1,.3994.5772l-.9775,6.624a3.0161,3.0161,0,0,1-.333,1.2,1.1033,1.1033,0,0,1-.89.4668,18.323,18.323,0,0,1-2.1113.0224l-2.5781-.1338Z"/>
      <path class="a" d="M331.9258,217.83a.394.394,0,0,1,.4453-.4453h13.5576V226.32h-9.69v-4.001a1.418,1.418,0,0,0-1.2891-1.6894l-2.623-.9776a.5992.5992,0,0,1-.4-.5781Zm.4453,33.0722a.3929.3929,0,0,1-.4453-.4443v-1.2451a.5982.5982,0,0,1,.4-.5772l2.623-.9785a2.4288,2.4288,0,0,0,1.0889-.667,1.9586,1.9586,0,0,0,.2-1.0224v-4h9.69v8.9345Zm3.8672,0V217.3848h9.69V244.99a1.7315,1.7315,0,0,0,.3779,1.3116,1.5965,1.5965,0,0,0,1.0889.333h7.957a3.5,3.5,0,0,0,1.5557-.2891,2.9659,2.9659,0,0,0,1.0225-.8662l2.9345-3.5566a.5174.5174,0,0,1,.711-.2217l1.7334.4443a.5511.5511,0,0,1,.4.5772l-.9786,6.624a3.0145,3.0145,0,0,1-.333,1.2,1.1009,1.1009,0,0,1-.8886.4668,18.3416,18.3416,0,0,1-2.1123.0224l-2.8448-.1338Zm24.3594-24.4931a.6615.6615,0,0,1-.711-.2666l-2.0888-3.1123a3.5136,3.5136,0,0,0-1.1338-1.0889,2.7109,2.7109,0,0,0-1.2666-.2891h-9.4688v-4.2675h10.8906l4.09-.3555a3.0658,3.0658,0,0,1,1.2226.0449q.3765.1333.4893.7559a13.6455,13.6455,0,0,1,.11,2.0888l.045,5.7344a.494.494,0,0,1-.4444.5332Zm-3.6446,13.4687a.7178.7178,0,0,1-.667-.3994l-.9336-1.6894a2.5706,2.5706,0,0,0-1-1.1338,2.7106,2.7106,0,0,0-1.2666-.2891h-7.1572v-4.2676h6.98a2.8522,2.8522,0,0,0,1.5107-.333,2.7688,2.7688,0,0,0,.89-.9111l.9775-1.69a.7187.7187,0,0,1,.667-.4h1.6a.3944.3944,0,0,1,.4453.4454v10.2236a.3933.3933,0,0,1-.4453.4443Z"/>
      <path class="a" d="M406.4717,216.8516a3.2788,3.2788,0,0,1,1.1787-.044c.251.06.4219.2959.5107.711a11.274,11.274,0,0,1,.1338,2.0888l.1778,7.4238a.4729.4729,0,0,1-.4444.4893l-1.6894.1777a.5046.5046,0,0,1-.6221-.3554l-2.001-4.2237a2.6981,2.6981,0,0,0-.9551-1.1777,2.4531,2.4531,0,0,0-1.2226-.2891h-18.27a2.495,2.495,0,0,0-1.4668.3555,2.6431,2.6431,0,0,0-.8.9785l-2.09,4.3565a.5053.5053,0,0,1-.622.3554l-1.69-.1777a.4728.4728,0,0,1-.4443-.4893l.1338-8.6679a3.7513,3.7513,0,0,1,.2-1.2q.1552-.3559.8-.3555a15.2407,15.2407,0,0,1,2.0673.2217l1.1114.1777q1.8662.0455,3.5117.0889,1.6436.0455,3.6006.0674t4.7119.0215q2.8008,0,4.7559-.0215t3.623-.0674q1.6669-.0425,3.4893-.0889Zm-22.8926,34.0507a.3922.3922,0,0,1-.4443-.4443v-1.2451a.5973.5973,0,0,1,.3994-.5772l2.623-.9785a2.4163,2.4163,0,0,0,1.0889-.667,1.9586,1.9586,0,0,0,.2-1.0224v-4h9.69V245.79a2.1642,2.1642,0,0,0,.2451,1.2676,2.0067,2.0067,0,0,0,.8662.5108l2.89,1.0673a.5982.5982,0,0,1,.4.5772v1.2451a.3926.3926,0,0,1-.4443.4443Zm3.8672,0V217.3848h9.69v33.5175Z"/>
      <path class="a" d="M419.6738,217.83a.394.394,0,0,1,.4453-.4453h13.5577V226.32h-9.69v-4.001a1.418,1.418,0,0,0-1.289-1.6894l-2.6231-.9776a.5992.5992,0,0,1-.4-.5781Zm.4453,33.0722a.3929.3929,0,0,1-.4453-.4443v-1.2451a.5982.5982,0,0,1,.4-.5772l2.6231-.9785a2.4282,2.4282,0,0,0,1.0888-.667,1.9586,1.9586,0,0,0,.2-1.0224v-4h9.69v8.9345Zm3.8672,0V217.3848h9.69V244.99a1.7311,1.7311,0,0,0,.3779,1.3116,1.5964,1.5964,0,0,0,1.0889.333h7.957a3.4988,3.4988,0,0,0,1.5556-.2891,2.9659,2.9659,0,0,0,1.0225-.8662l2.9346-3.5566a.5173.5173,0,0,1,.7109-.2217l1.7334.4443a.5511.5511,0,0,1,.4.5772l-.9785,6.624a3.0161,3.0161,0,0,1-.333,1.2,1.1012,1.1012,0,0,1-.8887.4668,18.3416,18.3416,0,0,1-2.1123.0224l-2.8447-.1338Zm24.3594-24.4931a.6613.6613,0,0,1-.7109-.2666l-2.0889-3.1123a3.5126,3.5126,0,0,0-1.1338-1.0889,2.7109,2.7109,0,0,0-1.2666-.2891h-9.4687v-4.2675h10.8906l4.09-.3555a3.0665,3.0665,0,0,1,1.2227.0449q.3765.1333.4892.7559a13.6289,13.6289,0,0,1,.11,2.0888l.0449,5.7344a.4939.4939,0,0,1-.4443.5332Zm-3.6445,13.4687a.7177.7177,0,0,1-.667-.3994l-.9336-1.6894a2.5718,2.5718,0,0,0-1-1.1338,2.7109,2.7109,0,0,0-1.2666-.2891h-7.1572v-4.2676h6.9794a2.8528,2.8528,0,0,0,1.5108-.333,2.7675,2.7675,0,0,0,.89-.9111l.9776-1.69a.7186.7186,0,0,1,.667-.4h1.6a.3944.3944,0,0,1,.4453.4454v10.2236a.3933.3933,0,0,1-.4453.4443Z"/>
      <path class="a" d="M481.8174,230.2764a31.2469,31.2469,0,0,1,6.0459,2.7119,8.6509,8.6509,0,0,1,3.1562,3.0888,8.4778,8.4778,0,0,1,.9336,4.1124,10.056,10.056,0,0,1-1.8222,5.956,12.0436,12.0436,0,0,1-5.0459,4.0234,18.2806,18.2806,0,0,1-7.5342,1.4444,34.8038,34.8038,0,0,1-4.69-.2891,27.369,27.369,0,0,1-3.69-.7334q-1.5777-.4438-2.6445-.8447a.6278.6278,0,0,1-.4-.6221l.4-8.1347a.3926.3926,0,0,1,.4443-.4444l1.7783-.0449a.6.6,0,0,1,.5781.4l.9327,2.623a6.89,6.89,0,0,0,.89,1.711,4.68,4.68,0,0,0,1.3115,1.2226,5.8762,5.8762,0,0,0,1.8887.7334,12.3294,12.3294,0,0,0,2.6231.2442,6.3018,6.3018,0,0,0,3.9335-1.11,3.6124,3.6124,0,0,0,1.4454-3.0234,3.798,3.798,0,0,0-.4893-1.9776,4.544,4.544,0,0,0-1.667-1.5117,21.06,21.06,0,0,0-3.2226-1.4443,37.85,37.85,0,0,1-6.7569-3.1348,9.256,9.256,0,0,1-3.4453-3.4668,10.1,10.1,0,0,1-1-4.6894,8.3954,8.3954,0,0,1,1.8672-5.4014,12.404,12.404,0,0,1,5.1338-3.667,19.6831,19.6831,0,0,1,7.49-1.334,23.3082,23.3082,0,0,1,3.668.2666,20.936,20.936,0,0,1,3,.6895,11.7823,11.7823,0,0,1,2.2676.9551.57.57,0,0,1,.3554.667l-.3554,7.69a.4721.4721,0,0,1-.4893.4443l-1.6006.0889a.6285.6285,0,0,1-.622-.3994l-1.1553-2.7569a10.2814,10.2814,0,0,0-.9785-1.8447,3.4758,3.4758,0,0,0-1.4668-1.2,6.54,6.54,0,0,0-2.6231-.4219,5.1825,5.1825,0,0,0-3.5332,1.1114,3.7636,3.7636,0,0,0-1.2676,2.9785,3.6326,3.6326,0,0,0,.5782,2.0664,5.3953,5.3953,0,0,0,1.9785,1.623A30.7734,30.7734,0,0,0,481.8174,230.2764Z"/>
    </g>
    <line class="b" x1="36.7213" y1="265.3724" x2="494.157" y2="265.3724"/>
    <g>
      <g>
        <g>
          <path class="c" d="M281.8453,105.2817V27.9527H209.4941v77.1246l17.0909.3368C245.0052,105.7772,263.4426,106.1365,281.8453,105.2817Z"/>
          <path class="d" d="M226.585,105.4141l-17.0909-.3368V114.29a10.2337,10.2337,0,0,0,10.2337,10.2337h12.808c7.6643,0,13.1339,7.4869,13.1339,7.4869s5.47-7.4869,13.134-7.4869h12.8079A10.2337,10.2337,0,0,0,281.8453,114.29v-9.0078C263.4426,106.1365,245.0052,105.7772,226.585,105.4141Z"/>
        </g>
        <g>
          <path class="d" d="M243.5576,133.5547c-.0449-.0606-4.8418-6.4151-11.0215-6.4151H219.7275a12.8649,12.8649,0,0,1-12.85-12.85V25.3359h77.5849v88.9532a12.8649,12.8649,0,0,1-12.8506,12.85H258.8037c-6.1885,0-10.9766,6.3545-11.0244,6.419l-2.1143,2.873ZM212.11,114.2891a7.6256,7.6256,0,0,0,7.6171,7.6171h12.8086c5.8985,0,10.543,3.57,13.1338,6.1573,2.5908-2.5869,7.2354-6.1573,13.1338-6.1573h12.8076a7.6257,7.6257,0,0,0,7.6172-7.6171v-83.72H212.11Z"/>
          <path class="e" d="M283.4805,26.3174V114.29a11.8819,11.8819,0,0,1-11.8687,11.8686H258.8035c-6.72,0-11.7647,6.7505-11.8145,6.8189l-1.3223,1.7958-1.3171-1.7983c-.0486-.0659-5.0928-6.8164-11.8137-6.8164H219.7275A11.8819,11.8819,0,0,1,207.8589,114.29V26.3174h75.6216m-63.753,96.57h12.8084c6.1645,0,10.9355,4.2153,13.134,6.5894,2.1988-2.3741,6.9695-6.5894,13.1336-6.5894h12.8083A8.6083,8.6083,0,0,0,280.21,114.29V29.5879H211.1294V114.29a8.6082,8.6082,0,0,0,8.5981,8.5981M285.4426,24.355H205.8967V114.29a13.8465,13.8465,0,0,0,13.8308,13.831h12.8084c5.6648,0,10.1938,5.9644,10.239,6.0249l1.3088,1.7871,1.5789,2.1558,1.5842-2.1519,1.3223-1.7959c.0415-.0556,4.5649-6.02,10.2344-6.02h12.8083a13.8465,13.8465,0,0,0,13.8308-13.831V24.355ZM213.0916,31.55h65.1562V114.29a6.6433,6.6433,0,0,1-6.636,6.6357H258.8035c-5.74,0-10.3255,3.1631-13.1336,5.7759-2.8076-2.6128-7.3933-5.7759-13.134-5.7759H219.7275a6.6433,6.6433,0,0,1-6.6359-6.6357V31.55Z"/>
        </g>
      </g>
      <g>
        <g>
          <path class="d" d="M264.4873,108.5205a13.1455,13.1455,0,0,1-12.82-10.3213,2.762,2.762,0,0,1-1.2471,1.5225,3.133,3.133,0,0,1-1.6572.4883,3.7157,3.7157,0,0,1-2.48-1.09c-.0664-.0752-4.2422-4.8115-6.9873-7.8808A13.1221,13.1221,0,1,1,225.89,82.3154c.0713-.2744.1485-.5459.2334-.8115a10.5676,10.5676,0,0,1,2.167-4.0127,6.3916,6.3916,0,0,1,1.84-1.4082,6.0019,6.0019,0,0,1,2.3613-.626c2.3057-.1425,5.0225-.2148,8.0752-.2148,1.22,0,2.3936.0117,3.4775.0293,2.4239-2.0244,4.51-3.7031,4.51-3.7031l.05-.0411.0576-.03a1.3757,1.3757,0,0,0,.3584-.2852,3.3316,3.3316,0,0,0-1.3554-.5547c-3.3223-.8467-11.2432-.9619-11.3223-.9629a5.3793,5.3793,0,0,1-1.0283-.1015l-3.877,5.2685-.081.0606c-1.1143.8281-6.7871,4.9629-9.0186,4.9629a1.5935,1.5935,0,0,1-.5791-.1006,1.65,1.65,0,0,1-1.1348-1.2061,2.6959,2.6959,0,0,1,.9122-2.1533l6.8056-5.2881,2.7383-8.2666a5.0308,5.0308,0,0,1,.2627-.7842,5.4392,5.4392,0,0,1,2.6787-2.7724l.0274-.0264.1552-.0527a4.9973,4.9973,0,0,1,1.0508-.335,20.5034,20.5034,0,0,1,5.9385-.9082c8.0224,0,13.3379,5.1836,15.6084,7.3965l.3535.3437c2.874,2.7676,3.5019,6.8536,1.4023,9.1084a42.3018,42.3018,0,0,1-4.6728,3.2334,46.5161,46.5161,0,0,1,5.0039,5.459,13.1217,13.1217,0,1,1,5.6,24.9883Zm-6.4287-20.5351c-.1885.1591-.3574.3134-.5147.4707a9.9163,9.9163,0,1,0,3.3428-2.1836,50.9436,50.9436,0,0,1,4.6406,8.4746,1.6514,1.6514,0,0,1-3.0341,1.3047A47.6134,47.6134,0,0,0,258.0586,87.9854ZM225.2529,85.72a9.7873,9.7873,0,1,0,3.3252.0157,37.0486,37.0486,0,0,0-.2988,4.9189c0,1.3691.0586,2.5391.1084,3.2793.0273.4092.0537.7344.0742.956l.0235.251a1.6967,1.6967,0,0,1-.3448,1.291,1.64,1.64,0,0,1-1.1074.6084,1.6441,1.6441,0,0,1-1.8232-1.46c-.001-.0127-.2344-2.128-.2344-4.9258A41.6807,41.6807,0,0,1,225.2529,85.72Zm25.4864-5.6162c-2.5577,1.6475-5.2032,3.3516-6.7881,4.4434a1.0082,1.0082,0,0,0-.1953,1.4853c1.7334,2.044,4.8652,6.1055,6.37,8.0567.3965.5146.67.8691.7578.9785a4.4925,4.4925,0,0,1,.49.7773c-.0049-.1484-.0078-.2968-.0078-.4463a13.0077,13.0077,0,0,1,4.7227-10.083c-.7178-.9033-1.4649-1.7744-2.2266-2.5957a39.2334,39.2334,0,0,0-2.8506-2.791Zm-21.4688,2.4a13.058,13.058,0,0,1,6.6973,3.4649,7.85,7.85,0,0,1,.5468-3.6661c.1055-.2627.3116-.7812,3.6944-3.7568q-4.3067.0088-7.5147.207a2.7663,2.7663,0,0,0-1.083.2823,3.8225,3.8225,0,0,0-1.4961,1.52A9.2406,9.2406,0,0,0,229.2705,82.5039Z"/>
          <path class="e" d="M241.1914,58.6685c8.18,0,13.4065,5.5419,15.4929,7.5512,2.6145,2.5181,3.219,6.1792,1.376,8.1582a62.1806,62.1806,0,0,1-5.2852,3.6065,45.1651,45.1651,0,0,1,5.9178,6.4023,12.4369,12.4369,0,1,1-1.6543,1.0435c-.9273-1.2031-1.8345-2.26-2.679-3.1709a39.2362,39.2362,0,0,0-3.2886-3.1748c-2.802,1.8051-5.767,3.7075-7.5048,4.9048a1.6868,1.6868,0,0,0-.3269,2.4819c2.1916,2.585,6.7019,8.5024,7.1149,9.0185.55.688,1.4993,2.5538-.29,3.6543a2.4524,2.4524,0,0,1-1.3023.3882,3.02,3.02,0,0,1-1.9861-.8774s-7.1557-8.1192-8.9446-10.0454-1.2385-4.6787-.6882-6.0552c.2356-.5884,2.4351-2.5864,4.8743-4.6807q-.7123-.0051-1.4509-.0058c-2.5862,0-5.3755.0527-7.9146.209a3.4151,3.4151,0,0,0-1.344.3525,4.4568,4.4568,0,0,0-1.7754,1.78,11.0887,11.0887,0,0,0-1.1265,2.8457,12.4487,12.4487,0,1,1-1.9812-.0894c.1023-.4267.2139-.8476.3433-1.2568a10.0093,10.0093,0,0,1,2.0217-3.76,5.7163,5.7163,0,0,1,1.6441-1.26,5.3733,5.3733,0,0,1,2.0984-.5562c2.5986-.16,5.4214-.2124,8.0342-.2124,1.3112,0,2.569.0132,3.7185.0332,2.4995-2.0918,4.6928-3.8574,4.6928-3.8574s2.2945-1.2168-1.146-2.0942-11.4817-.9849-11.4817-.9849a4.7569,4.7569,0,0,1-1.3156-.188l-4.0838,5.5493s-6.4936,4.8291-8.6135,4.8291a.9088.9088,0,0,1-.3313-.0537c-1.6514-.6489,0-2.2412,0-2.2412l6.9133-5.3667,2.803-8.4619a4.73,4.73,0,0,1,.2415-.7285v0a4.79,4.79,0,0,1,2.45-2.4756l0-.001.0056-.0019a4.7415,4.7415,0,0,1,.9683-.313,19.9429,19.9429,0,0,1,5.8032-.8945m22.8193,37.705a.9746.9746,0,0,1-.8952-.59,48.1458,48.1458,0,0,0-4.9126-8.7774,10.6082,10.6082,0,0,0-1.1372.9708,10.6163,10.6163,0,1,0,2.8-1.9913,50.1784,50.1784,0,0,1,5.04,9.0284.9751.9751,0,0,1-.8946,1.3593m-37.1591,9.5215a10.4947,10.4947,0,0,0,1.1569-20.9258c-.0065.0415-.0144.0816-.021.1231a36.7408,36.7408,0,0,0-.3859,5.5615c0,1.3291.0549,2.4951.11,3.3252.0276.415.055.7461.0752.9722.01.1133.0188.2.0244.2573l.0066.0644.0022.0191a.9743.9743,0,0,1-.8613,1.0752,1.0006,1.0006,0,0,1-.1074.0058.9744.9744,0,0,1-.9676-.8676c-.0024-.0235-.23-2.0869-.23-4.8516a39.0247,39.0247,0,0,1,.3882-5.71,10.4914,10.4914,0,0,0,.81,20.9516m14.34-48.5815h0a21.3989,21.3989,0,0,0-6.14.9355,6.1665,6.1665,0,0,0-1.0672.3389l-.039.01-.1265.0629a6.12,6.12,0,0,0-3.1,3.1578,5.9875,5.9875,0,0,0-.2986.8847l-2.658,8.0249-6.5876,5.1138-.0574.0444-.0522.05a3.3645,3.3645,0,0,0-1.107,2.773,2.3176,2.3176,0,0,0,1.5518,1.7051,2.2516,2.2516,0,0,0,.8269.1474,10.18,10.18,0,0,0,4.0879-1.564,14.0289,14.0289,0,0,0-.9478,2.2984q-.0592.1867-.1167.3857A13.7958,13.7958,0,1,0,240.54,93.6533c2.48,2.7891,5.1753,5.8477,5.2192,5.8975a4.372,4.372,0,0,0,3.0027,1.3364,3.7981,3.7981,0,0,0,2.0125-.5893,4.0074,4.0074,0,0,0,.6389-.483,13.8009,13.8009,0,1,0,7.6787-17.1162,47.5918,47.5918,0,0,0-4.1177-4.5273,29.7855,29.7855,0,0,0,4.0776-2.8706c2.35-2.5235,1.71-7.0352-1.4279-10.0571l-.3518-.3414c-2.3287-2.271-7.7837-7.5878-16.0811-7.5888Zm-8.86,17.4746,3.2835-4.4619a6.0086,6.0086,0,0,0,.7353.0454c.0608.001,7.9026.1152,11.1468.9429.0783.02.1513.04.2192.059-.7019.5684-2.2185,1.8033-3.9131,3.2163-1.0161-.0151-2.1067-.0249-3.2365-.0249-3.065,0-5.7959.0723-8.1172.2149-.04.0024-.0787.0054-.118.0083Zm-2.1665,7.2158a7.417,7.417,0,0,1,.53-1.0977A3.18,3.18,0,0,1,231.916,79.64a2.07,2.07,0,0,1,.8211-.2109c1.6738-.103,3.58-.168,5.6872-.1938-2.229,2.0415-2.4094,2.4917-2.5388,2.8149a8.9316,8.9316,0,0,0-.5935,2.4365,13.7127,13.7127,0,0,0-5.127-2.4829Zm20.6114,11.8189q-.06-.0777-.1243-.1612c-1.5061-1.9526-4.64-6.0156-6.3794-8.0669a.3285.3285,0,0,1-.0776-.2617.3226.3226,0,0,1,.14-.228c1.543-1.063,4.1069-2.7158,6.6091-4.3272.8113.7354,1.6228,1.5406,2.4214,2.4024.6082.6557,1.2066,1.3432,1.7871,2.0537a13.6394,13.6394,0,0,0-4.3764,8.5889Zm11.1591-7.1978a9.1319,9.1319,0,1,1-3.997,2.397,46.939,46.939,0,0,1,3.9321,7.2968,2.3291,2.3291,0,0,0,4.2795-1.84,51.7679,51.7679,0,0,0-4.2146-7.854ZM226.8511,97.728a2.3866,2.3866,0,0,0,.2549-.0136,2.3329,2.3329,0,0,0,2.0607-2.5708l-.0078-.0728-.0229-.2417c-.0193-.2178-.0459-.5381-.0725-.94-.0489-.7364-.107-1.896-.107-3.2354a38.14,38.14,0,0,1,.2041-4.0976,9.1787,9.1787,0,1,1-4.6811.0219c-.1187,1.2676-.1792,2.6314-.1807,4.0742,0,2.7159.2129,4.77.2373,4.9956a2.3272,2.3272,0,0,0,2.315,2.08Z"/>
        </g>
        <polygon class="d" points="223.264 81.672 223.264 81.672 223.264 81.672 223.264 81.672"/>
        <path class="d" d="M234.097,56.9428q-.207.0021-.4023.006a4.7753,4.7753,0,0,1-9.5506-.0009s-1.3353-3.4307,3.2608-4.526a4.7608,4.7608,0,0,1,1.5145-.2493c4.6046-.4635,5.7483,2.2236,6.0281,3.7592A.8651.8651,0,0,1,234.097,56.9428Z"/>
        <path class="d" d="M267.356,94.4248c.9585,1.4376-.0066,3.5088-1.5232,4.18-1.47.7664-3.6862.2328-4.22-1.4082a5.1214,5.1214,0,0,0,3.3737-.3458A5.194,5.194,0,0,0,267.356,94.4248Z"/>
        <path class="d" d="M227.7069,96.85a5.1944,5.1944,0,0,0,2.3692-2.4256c.9585,1.4376-.0067,3.5088-1.5233,4.18-1.47.7664-3.6862.2328-4.2195-1.4082A5.1211,5.1211,0,0,0,227.7069,96.85Z"/>
        <path class="d" d="M220.1788,76.3133a2.02,2.02,0,0,0-1.1366-.3748,1.6914,1.6914,0,0,0-1.2059.5049,1.8365,1.8365,0,0,0-.5213,1.3149,2.5967,2.5967,0,0,0,.2032.9747,1.5944,1.5944,0,0,0,.4141.5958,2.5714,2.5714,0,0,0,1.1.5413,6.145,6.145,0,0,0,1.5.166,10.65,10.65,0,0,0,1.6042-.13c.21-.0327.3809-.0653.4963-.0891.0578-.012.1017-.0217.13-.028l.03-.007.0057-.0014v0a.9739.9739,0,0,1,.4653,1.8914,12.5994,12.5994,0,0,1-2.7315.3124,7.2342,7.2342,0,0,1-2.6557-.4449,4.1377,4.1377,0,0,1-1.2526-.7671,3.55,3.55,0,0,1-.9114-1.3075,4.5364,4.5364,0,0,1-.3456-1.7062,3.7882,3.7882,0,0,1,1.0856-2.6862,3.6411,3.6411,0,0,1,2.5893-1.0815,3.9709,3.9709,0,0,1,2.2266.7083.974.974,0,0,1-1.09,1.6144Z"/>
      </g>
      <g>
        <g>
          <g>
            <path class="c" d="M291.21,77.6894c12.2727-.318,24.6312,2.4527,36.7677.8472V3.5977H255.6267V77.74C266.9518,81.1693,279.2829,77.9985,291.21,77.6894Z"/>
            <path class="d" d="M291.21,77.6894c-11.9273.3091-24.2584,3.48-35.5835.05V89.9345A10.2337,10.2337,0,0,0,265.86,100.1682h12.8079c7.6643,0,13.134,7.4868,13.134,7.4868s5.47-7.4868,13.134-7.4868h12.8079a10.2337,10.2337,0,0,0,10.2337-10.2337V78.5366C315.8414,80.1421,303.4829,77.3714,291.21,77.6894Z"/>
          </g>
          <g>
            <path class="d" d="M289.69,109.1992c-.042-.0576-4.8574-6.414-11.0224-6.414H265.86A12.865,12.865,0,0,1,253.01,89.9346V.9814h77.5849V89.9346a12.865,12.865,0,0,1-12.8506,12.8506H304.9355c-6.17,0-10.9794,6.3584-11.0273,6.4218l-2.11,2.8692ZM258.2432,89.9346a7.6257,7.6257,0,0,0,7.6172,7.6172H278.668c5.8965,0,10.5429,3.57,13.1347,6.1562,2.5909-2.5859,7.2364-6.1562,13.1328-6.1562h12.8086a7.6257,7.6257,0,0,0,7.6172-7.6172V6.2148H258.2432Z"/>
            <path class="e" d="M329.613,1.9624V89.9346a11.8818,11.8818,0,0,1-11.8686,11.8686H304.936c-6.72,0-11.7646,6.7505-11.8144,6.8189l-1.3223,1.7959-1.3171-1.7984c-.0486-.0659-5.0928-6.8164-11.8137-6.8164H265.86a11.8818,11.8818,0,0,1-11.8686-11.8686V1.9624H329.613M265.86,98.5327h12.8084c6.1645,0,10.9355,4.2153,13.134,6.5894,2.1987-2.3741,6.9695-6.5894,13.1335-6.5894h12.8084a8.6082,8.6082,0,0,0,8.5981-8.5981V5.2329h-69.08V89.9346a8.6082,8.6082,0,0,0,8.5981,8.5981M331.5752,0H252.0293V89.9346a13.8465,13.8465,0,0,0,13.8308,13.831h12.8084c5.6648,0,10.1938,5.9644,10.239,6.0249l1.3088,1.7871,1.5789,2.1558,1.5842-2.1519,1.3223-1.7959c.0415-.0556,4.5649-6.02,10.2343-6.02h12.8084a13.8465,13.8465,0,0,0,13.8308-13.831V0ZM259.2241,7.1953H324.38V89.9346a6.6433,6.6433,0,0,1-6.636,6.6357H304.936c-5.74,0-10.3254,3.1631-13.1335,5.7754-2.8076-2.6123-7.3933-5.7754-13.134-5.7754H265.86a6.6433,6.6433,0,0,1-6.636-6.6357V7.1953Z"/>
          </g>
        </g>
        <g>
          <circle class="d" cx="297.3833" cy="21.7611" r="5.1893"/>
          <circle class="d" cx="293.2756" cy="32.4866" r="5.2702"/>
          <circle class="d" cx="290.231" cy="53.4595" r="5.1893"/>
          <g>
            <path class="d" d="M316.1816,83.5566c-2.85.001-4.1123-4.7353-6.8779-15.1132q-.454-1.7065-.9639-3.6055c-1.6162-.6318-8.9921-3.5352-14.19-5.9229-.7168,3.1944-2.8691,11.8067-5.5039,13.1123-4.8252,2.3887-20.1855,9.1875-20.34,9.2559a9.3042,9.3042,0,0,1-3.4209.8516,2.6156,2.6156,0,0,1-2.7188-1.6582c-1.1562-3.02,1.9043-4.73,5.1445-6.54l.7823-.4385c3.4863-1.97,12.2959-6.8232,13.9619-7.7412.4932-2.3984,3.7158-18.3711,4.2021-27.6923-1.5166.8271-4.3935,2.375-6.7734,3.5283,1.083,6.372,2.3594,16.5351-.3779,17.1211a1.2842,1.2842,0,0,1-.28.03c-2.7393.001-4.6084-9.0312-4.624-9.122-.1319-.7442-.2686-1.4883-.4043-2.2227-.8584-4.6533-1.5987-8.6719-.666-10.7451C274.14,34.41,285.84,26.6729,292.1055,26.67h.1025l5.2637,1.64,10.3662,7.9853c1.9-1.3154,8.7939-5.9316,11.92-5.9316a1.7844,1.7844,0,0,1,1.7578.9336,2.6151,2.6151,0,0,1-.4853,2.5351c-2.4239,3.9229-11.69,10.7637-14.5821,10.7647h-.0009a1.7976,1.7976,0,0,1-.4952-.0645c-1.7714-.5107-5.4189-3.3164-7.2207-4.7627l-.82,9.5127c3.3955,1.5508,15.3819,7.1524,16.36,9.3994,1.5683,3.6016,5.4,20.1836,3.5644,23.86a1.6453,1.6453,0,0,1-1.0839.9463A2.4588,2.4588,0,0,1,316.1816,83.5566Z"/>
            <path class="e" d="M292.1055,27.3481l5.0493,1.5713,10.6633,8.2154s8.6184-6.0943,11.94-6.0943A1.1651,1.1651,0,0,1,320.91,31.6c1.2724,2.5459-11.25,12.32-14.4617,12.32a1.1263,1.1263,0,0,1-.3086-.0385c-2.1982-.6329-7.9722-5.4468-7.9722-5.4468l-.9721,11.2671s15.48,7.0122,16.4553,9.2514c1.8069,4.15,5.9636,23.1558,2.9443,23.876a1.781,1.781,0,0,1-.4135.0508c-2.63,0-4.0052-6.4375-7.2771-18.5483,0,0-9.3731-3.6329-15.2371-6.3868,0,0-2.5491,12.1021-5.3225,13.4756-4.8682,2.41-20.3133,9.2442-20.3133,9.2442a8.6981,8.6981,0,0,1-3.1462.7929,2.0107,2.0107,0,0,1-2.0864-1.2231c-1.0249-2.6763,2.1782-4.1973,5.6272-6.146,3.8811-2.1929,14.23-7.8877,14.23-7.8877s4.0583-19.3779,4.3261-29.3081c0,0-4.7976,2.6684-8.2524,4.3115,0,0,2.8274,16.2925.2344,16.8482a.67.67,0,0,1-.1385.0146c-1.7453,0-3.6543-6.8467-3.9577-8.5625-.919-5.1958-2.1065-10.3755-1.1189-12.5713.9038-2.01,12.4118-9.5825,18.3567-9.5845m.2058-1.3549h-.2063c-6.293.0019-18.375,7.6777-19.5921,10.3838-1.0195,2.267-.26,6.3837.6182,11.15.1348.7315.2712,1.4717.4023,2.2124.0171.0972,1.8663,9.6817,5.292,9.6817a2.0528,2.0528,0,0,0,.4222-.0444c2.0127-.4317,2.5512-3.2583,1.9206-10.0826-.2729-2.955-.7021-5.8374-.9372-7.3125,1.8132-.8921,3.81-1.9487,5.2736-2.7382-.6494,9.0322-3.4255,23.0034-4.05,26.0712-2.1926,1.2076-10.3654,5.712-13.695,7.5933l-.7776.436c-3.1941,1.7842-6.8147,3.8067-5.4485,7.3741a3.2811,3.2811,0,0,0,3.3518,2.0937,9.8572,9.8572,0,0,0,3.7293-.9248c.5969-.2637,15.4926-6.8574,20.3315-9.2529,2.6758-1.3252,4.7463-8.7769,5.679-12.7583,4.85,2.1875,11.146,4.6821,13.1491,5.4682q.4626,1.7182.8767,3.2784c2.8567,10.7192,4.1607,15.6118,7.5306,15.6118a3.1431,3.1431,0,0,0,.728-.0879,2.2979,2.2979,0,0,0,1.5332-1.3023c2.0854-4.1777-2.1118-21.1308-3.55-24.4326-.9807-2.2524-10.239-6.789-16.2656-9.5473l.6714-7.7808c1.9912,1.5518,4.8662,3.6392,6.466,4.1a2.4736,2.4736,0,0,0,.6834.0913c3.4231,0,12.7383-7.1694,15.158-11.084.289-.4677,1.1687-1.8906.5158-3.1967a2.4459,2.4459,0,0,0-2.364-1.3082c-3.1274,0-9.3852,4.0523-11.8982,5.7706l-9.8779-7.61-.1924-.1484-.2319-.0723-5.0493-1.5713-.1968-.061Z"/>
          </g>
        </g>
      </g>
    </g>
  </g>
</svg>
