<?xml version="1.0" encoding="UTF-8"?>
<svg xmlns="http://www.w3.org/2000/svg" viewBox="0 0 709.1123 127.0264">
  <defs>
    <style>
      .d {
        fill: #1c1f75;
      }

      .e {
        fill: #ce9500;
      }
    </style>
  </defs>
  <g id="a" data-name="Capa 1"/>
  <g id="b" data-name="Capa 2">
    <g id="c" data-name="shopNow">
      <path class="e" d="M707.9731,1.1389V125.8875H1.1392V1.1389H707.9731m1.1392-1.1389H0V127.0264H709.1123V0h0Z"/>
      <g>
        <g>
          <path class="d" d="M275.4121,48.6379c0-.2695,.1348-.4043,.4043-.4043h15.9229c.2695,0,.4043,.1348,.4043,.4043v1.1309c0,.2432-.1211,.418-.3633,.5254l-2.627,.9707c-.3779,.1348-.6406,.2891-.7881,.4639-.1484,.1758-.2227,.5596-.2227,1.1523v3.4756h-8.8096v-3.6377c0-.4307-.0605-.7471-.1826-.9492-.1211-.2021-.4512-.3975-.9893-.5859l-2.3848-.8896c-.2422-.1074-.3643-.2822-.3643-.5254v-1.1309Zm.4043,30.0674c-.2695,0-.4043-.1348-.4043-.4043v-1.1318c0-.2422,.1221-.417,.3643-.5254l2.3848-.8887c.5381-.2158,.8682-.417,.9893-.6064,.1221-.1875,.1826-.498,.1826-.9297v-3.6367h8.8096v3.4756c0,.5928,.0742,.9766,.2227,1.1514,.1475,.1758,.4102,.3301,.7881,.4648l2.627,.9697c.2422,.1084,.3633,.2832,.3633,.5254v1.1318c0,.2695-.1348,.4043-.4043,.4043h-15.9229Zm3.5166,0v-30.4717h8.8096v30.4717h-8.8096Z"/>
          <path class="d" d="M298.8115,66.2581v-6.2236l.8086,2.2227-2.8291-.7676c-.2695-.0811-.4043-.2559-.4043-.5254v-1.2129c0-.2686,.1348-.4307,.4043-.4854l8.5273-1.333c.4844-.0811,.8281-.0605,1.0303,.0605s.3027,.3838,.3027,.7881v4.8496l.4854,.6064v2.0205h-8.3252Zm-1.4551,12.4473c-.2695,0-.4043-.1348-.4043-.4043v-1.0098c0-.2695,.1211-.458,.3643-.5664l.3633-.1611c.5391-.2695,.8623-.4785,.9697-.627,.1074-.1475,.1621-.4775,.1621-.9902v-3.5156h8.3252v3.3545c0,.5928,.0469,.9639,.1416,1.1113,.0938,.1484,.3838,.3164,.8682,.5049l.9707,.3643c.2422,.1074,.3633,.2822,.3633,.5254v1.0098c0,.2695-.1348,.4043-.4043,.4043h-11.7197Zm1.4551,0v-12.4473h8.3252v12.4473h-8.3252Zm14.1846-12.1641c0-.8086-.2627-1.4355-.7871-1.8799-.5254-.4443-1.2598-.667-2.2031-.667-.4854,0-1.0098,.0879-1.5762,.2627-.5654,.1758-1.1582,.4111-1.7783,.708l-.7676-1.0918c.5117-1.1846,1.2188-2.2285,2.1221-3.1318,.9023-.9023,1.9531-1.6094,3.1523-2.1221,1.1982-.5107,2.4707-.7676,3.8184-.7676,2.3174,0,3.9541,.5859,4.9102,1.7578s1.4355,3.0791,1.4355,5.7188v13.377h-8.3262v-12.1641Zm-1.4541,12.1641c-.2695,0-.4043-.1348-.4043-.4043v-1.0098c0-.2695,.1211-.458,.3633-.5664l.3643-.1611c.5381-.2695,.8613-.4785,.9697-.627,.1074-.1475,.1611-.4775,.1611-.9902v-3.5156h8.3262v3.3545c0,.5928,.0459,.9639,.1406,1.1113,.0947,.1484,.3838,.3164,.8691,.5049l.9697,.3643c.2432,.1074,.3643,.2822,.3643,.5254v1.0098c0,.2695-.1357,.4043-.4043,.4043h-11.7197Z"/>
          <path class="d" d="M356.5215,59.9534c2.3174,.8086,4.1494,1.6309,5.4971,2.4648,1.3467,.8359,2.3027,1.7725,2.8691,2.8096,.5654,1.0371,.8486,2.2832,.8486,3.7383,0,2.0479-.5527,3.8525-1.6572,5.415s-2.6338,2.7822-4.5869,3.6572c-1.9541,.875-4.2373,1.3135-6.8496,1.3135-1.5635,0-2.9844-.0879-4.2637-.2627-1.2803-.1758-2.3984-.3975-3.3545-.667-.957-.2686-1.7578-.5254-2.4053-.7676-.2422-.1074-.3633-.2959-.3633-.5654l.3633-7.3965c0-.2686,.1348-.4033,.4043-.4033l1.6172-.041c.2422,0,.417,.1211,.5254,.3643l.8486,2.3838c.2148,.5928,.4844,1.1113,.8076,1.5566,.3232,.4443,.7207,.8145,1.1924,1.1113s1.0439,.5186,1.7178,.666c.6729,.1484,1.4678,.2227,2.3848,.2227,1.5078,0,2.7002-.3369,3.5762-1.0107,.875-.6729,1.3135-1.5889,1.3135-2.748,0-.7002-.1484-1.2988-.4443-1.7979-.2969-.498-.8018-.9561-1.5156-1.374s-1.6914-.8555-2.9297-1.3135c-2.6143-.9697-4.6621-1.9199-6.1436-2.8496s-2.5254-1.9805-3.1318-3.1523-.9092-2.5928-.9092-4.2637c0-1.8584,.5654-3.4951,1.6973-4.9102,1.1318-1.4141,2.6875-2.5254,4.668-3.334s4.25-1.2119,6.8096-1.2119c1.2129,0,2.3242,.0801,3.334,.2422,1.0107,.1611,1.9199,.3701,2.7285,.626,.8076,.2568,1.4951,.5459,2.0605,.8691,.2695,.1348,.377,.3369,.3232,.6064l-.3232,6.9912c-.0537,.2695-.2021,.4043-.4443,.4043l-1.4551,.0811c-.2695,0-.458-.1211-.5654-.3643l-1.0508-2.5049c-.2695-.6475-.5664-1.2061-.8896-1.6777-.3232-.4707-.7676-.835-1.333-1.0908-.5664-.2559-1.3613-.3838-2.3848-.3838-1.374,0-2.4453,.3369-3.2129,1.0098-.7676,.6738-1.1514,1.5762-1.1514,2.708,0,.7275,.1748,1.3535,.5254,1.8789,.3496,.5254,.9492,1.0176,1.7979,1.4756s2.001,.9561,3.4551,1.4951Z"/>
          <path class="d" d="M370.5049,61.7317c-.2695,0-.377-.1348-.3232-.4043l.4443-2.0205c.0537-.2695,.2158-.4307,.4854-.4854l1.8594-.3232h9.9414l3.3135-.2422c.2695-.0537,.4043,.0674,.4043,.3633,.0264,.4316,.0264,.876,0,1.334-.0273,.458-.0947,.916-.2021,1.374-.0801,.2695-.2559,.4043-.5254,.4043h-15.3975Zm8.4062,17.6201c-2.2627,0-3.8799-.5791-4.8496-1.7373s-1.4551-3.085-1.4551-5.7793v-11.2754l.3643-2.0615v-4.082c0-.2686,.1338-.4443,.4033-.5254,.5664-.1611,1.2998-.3154,2.2031-.4639,.9023-.1484,1.8047-.2764,2.708-.3848,.9023-.1074,1.6494-.1475,2.2422-.1211,.2695,.0547,.4043,.2021,.4043,.4443v18.2676c0,1.0244,.2422,1.7373,.7275,2.1416s1.3467,.6064,2.5869,.6064c.2148,0,.4775-.0137,.7881-.04,.3086-.0273,.6396-.0674,.9902-.1221,.2422-.0537,.3896,.0547,.4443,.3232l.1211,1.5762c.0537,.2432-.0273,.4717-.2422,.6875-.4854,.4316-1.1523,.8428-2.001,1.2324-.8486,.3906-1.752,.707-2.708,.9502-.9561,.2422-1.8652,.3633-2.7275,.3633Z"/>
          <path class="d" d="M402.5127,79.3518c-2.3447,0-4.4121-.458-6.2041-1.374s-3.1924-2.1826-4.2031-3.7988c-1.0098-1.6162-1.5146-3.4893-1.5146-5.6172,0-2.1016,.5049-3.9541,1.5146-5.5576,1.0107-1.6025,2.4111-2.8623,4.2031-3.7783,1.792-.915,3.8594-1.374,6.2041-1.374,2.3701,0,4.458,.4512,6.2637,1.3535,1.8047,.9033,3.2129,2.1562,4.2236,3.7588,1.0098,1.6035,1.5156,3.4697,1.5156,5.5977s-.5059,4.0078-1.5156,5.6377c-1.0107,1.6299-2.4121,2.8965-4.2031,3.7988-1.792,.9023-3.8867,1.3535-6.2842,1.3535Zm.1611-4.4453c1.0234,0,1.8389-.4707,2.4453-1.4141s.9092-2.4658,.9092-4.5674c0-1.5352-.1553-2.7881-.4648-3.7588-.3096-.9697-.7412-1.6904-1.293-2.1621-.5527-.4707-1.1787-.707-1.8789-.707-1.0244,0-1.833,.4717-2.4248,1.415-.5938,.9434-.8896,2.5049-.8896,4.6875,0,2.21,.3438,3.8467,1.0303,4.9102,.6875,1.0645,1.542,1.5967,2.5664,1.5967Z"/>
          <path class="d" d="M430.2764,79.3518c-2.1289,0-4.0146-.458-5.6582-1.374s-2.9297-2.1826-3.8594-3.7988-1.3936-3.4893-1.3936-5.6172c0-2.1016,.498-3.9541,1.4951-5.5576,.9961-1.6025,2.3838-2.8623,4.1621-3.7783,1.7783-.915,3.8398-1.374,6.1836-1.374,1.1045,0,2.249,.1152,3.4355,.3438,1.1846,.2295,2.3701,.5723,3.5557,1.0303,.2432,.1621,.3496,.3506,.3232,.5654l-.8076,6.9512c-.0547,.2705-.2021,.4043-.4453,.4043h-1.9795c-.2432,0-.418-.1211-.5254-.3633l-1.8994-5.2539,2.3438,1.1719c-.3779-.0537-.8154-.1006-1.3135-.1416-.499-.04-1.0176-.0605-1.5557-.0605-1.5361,0-2.6543,.4248-3.3545,1.2734-.7012,.8486-1.0508,2.2021-1.0508,4.0615,0,1.4551,.1885,2.6738,.5654,3.6572s.9434,1.7246,1.6973,2.2227c.7539,.499,1.6836,.748,2.7891,.748,.8076,0,1.5557-.0879,2.2432-.2627,.6865-.1748,1.3672-.4785,2.04-.9092,.2158-.1348,.3906-.0811,.5254,.1611l.7686,1.5361c.1338,.2158,.1211,.4443-.041,.6865-1.0508,1.1865-2.2832,2.0957-3.6973,2.7285-1.415,.6328-2.9307,.9492-4.5469,.9492Z"/>
          <path class="d" d="M445.4307,55.9524v-6.2236l.8086,2.2227-2.8291-.7676c-.2695-.0811-.4043-.2559-.4043-.5254v-1.2129c0-.2959,.1348-.4443,.4043-.4443l9.0127-1.374c.4844-.0811,.8281-.0605,1.0303,.0605s.3027,.3838,.3027,.7881v7.4766h-8.3252Zm-1.4541,22.7529c-.2695,0-.4043-.1348-.4043-.4043v-1.0098c0-.2695,.1211-.458,.3633-.5664l.3643-.1611c.5381-.2695,.8613-.4785,.9697-.627,.1074-.1475,.1611-.4775,.1611-.9902v-3.5156h8.3252v3.3545c0,.5928,.0469,.9639,.1416,1.1113,.0947,.1484,.3838,.3164,.8691,.5049l.9697,.3643c.2432,.1074,.3643,.2822,.3643,.5254v1.0098c0,.2695-.1357,.4043-.4043,.4043h-11.7197Zm1.4541,0v-22.793h8.3252v22.793h-8.3252Zm7.5176-7.3955l-1.2129-3.3545,6.0215-5.5771c.6201-.5654,.8691-.9834,.748-1.2529-.1211-.2686-.4785-.458-1.0713-.5654l-.5654-.1621c-.2695-.0537-.4043-.2148-.4043-.4844v-1.0107c0-.2686,.1348-.4043,.4043-.4043h10.6289c.2686,0,.4043,.1357,.4043,.4043v1.0107c0,.2695-.1357,.4443-.4043,.5254l-.9697,.2822c-.5664,.1621-1.0381,.3438-1.415,.5459s-.7275,.4385-1.0508,.707l-11.1133,9.3359Zm7.9609,7.3955c-.2695,0-.4844-.1074-.6465-.3232l-6.2637-8.7295,5.0107-4.7686,7.5576,9.9414c.3496,.459,.6934,.8154,1.0303,1.0713s.6934,.4785,1.0713,.667l.2832,.1611c.2422,.1084,.3633,.2969,.3633,.5664v1.0098c0,.2695-.1348,.4043-.4043,.4043h-8.002Z"/>
          <path class="d" d="M274.5234,83.7561v-2.0195h196.9346v2.0195h-196.9346Z"/>
        </g>
        <path class="d" d="M223.1724,63.9221c5.3385,4.6904,10.0851,10.0536,14.0921,15.9224,5.0478-10.7582,13.2095-20.6446,21.924-28.724-2.4984-.3782-5.4767-2.167-7.2783-3.9388-5.2227,5.3723-11.0562,12.1137-14.6734,18.6752-2.6201-2.4957-5.4484-5.4398-8.0686-7.9355-2.2268,2.1449-3.7691,3.8558-5.9959,6.0006Z"/>
      </g>
    </g>
  </g>
</svg>