<svg xmlns="http://www.w3.org/2000/svg" viewBox="0 0 531.6534 156.8105">
  <defs>
    <style>
      .a {
        fill: #1c1f75;
      }

      .b {
        fill: #fff;
      }

      .c {
        fill: #2e3192;
      }
    </style>
  </defs>
  <g>
    <g>
      <path class="a" d="M93.7363,15.6975A10.2849,10.2849,0,0,1,104.0456,25.99l-.0518,96.9673c0,9.6277,2.872,12.5,6.4149,12.5h0l-8.5981,6.0293a10.1467,10.1467,0,0,1-5.8645,1.88,10.2848,10.2848,0,0,1-10.3092-10.2925l.0518-96.9673c0-9.6279-2.8721-12.5-6.4149-12.5l8.5981-6.0293a10.1486,10.1486,0,0,1,5.8644-1.88m16.6724,119.76h.005M93.7367,2.2537h0A23.56,23.56,0,0,0,80.1532,6.57L71.5551,12.6a13.4441,13.4441,0,0,0,.6723,22.4568c.011.3169.0174.6663.0174,1.0505l-.0518,96.96a23.6993,23.6993,0,0,0,37.3363,19.4268l8.419-5.9038a13.4474,13.4474,0,0,0-.4934-22.5872c-.0108-.3154-.0173-.6633-.0173-1.0454l.0518-96.96A23.773,23.773,0,0,0,93.7367,2.2537Z"/>
      <path class="a" d="M27.9074,15.6975A10.2849,10.2849,0,0,1,38.2166,25.99l5.5492-3.8955A16.9647,16.9647,0,0,1,63.2389,22.08h0a19.5333,19.5333,0,0,1,8.3349,16.0046v7.1641A24.2745,24.2745,0,0,1,56.1992,67.8325l3.8474,1.69a26.124,26.124,0,0,1,15.62,23.92l0,5.9841a34.47,34.47,0,0,1-14.8885,28.3675L38.2167,143.3667,19.86,130.5129V36.1069c0-9.6279-2.8721-12.5-6.415-12.5l8.5982-6.0293a10.1462,10.1462,0,0,1,5.8644-1.88m0-13.4438A23.5569,23.5569,0,0,0,14.3243,6.57L5.7262,12.6a13.4441,13.4441,0,0,0,.6723,22.4568c.011.3169.0174.6663.0174,1.0505v94.406a13.444,13.444,0,0,0,5.7327,11.0125l18.357,12.8538a13.444,13.444,0,0,0,15.3482.0515l22.5611-15.5733A47.9139,47.9139,0,0,0,89.11,99.4263l0-5.9842a39.5666,39.5666,0,0,0-10.5931-26.946,37.6491,37.6491,0,0,0,6.5005-21.2478V38.0842a33.0033,33.0033,0,0,0-14.0713-27.02A30.4474,30.4474,0,0,0,42.8018,7.5127a23.65,23.65,0,0,0-14.8944-5.259Z"/>
      <path class="a" d="M501.5362,15.6975A10.2849,10.2849,0,0,1,511.8454,25.99l-.0518,96.9673c0,9.6277,2.8721,12.5,6.4149,12.5l-8.5981,6.0293a10.1469,10.1469,0,0,1-5.8645,1.88,10.2848,10.2848,0,0,1-10.3092-10.2925l.0517-96.9673c0-9.6279-2.872-12.5-6.4148-12.5h0l8.5982-6.0293a10.1484,10.1484,0,0,1,5.8645-1.88m0-13.4438h0A23.56,23.56,0,0,0,487.953,6.57L479.3549,12.6a13.444,13.444,0,0,0,.6722,22.4568c.011.3169.0175.6663.0175,1.0505l-.0518,96.96a23.6992,23.6992,0,0,0,37.3362,19.4268l8.5981-6.0293a13.4441,13.4441,0,0,0-.6722-22.4568c-.011-.3166-.0175-.6662-.0175-1.05l.0518-96.96A23.773,23.773,0,0,0,501.5365,2.2537Z"/>
      <path class="a" d="M349.4027,15.6975A10.2858,10.2858,0,0,1,359.7119,25.99V37.3435H365.85v.0518h4.3531c9.6277,0,12.5-2.8719,12.5-6.4148l6.0292,8.5981A10.2745,10.2745,0,0,1,380.32,55.7522l-20.6082-.0269v56.7019H359.66v10.53c0,9.6277,2.872,12.5,6.4149,12.5l-8.5982,6.0293a10.145,10.145,0,0,1-5.8645,1.88,10.2854,10.2854,0,0,1-10.3091-10.2925l0-20.9953h.0519V55.7012l-.4724-.0008c-9.6277,0-12.5,2.8721-12.5,6.4151l-6.0293-8.5982a10.2747,10.2747,0,0,1,8.4124-16.1738H341.355V36.1067c0-9.6277-2.8721-12.5-6.4149-12.5l8.5981-6.0293a10.1438,10.1438,0,0,1,5.8645-1.88m-.0012-13.4438A23.5549,23.5549,0,0,0,335.82,6.57L327.2215,12.6A13.4449,13.4449,0,0,0,321.66,25.7048a23.7368,23.7368,0,0,0-10.314,35.5313l6.0294,8.5981a13.4457,13.4457,0,0,0,10.5356,5.7178v35.3464q-.0517.5868-.0519,1.1805l0,20.9953a23.6992,23.6992,0,0,0,37.3362,19.42l8.598-6.0293a13.4441,13.4441,0,0,0-.6722-22.4568c-.011-.3166-.0175-.6662-.0175-1.05v-9.341q.0514-.5874.0519-1.1893v-43.24l7.1467.0092A23.7183,23.7183,0,0,0,399.74,31.86l-6.0291-8.5979a13.4441,13.4441,0,0,0-20.91-1.3743,23.7913,23.7913,0,0,0-23.3966-19.634h-.0026Z"/>
      <path class="a" d="M177.2478,65.8523v46.574h-.0518v10.5305c0,9.6277,2.8721,12.5,6.4149,12.5l-8.5981,6.0293a10.1446,10.1446,0,0,1-5.8645,1.88,10.2855,10.2855,0,0,1-10.3092-10.2925v-.021L148.8457,139.9a17.0659,17.0659,0,0,1-9.7117,3.0545,17.2958,17.2958,0,0,1-17.3309-17.3257l.0154-39.2021c0-9.628-2.872-12.5-6.4149-12.5h0l8.5982-6.0293a10.1427,10.1427,0,0,1,5.8644-1.88A10.2858,10.2858,0,0,1,140.1754,76.31v53.396a3.5752,3.5752,0,0,0,3.5823,3.5773,3.5278,3.5278,0,0,0,1.9958-.623l13.0856-8.9426v-11.64l-.1915-28.8452a7.1411,7.1411,0,0,1,2.9-5.7928l15.7-11.5876m.0015-13.4439a13.4362,13.4362,0,0,0-7.9849,2.6272l-15.7,11.5877q-.7845.579-1.5046,1.2251a23.7949,23.7949,0,0,0-22.1921-15.2749h-.0023A23.5557,23.5557,0,0,0,116.2832,56.89l-8.5982,6.0293a13.444,13.444,0,0,0,.6722,22.4568c.011.3167.0175.6663.0175,1.0506l-.0154,39.1967a30.4186,30.4186,0,0,0,8.9148,21.6863,31.1245,31.1245,0,0,0,21.86,9.0886,30.4323,30.4323,0,0,0,15.7158-4.3838,23.6249,23.6249,0,0,0,27.8816.4786l8.5981-6.0293a13.444,13.444,0,0,0-.6722-22.4568c-.011-.3167-.0174-.6663-.0174-1.05v-9.3421q.0514-.5877.0518-1.1884V65.8523a13.4437,13.4437,0,0,0-13.4424-13.4439Z"/>
      <path class="a" d="M225.5788,64.4741A17.2962,17.2962,0,0,1,242.91,81.8l-.0058,9.1414a2.9866,2.9866,0,0,1-1.2481,2.4263l-14.9805,10.7231.0092.0427-15.7988,10.9056V124.06a5.9807,5.9807,0,0,0,5.9953,5.9854,5.9,5.9,0,0,0,3.417-1.0982l21.4707-15.1v9.6323l-16.3457,11.449-5.867,4.02a17.0656,17.0656,0,0,1-9.7117,3.0545,17.2959,17.2959,0,0,1-17.331-17.3257l.0155-23.2571a34.0767,34.0767,0,0,1,15.297-28.435L210,71.5488l5.8671-4.02a17.0653,17.0653,0,0,1,9.7116-3.0545m-14.693,40.5637,13.7491-9.6586-.0974-8.1065a8.65,8.65,0,0,0-8.6723-8.6572,8.5311,8.5311,0,0,0-4.9794,1.6155h0v24.8068M225.5788,51.03a30.5242,30.5242,0,0,0-17.3107,5.4082l-5.7722,3.9553-2.0793,1.3733A47.4,47.4,0,0,0,179.085,101.42L179.07,124.668a30.4213,30.4213,0,0,0,8.9149,21.69,31.1246,31.1246,0,0,0,21.86,9.0886,30.5239,30.5239,0,0,0,17.3106-5.4082l5.8674-4.02q.0568-.0393.1134-.0786l16.3458-11.449a13.4443,13.4443,0,0,0,5.7311-11.0115v-9.6323a13.4453,13.4453,0,0,0-4.7815-10.2818A16.47,16.47,0,0,0,256.3478,90.95l.0059-9.1414a30.4208,30.4208,0,0,0-8.9151-21.6895,31.1237,31.1237,0,0,0-21.86-9.0888Z"/>
      <path class="a" d="M408.03,64.4741A17.2962,17.2962,0,0,1,425.3606,81.8l-.006,9.1414a2.9861,2.9861,0,0,1-1.2479,2.4263l-14.9806,10.7231.0093.0427-15.7988,10.9056V124.06a5.9807,5.9807,0,0,0,5.9953,5.9854,5.9,5.9,0,0,0,3.417-1.0982l15.3343-8.9848a4.0394,4.0394,0,0,1,2.0537-.5655,4.0815,4.0815,0,0,1,4.0826,4.0823l-16.3456,11.449-5.867,4.02a17.0656,17.0656,0,0,1-9.7117,3.0545,17.2958,17.2958,0,0,1-17.3309-17.3257L374.98,101.42a34.0772,34.0772,0,0,1,15.297-28.435l2.1742-1.4361,5.8672-4.02a17.0653,17.0653,0,0,1,9.7116-3.0545m-14.693,40.5637,13.7491-9.6586-.0975-8.1065a8.65,8.65,0,0,0-8.6723-8.6572,8.531,8.531,0,0,0-4.9793,1.6155v24.8068M408.03,51.03a30.5239,30.5239,0,0,0-17.3107,5.4082l-5.7728,3.9555-2.0788,1.3731A47.4,47.4,0,0,0,361.5358,101.42l-.0154,23.2483a30.4216,30.4216,0,0,0,8.9149,21.69,31.1246,31.1246,0,0,0,21.86,9.0886,30.5244,30.5244,0,0,0,17.3107-5.4082l5.8673-4.02q.0568-.0393.1135-.0786l16.3456-11.449a13.4443,13.4443,0,0,0,5.7311-11.0115,17.5514,17.5514,0,0,0-10.2516-15.9441l4.52-3.2353a16.466,16.466,0,0,0,6.8667-13.35l.006-9.1412a30.4209,30.4209,0,0,0-8.9151-21.69A31.1237,31.1237,0,0,0,408.03,51.03Z"/>
      <path class="a" d="M467.0015,64.4741A17.2961,17.2961,0,0,1,484.3325,81.8l-.0058,9.1414a2.9863,2.9863,0,0,1-1.2481,2.4263l-14.98,10.7231.0091.0427-15.7988,10.9056V124.06a5.9808,5.9808,0,0,0,5.9954,5.9854,5.9,5.9,0,0,0,3.4169-1.0982l15.3343-8.9848a4.04,4.04,0,0,1,2.0537-.5655,4.0815,4.0815,0,0,1,4.0826,4.0823l-16.3456,11.449-5.867,4.02a17.0656,17.0656,0,0,1-9.7117,3.0545,17.2958,17.2958,0,0,1-17.3309-17.3257l.0154-23.2571a34.077,34.077,0,0,1,15.297-28.435l2.1742-1.4361,5.8671-4.02a17.0653,17.0653,0,0,1,9.7116-3.0545m-14.693,40.5637,13.7491-9.6586-.0974-8.1065a8.65,8.65,0,0,0-8.6723-8.6572,8.5311,8.5311,0,0,0-4.9794,1.6155v24.8068M467.0015,51.03a30.5242,30.5242,0,0,0-17.3107,5.4082L443.918,60.394l-2.0787,1.3731A47.4,47.4,0,0,0,420.5077,101.42l-.0154,23.2483a30.4216,30.4216,0,0,0,8.9149,21.69,31.1248,31.1248,0,0,0,21.86,9.0886,30.5242,30.5242,0,0,0,17.3107-5.4082l5.8673-4.02q.057-.0393.1135-.0786l16.3456-11.449a13.4443,13.4443,0,0,0,5.7311-11.0115,17.5514,17.5514,0,0,0-10.2516-15.9441l4.52-3.2353a16.4658,16.4658,0,0,0,6.8668-13.35l.0059-9.1414a30.4208,30.4208,0,0,0-8.9151-21.6895,31.1237,31.1237,0,0,0-21.86-9.0888Z"/>
      <path class="a" d="M293.7589,13.4438a11.9355,11.9355,0,0,1,9.8013,5.1c3.8727,5.5308,6.9965,7.5295,9.5183,7.5295a4.9983,4.9983,0,0,0,2.906-.97L312.4,34.9746A10.2727,10.2727,0,0,1,294.3258,37.36L289.61,30.6257a5.6311,5.6311,0,0,0-9.2254,6.46L324.3938,100.73a23.87,23.87,0,0,1-6.03,33.3611l-10.3722,7.1311a11.4263,11.4263,0,0,1-15.84-2.8665c-3.8163-6.1281-6.1311-8.3286-8.3995-8.3286a7.2785,7.2785,0,0,0-4.0248,1.7688l3.5849-9.8706a9.1936,9.1936,0,0,1,8.7551-6.3494,10.5368,10.5368,0,0,1,8.5915,4.691l4.695,6.7048a5.2761,5.2761,0,0,0,4.4481,2.1064,7.401,7.401,0,0,0,4.2446-1.35,5.85,5.85,0,0,0,1.6042-7.9717l-41.096-59.4841A29.4959,29.4959,0,0,1,281.79,19.1973l5.1223-3.5891a11.8922,11.8922,0,0,1,6.8465-2.1644m0-13.4438a25.2528,25.2528,0,0,0-14.5615,4.5984l-5.1219,3.5889a42.9911,42.9911,0,0,0-10.5608,59.7558l23.9417,34.6548a22.7351,22.7351,0,0,0-16.78,14.7373l-3.5848,9.8709a13.4439,13.4439,0,0,0,12.6366,18.0332q.4279,0,.8558-.0271c.0512.0813.1033.1648.1561.25q.19.3054.3964.6a24.87,24.87,0,0,0,34.4719,6.238l10.3723-7.1313a37.3134,37.3134,0,0,0,9.4507-52.1152L308.7289,54.438a23.4666,23.4666,0,0,0,16.307-14.874l3.585-9.8706A13.4438,13.4438,0,0,0,315.9838,11.66q-.3972,0-.7942.0234c-.1907-.2532-.3965-.5359-.6168-.8506A25.4208,25.4208,0,0,0,293.7589,0Z"/>
    </g>
    <g>
      <path class="b" d="M38.2167,143.3667,19.86,130.5131V36.1068c0-9.6278-2.872-12.5-6.4149-12.5h0l8.5982-6.0293A10.2746,10.2746,0,0,1,38.2166,25.99l5.5492-3.8954a16.9647,16.9647,0,0,1,19.4731-.015h0a19.5332,19.5332,0,0,1,8.3349,16.0045v7.164A24.2749,24.2749,0,0,1,56.1992,67.8326h0l3.8474,1.69a26.1239,26.1239,0,0,1,15.62,23.92l0,5.9841a34.47,34.47,0,0,1-14.8886,28.3676Z"/>
      <path class="c" d="M38.2166,33.1725V70.4269L53.2172,59.9234V40.9813a9.5327,9.5327,0,0,0-15-7.8088Z"/>
      <path class="c" d="M38.2166,92.265V133.37l7.35-5.0033a26.8527,26.8527,0,0,0,11.7424-22.1979V88.6768A19.3439,19.3439,0,0,0,49.06,72.8312h0L38.2119,80.4274Z"/>
      <path class="b" d="M103.9938,112.4271v10.53c0,9.6278,2.872,12.5,6.4149,12.5h0l-8.5981,6.0293a10.2746,10.2746,0,0,1-16.1737-8.4124V112.0788h.0518V36.1068c0-9.6278-2.8721-12.5-6.4149-12.5h0l8.5981-6.0293A10.2746,10.2746,0,0,1,104.0456,25.99v86.437"/>
      <path class="b" d="M511.7936,112.4271v10.53c0,9.6278,2.872,12.5,6.4149,12.5h0l-8.5981,6.0293a10.2746,10.2746,0,0,1-16.1737-8.4124V112.0788h.0518V36.1068c0-9.6278-2.8721-12.5-6.4149-12.5h0l8.5981-6.0293A10.2746,10.2746,0,0,1,511.8454,25.99v86.437"/>
      <path class="b" d="M388.7326,39.5786l-6.0293-8.5981c0,3.5428-2.8721,6.4149-12.5,6.4149H365.85v-.0518h-6.1385V25.99a10.2746,10.2746,0,0,0-16.1737-8.4124L334.94,23.607c3.5428,0,6.4149,2.872,6.4149,12.5v1.2368H330.7659a10.2746,10.2746,0,0,0-8.4124,16.1736l6.0293,8.5982h0c0-3.5429,2.8721-6.4149,12.5-6.4149l.4724.0006v56.3777h-.0518v20.9954a10.2746,10.2746,0,0,0,16.1737,8.4124l8.5981-6.0293c-3.5429,0-6.4149-2.872-6.4149-12.5v-10.53h.0518V55.7252l20.6082.0271A10.2746,10.2746,0,0,0,388.7326,39.5786Z"/>
      <path class="b" d="M177.196,122.9567v-10.53h.0518V65.8522l-15.7,11.5878a7.1409,7.1409,0,0,0-2.9,5.7926l.1915,28.8454v11.64L145.7535,132.66a3.5713,3.5713,0,0,1-5.5781-2.9541V76.31a10.2745,10.2745,0,0,0-16.1736-8.4124l-8.5982,6.0292h0c3.5429,0,6.4149,2.8721,6.4149,12.5l-.0154,39.2022A17.277,17.277,0,0,0,148.8457,139.9l9.9934-6.8476v.0208a10.2746,10.2746,0,0,0,16.1737,8.4124l8.5981-6.0292C180.0681,135.4566,177.196,132.5845,177.196,122.9567Z"/>
      <path class="b" d="M215.8672,67.5287,210,71.5489l-2.1742,1.4359a34.077,34.077,0,0,0-15.297,28.4351v0l-.0154,23.257a17.2769,17.2769,0,0,0,27.0425,14.2713l5.8672-4.02,16.3456-11.4492v-9.6323l-21.4707,15.1005a5.975,5.975,0,0,1-9.4123-4.8874V115.039l15.7988-10.9054-.0092-.0427,14.9805-10.7233a2.9859,2.9859,0,0,0,1.248-2.4262L242.91,81.8A17.2769,17.2769,0,0,0,215.8672,67.5287Zm-4.9814,37.5092V80.2309h0a8.642,8.642,0,0,1,13.6517,7.0417l.0974,8.1066Z"/>
      <path class="b" d="M398.318,67.5287l-5.8671,4.02-2.1742,1.4359A34.077,34.077,0,0,0,374.98,101.42v0l-.0155,23.257a17.2769,17.2769,0,0,0,27.0426,14.2713l5.8671-4.02L424.22,123.4789h0a4.0758,4.0758,0,0,0-6.1364-3.5167l-15.3342,8.9849a5.975,5.975,0,0,1-9.4123-4.8874V115.039l15.7988-10.9054-.0092-.0427,14.9805-10.7233a2.9862,2.9862,0,0,0,1.248-2.4262l.0059-9.1414A17.277,17.277,0,0,0,398.318,67.5287Zm-4.9814,37.5092V80.2309h0a8.6419,8.6419,0,0,1,13.6516,7.0417l.0975,8.1066Z"/>
      <path class="b" d="M457.29,67.5287l-5.8671,4.02-2.1742,1.4359a34.0773,34.0773,0,0,0-15.297,28.4351v0l-.0154,23.257a17.2769,17.2769,0,0,0,27.0425,14.2713l5.8672-4.02,16.3456-11.4492h0a4.0759,4.0759,0,0,0-6.1365-3.5167l-15.3341,8.9849a5.9751,5.9751,0,0,1-9.4124-4.8874V115.039l15.7988-10.9054-.0092-.0427,14.9806-10.7233a2.9861,2.9861,0,0,0,1.2479-2.4262l.0059-9.1414A17.2769,17.2769,0,0,0,457.29,67.5287Zm-4.9814,37.5092V80.2309h0A8.642,8.642,0,0,1,465.96,87.2726l.0975,8.1066Z"/>
      <path class="b" d="M286.9123,15.6081,281.79,19.1973a29.4959,29.4959,0,0,0-7.2353,41.0742l41.0959,59.4841a5.85,5.85,0,0,1-1.6041,7.9718h0c-2.6538,1.9034-6.82,1.9191-8.6927-.7561l-4.6949-6.705c-4.77-6.8123-14.5078-6.1581-17.3467,1.6586l-3.5849,9.8706h0c4.17-3.0019,6.47-3.0019,12.4243,6.56h0a11.4292,11.4292,0,0,0,15.84,2.8663l10.3722-7.131a23.87,23.87,0,0,0,6.03-33.3612l-44.0089-63.644a5.631,5.631,0,0,1,1.3829-7.8424v0a5.631,5.631,0,0,1,7.8424,1.3829l4.7156,6.7345A10.2746,10.2746,0,0,0,312.4,34.9745l3.5849-9.8706h0c-2.9021,2.0321-6.9021,1.3268-12.4243-6.56h0A11.9493,11.9493,0,0,0,286.9123,15.6081Z"/>
    </g>
  </g>
</svg>
