<?xml version="1.0" encoding="UTF-8"?>
<svg xmlns="http://www.w3.org/2000/svg" viewBox="0 0 708.5791 90.9556">
  <defs>
    <style>
      .d {
        fill: #1c1f75;
      }

      .e {
        fill: #4d4d4d;
      }

      .f {
        fill: #ce9500;
      }
    </style>
  </defs>
  <g id="a" data-name="Capa 1"/>
  <g id="b" data-name="Capa 2">
    <g id="c" data-name="shopNow">
      <g>
        <path class="f" d="M13.7588,23.4639c-.7441,.3027-1.4502,.4551-2.1182,.4551-.9424,0-1.7051-.3525-2.2891-1.0596-.585-.7061-1.0898-1.7959-1.5156-3.2686-.9717,0-1.8711-.1328-2.6992-.3984s-1.5527-.71-2.1758-1.333c-.6221-.6226-1.1045-1.4614-1.4463-2.5171s-.5127-2.373-.5127-3.9526c0-1.5942,.1709-2.9233,.5127-3.9863s.8203-1.9019,1.4355-2.5171,1.3398-1.0513,2.1748-1.3101c.8359-.2578,1.7471-.3872,2.7344-.3872,.9863,0,1.8975,.1294,2.7334,.3872,.835,.2588,1.5635,.6914,2.1865,1.2988s1.1084,1.439,1.458,2.4941c.3496,1.0557,.5244,2.3804,.5244,3.9751,0,1.8379-.2207,3.3184-.6611,4.4419-.4404,1.124-1.0479,1.9746-1.8223,2.5518s-1.6709,.9492-2.6875,1.1162c.3027,.957,.6377,1.6553,1.002,2.0957s.8203,.6611,1.3662,.6611c.4863,0,.9951-.1221,1.5264-.3652l.2734,1.6182Zm-5.8994-5.4678c.6523,0,1.2754-.0947,1.8672-.2847,.5928-.1899,1.1162-.5278,1.5723-1.0137s.8125-1.1582,1.0703-2.0161c.2588-.8579,.3877-1.9551,.3877-3.292,0-1.3359-.1289-2.4375-.3877-3.3027-.2578-.8657-.6143-1.5376-1.0703-2.0161s-.9795-.8164-1.5723-1.0137c-.5918-.1973-1.2148-.2964-1.8672-.2964-.6533,0-1.2725,.0991-1.8564,.2964-.585,.1973-1.1016,.5391-1.5498,1.0249-.4482,.4863-.8047,1.1582-1.0703,2.0161s-.3984,1.9629-.3984,3.3145c0,1.3062,.1328,2.3882,.3984,3.2461,.2656,.8584,.626,1.5303,1.082,2.0161,.4561,.4863,.9756,.8276,1.5605,1.0249,.584,.1978,1.1963,.2964,1.834,.2964Z"/>
        <path class="f" d="M21.8457,19.5908c-1.0176,0-1.8301-.2773-2.4375-.8311-.6074-.5547-.9111-1.3862-.9111-2.4951V7.1528h1.9141V15.8774c0,.6685,.1816,1.1846,.5469,1.5488,.3643,.3647,.9033,.5474,1.6172,.5474,.5771,0,1.123-.0913,1.6396-.2739,.5166-.1821,1.0557-.4248,1.6172-.729V7.1528h1.9141v9.5449c0,.4707,.0791,.7969,.2393,.9795,.1592,.1821,.3604,.2729,.6035,.2729,.2129,0,.417-.0449,.6152-.1362l.2051,1.3892c-.2129,.1221-.4521,.2168-.7178,.2852s-.543,.1025-.832,.1025c-.4248,0-.7969-.1064-1.1162-.3193-.3184-.2119-.5391-.5381-.6602-.9795-.6982,.3955-1.3818,.7109-2.0498,.9453-.6689,.2354-1.3975,.3535-2.1875,.3535Z"/>
        <path class="f" d="M31.5049,16.4243c0-.9717,.2734-1.7202,.8203-2.2441,.5459-.5239,1.3623-.9072,2.4482-1.1504,1.0859-.2427,2.4414-.4399,4.0664-.5923v-1.7085c0-1.4424-.9189-2.1641-2.7568-2.1641-.4707,0-1.0059,.0381-1.6055,.1143-.6006,.0762-1.2266,.2129-1.8799,.4097l-.3408-1.5488c1.3662-.4102,2.6797-.6152,3.9404-.6152,3.0371,0,4.5557,1.2607,4.5557,3.7817v5.9229c0,.501,.0723,.8389,.2168,1.0137s.3379,.2622,.5811,.2622c.0908,0,.1895-.0078,.2959-.0229s.2197-.0459,.3418-.0913l.2051,1.4121c-.4561,.2588-.957,.3877-1.5039,.3877-1.0928,0-1.7305-.5693-1.9131-1.7085-.5469,.4556-1.1846,.854-1.9141,1.1958-.7285,.3418-1.5566,.5127-2.4824,.5127-.9268,0-1.6709-.2695-2.2324-.8086-.5625-.5391-.8428-1.3252-.8428-2.3579Zm1.9365-.1597c0,.6533,.1621,1.1431,.4893,1.4692,.3262,.3267,.7637,.4897,1.3096,.4897,.623,0,1.2568-.1436,1.9023-.4326,.6455-.2886,1.2109-.668,1.6973-1.1392v-3.0752c-1.0781,.0913-2.0234,.2202-2.8359,.3872-.8125,.1675-1.4434,.4292-1.8906,.7861-.4482,.3569-.6719,.8618-.6719,1.5146Z"/>
        <path class="f" d="M45.332,19.3633V7.1528h1.7305v1.0708c.7441-.4102,1.458-.729,2.1416-.957,.6836-.2275,1.4277-.3418,2.2324-.3418,1.1084,0,1.9512,.2891,2.5283,.8657,.5771,.5776,.8662,1.4048,.8662,2.4829v9.0898h-1.8906V10.7974c0-1.5034-.752-2.2549-2.2559-2.2549-.623,0-1.207,.0947-1.7539,.2847s-1.1162,.4365-1.708,.7402v9.7959h-1.8906Z"/>
        <path class="f" d="M63.2129,19.5908c-1.124,0-1.9551-.3154-2.4941-.9453s-.8086-1.5908-.8086-2.8818v-7.1758h-2.0957v-1.2759l2.0957-.1592,.25-2.8931h1.6631v2.8931h4.0781v1.4351h-4.0781v7.0391c0,.8198,.1553,1.4121,.4668,1.7769,.3115,.3643,.8242,.5464,1.5381,.5464,.3643,0,.7246-.0332,1.082-.1021,.3564-.0684,.7246-.1558,1.1045-.2622l.2734,1.4814c-.5615,.1816-1.1016,.3145-1.6172,.3984-.5166,.083-1.002,.125-1.458,.125Z"/>
        <path class="f" d="M70.2285,4.6924c-.4248,0-.7285-.0757-.9111-.2275-.1816-.1519-.2734-.4175-.2734-.7974,0-.3945,.0879-.668,.2627-.8203,.1738-.1514,.4814-.2275,.9219-.2275,.4248,0,.7256,.0762,.9004,.2275,.1738,.1523,.2617,.4258,.2617,.8203,0,.3799-.0879,.6455-.2617,.7974-.1748,.1519-.4756,.2275-.9004,.2275Zm-.9561,14.6709V7.1528h1.8906v12.2104h-1.8906Z"/>
        <path class="f" d="M79.5459,19.5908c-1.124,0-1.9551-.3154-2.4941-.9453s-.8086-1.5908-.8086-2.8818v-7.1758h-2.0957v-1.2759l2.0957-.1592,.25-2.8931h1.6631v2.8931h4.0781v1.4351h-4.0781v7.0391c0,.8198,.1553,1.4121,.4668,1.7769,.3115,.3643,.8242,.5464,1.5381,.5464,.3643,0,.7246-.0332,1.082-.1021,.3564-.0684,.7246-.1558,1.1045-.2622l.2734,1.4814c-.5615,.1816-1.1016,.3145-1.6172,.3984-.5166,.083-1.002,.125-1.458,.125Z"/>
        <path class="f" d="M87.8379,24.1016l1.5488-4.7383h-.3643l-4.6924-12.1875,2.0498-.1143,3.7812,10.5698,3.2803-10.5698,1.959,.1143-5.626,17.0391-1.9365-.1133Z"/>
      </g>
      <g>
        <path class="d" d="M369.8281,73.3066l5.2168-16.0596h3.7129l5.2617,16.0596h-3.417l-1.0703-3.417h-5.3984l-1.0479,3.417h-3.2578Zm4.9434-6.0596h4.123l-2.0498-7.4258-2.0732,7.4258Z"/>
        <path class="d" d="M392.791,73.5342c-1.0635,0-2.0732-.0186-3.0303-.0566s-1.8906-.0801-2.8018-.125v-15.9922c1.0176-.0752,1.9707-.1328,2.8584-.1709,.8887-.0371,1.8193-.0566,2.791-.0566,1.8066,0,3.2725,.2852,4.3965,.8545s1.9473,1.458,2.4717,2.665c.5234,1.207,.7861,2.7754,.7861,4.7041,0,2.8398-.623,4.9131-1.8682,6.2188-1.2451,1.3066-3.1133,1.959-5.6035,1.959Zm.1816-2.4824c1.3359,0,2.3428-.4365,3.0186-1.3105,.6758-.873,1.0137-2.3271,1.0137-4.3623,0-1.4268-.1484-2.5586-.4443-3.3936s-.748-1.4355-1.3555-1.7998-1.3896-.5469-2.3457-.5469c-.4258,0-.8887,.0078-1.3896,.0225-.502,.0156-.9492,.0381-1.3447,.0684v11.208c.4258,.0303,.8926,.0566,1.4014,.0801,.5088,.0225,.9912,.0342,1.4463,.0342Z"/>
        <path class="d" d="M409.6475,73.5342c-1.0635,0-2.0732-.0186-3.0303-.0566s-1.8906-.0801-2.8018-.125v-15.9922c1.0176-.0752,1.9707-.1328,2.8584-.1709,.8887-.0371,1.8193-.0566,2.791-.0566,1.8066,0,3.2725,.2852,4.3965,.8545s1.9473,1.458,2.4717,2.665c.5234,1.207,.7861,2.7754,.7861,4.7041,0,2.8398-.623,4.9131-1.8682,6.2188-1.2451,1.3066-3.1133,1.959-5.6035,1.959Zm.1816-2.4824c1.3359,0,2.3428-.4365,3.0186-1.3105,.6758-.873,1.0137-2.3271,1.0137-4.3623,0-1.4268-.1484-2.5586-.4443-3.3936s-.748-1.4355-1.3555-1.7998-1.3896-.5469-2.3457-.5469c-.4258,0-.8887,.0078-1.3896,.0225-.502,.0156-.9492,.0381-1.3447,.0684v11.208c.4258,.0303,.8926,.0566,1.4014,.0801,.5088,.0225,.9912,.0342,1.4463,.0342Z"/>
        <path class="d" d="M439.375,60.1172h-4.7607v13.1895h-3.1211v-13.1895h-4.7842v-2.7568h12.666v2.7568Z"/>
        <path class="d" d="M448.4863,73.5342c-1.4277,0-2.6768-.2539-3.7471-.7627-1.0713-.5088-1.9023-1.3594-2.4951-2.5518-.5918-1.1914-.8877-2.8203-.8877-4.8857s.2881-3.6943,.8652-4.8867,1.3975-2.042,2.46-2.5508c1.0635-.5088,2.3311-.7637,3.8047-.7637,1.4727,0,2.7451,.251,3.8154,.752,1.0713,.501,1.8945,1.3438,2.4717,2.5283s.8662,2.8018,.8662,4.8525c0,2.1104-.293,3.7666-.8779,4.9658-.584,1.2002-1.4121,2.0498-2.4824,2.5508-1.0703,.502-2.335,.752-3.793,.752Zm0-2.4824c.7588,0,1.4385-.1631,2.0391-.4902,.5996-.3262,1.0703-.9033,1.4121-1.7314,.3418-.8271,.5127-1.9932,.5127-3.4961,0-1.5186-.1709-2.6963-.5127-3.5312s-.8125-1.4121-1.4121-1.7314c-.6006-.3184-1.2803-.4785-2.0391-.4785-.7441,0-1.416,.1602-2.0156,.4785-.6006,.3193-1.0713,.8926-1.4131,1.7197-.3418,.8281-.5127,2.0088-.5127,3.543,0,1.5186,.1748,2.6914,.5244,3.5195,.3496,.8271,.8203,1.4004,1.4121,1.7197,.5928,.3184,1.2607,.4785,2.0049,.4785Z"/>
        <path class="d" d="M466.0723,65.584c0-3.0068,.6309-5.167,1.8916-6.4805,1.2598-1.3135,3.1357-1.9707,5.626-1.9707,.9873,0,1.8379,.0537,2.5518,.1592,.7139,.1064,1.4346,.2666,2.1641,.4785l-.6377,2.5059c-.6836-.167-1.3252-.2881-1.9248-.3643-.6006-.0762-1.2188-.1143-1.8574-.1143-1.0625,0-1.9326,.1826-2.6074,.5469-.6768,.3643-1.1816,.9688-1.5156,1.8115s-.501,1.9775-.501,3.4053c0,1.3213,.1631,2.373,.4902,3.1553,.3262,.7822,.8193,1.3398,1.4805,1.6738,.6602,.334,1.499,.501,2.5176,.501,.6982,0,1.4268-.0488,2.1865-.1475,.7588-.0986,1.4648-.2393,2.1182-.4219l.5469,2.46c-.7139,.2285-1.5,.4102-2.3574,.5469-.8584,.1367-1.8564,.2051-2.9961,.2051-1.5645,0-2.8818-.2578-3.9521-.7744-1.0703-.5156-1.876-1.3555-2.4141-2.5166-.54-1.1621-.8096-2.7148-.8096-4.6592Z"/>
        <path class="d" d="M480.7432,73.3066l5.2168-16.0596h3.7129l5.2617,16.0596h-3.417l-1.0703-3.417h-5.3984l-1.0479,3.417h-3.2578Zm4.9434-6.0596h4.123l-2.0498-7.4258-2.0732,7.4258Z"/>
        <path class="d" d="M510.9941,73.5342c-1.0781,0-2.1562-.459-3.2344-1.3779-1.0791-.9189-2.3008-2.4111-3.668-4.4766-.1221,0-.293,.0039-.5127,.0117s-.3838,.0117-.4893,.0117c-.335,0-.6875-.0039-1.0596-.0117s-.7324-.0186-1.082-.0342v5.6494h-3.0293v-15.9688c1.1689-.0605,2.209-.1104,3.1201-.1484,.9111-.0371,1.7998-.0566,2.666-.0566,1.624,0,2.9385,.1631,3.9404,.4902,1.002,.3262,1.7393,.8428,2.21,1.5488s.7061,1.6436,.7061,2.8135c0,1.3818-.3115,2.4561-.9346,3.2227-.6221,.7676-1.4951,1.333-2.6191,1.6973,.957,1.1543,1.7881,2.0469,2.4941,2.6768,.7061,.6309,1.3398,.9453,1.9023,.9453,.0459,0,.1025-.0029,.1709-.0117,.0684-.0068,.125-.0107,.1709-.0107l.0225,2.9609c-.0908,.0156-.2012,.0303-.3301,.0459-.1289,.0146-.2773,.0225-.4443,.0225Zm-7.3809-8.292c1.3066,0,2.2705-.208,2.8936-.626,.6221-.418,.9336-1.1582,.9336-2.2207,0-1.0176-.2617-1.7354-.7861-2.1533-.5234-.417-1.4922-.626-2.9043-.626h-.9453c-.2656,0-.5391,.0078-.8203,.0225-.2812,.0156-.626,.0381-1.0361,.0684v5.4668c.5166,.0156,.9795,.0312,1.3896,.0459,.4102,.0156,.835,.0225,1.2754,.0225Z"/>
        <path class="d" d="M525.8018,60.1172h-4.7607v13.1895h-3.1211v-13.1895h-4.7842v-2.7568h12.666v2.7568Z"/>
      </g>
      <path class="e" d="M83.4619,75.585v-1.377h6.3281v-15.2773l-6.2227,3.1768-.4502-1.3506,7.4404-3.7861h.874v17.2373h5.2949v1.377h-13.2646Z"/>
      <path class="f" d="M181.1123,41.1846v48.6321H1.1465V41.1846H181.1123m1.1392-1.139H.0073v50.91H182.2515V40.0455h0Z"/>
      <path class="f" d="M707.4399,41.1846v48.6321H205.7593V41.1846h501.6807m1.1392-1.139H204.6201v50.91h503.959V40.0455h0Z"/>
      <path class="f" d="M46.8638,41.0939v48.8134H1.0557V41.0939H46.8638m1.0483-1.0483H.0073v50.91H47.9121V40.0455h0Z"/>
      <path class="f" d="M181.1123,41.1846v48.6321h-45.6265V41.1846h45.6265m1.1392-1.139h-47.9048v50.91h47.9048V40.0455h0Z"/>
      <path class="d" d="M158.2324,72.4316v-7.0205h-5.9316v-1.9141h5.9316v-7.0205h2.0645v7.0205h5.9688v1.9141h-5.9688v7.0205h-2.0645Z"/>
      <path class="d" d="M18.9414,66.1621v-1.9902h8.8604v1.9902h-8.8604Z"/>
    </g>
  </g>
</svg>