<svg xmlns="http://www.w3.org/2000/svg" viewBox="0 0 543.0754 599.8748">
  <defs>
    <style>
      .a {
        fill: #fff;
      }

      .b {
        fill: #ce9500;
      }
    </style>
  </defs>
  <g>
    <g>
      <g>
        <path class="a" d="M335.9609,454.752V112.6853H15.9137V453.8479l75.602,1.49C172.9976,456.9438,254.5559,458.5331,335.9609,454.752Z"/>
        <path class="b" d="M91.5157,455.3379l-75.602-1.49v40.75a45.2691,45.2691,0,0,0,45.2691,45.269H117.839c33.9032,0,58.0982,33.1184,58.0982,33.1184s24.195-33.1184,58.0985-33.1184h56.6562a45.269,45.269,0,0,0,45.269-45.269V454.752C254.5559,458.5331,172.9976,456.9438,91.5157,455.3379Z"/>
      </g>
      <g>
        <path class="b" d="M166.5967,579.8157c-.1968-.2647-21.438-28.376-48.7573-28.376H61.1817A56.9063,56.9063,0,0,1,4.34,494.5979V101.1125H347.5342V494.5979A56.9063,56.9063,0,0,1,290.6924,551.44H234.0347c-27.38,0-48.5557,28.1123-48.7666,28.3965l-9.353,12.706Zm-139.11-85.2178a33.7337,33.7337,0,0,0,33.6948,33.6953h56.6577c26.0874,0,46.6367,15.791,58.0991,27.2334,11.4619-11.4424,32.0113-27.2334,58.0962-27.2334h56.6577a33.7338,33.7338,0,0,0,33.6949-33.6953V124.259h-296.9Z"/>
        <path class="a" d="M343.1941,105.4524v389.146A52.5594,52.5594,0,0,1,290.6926,547.1H234.0347c-29.7277,0-52.041,29.8605-52.2614,30.1628l-5.8489,7.9453-5.8263-7.9565C169.8833,576.96,147.57,547.1,117.84,547.1H61.1817A52.56,52.56,0,0,1,8.68,494.5984V105.4524h334.514M61.1817,532.6331H117.84c27.2693,0,48.3734,18.6457,58.0989,29.1484,9.7256-10.5027,30.83-29.1484,58.0962-29.1484h56.6579a38.0792,38.0792,0,0,0,38.0346-38.0347V119.9192H23.1469V494.5984a38.0793,38.0793,0,0,0,38.0348,38.0347M351.8742,96.7722H0V494.5984A61.2508,61.2508,0,0,0,61.1817,555.78H117.84c24.8367,0,44.7415,25.9236,45.2837,26.6387l5.7979,7.9177,6.9848,9.5386,7.0087-9.521,5.8489-7.9454c.1825-.2438,20.1944-26.6286,45.2711-26.6286h56.6579a61.2507,61.2507,0,0,0,61.1816-61.1814V96.7722ZM31.827,128.5991h288.22V494.5984a29.3877,29.3877,0,0,1-29.3546,29.3545H234.0347c-25.3927,0-45.6766,13.9917-58.0962,25.5478-12.42-11.5561-32.704-25.5478-58.0989-25.5478H61.1817A29.3877,29.3877,0,0,1,31.827,494.5984V128.5991Z"/>
      </g>
    </g>
    <g>
      <g>
        <path class="b" d="M259.1788,469.0793a58.1545,58.1545,0,0,1-56.7124-45.6562,12.2129,12.2129,0,0,1-5.5181,6.7324,13.8515,13.8515,0,0,1-7.3306,2.1621c-6.3462,0-10.7807-4.6259-10.9663-4.8232l-.0683-.0742c-.2417-.2744-18.7007-21.2149-30.8414-34.7871A58.0446,58.0446,0,1,1,88.439,353.1594c.34-1.2969.68-2.4824,1.03-3.5869,2.4-7.5166,5.5361-13.3213,9.5894-17.7539a28.2505,28.2505,0,0,1,8.1406-6.2275,26.6709,26.6709,0,0,1,10.4443-2.7725c10.2036-.6279,22.2232-.9463,35.7212-.9463,4.98,0,10.1489.044,15.3823.1289,10.5991-8.8545,19.8516-16.3066,19.9458-16.3828l.2227-.1787.2524-.1338a6.0989,6.0989,0,0,0,1.5879-1.2637c-.4639-.4209-1.9111-1.4082-5.9936-2.4492-14.6973-3.748-49.7369-4.2588-50.0889-4.2627H134.67a23.5874,23.5874,0,0,1-4.5425-.45l-17.1514,23.3057-.3594.2676c-4.93,3.666-30.021,21.9541-39.8911,21.9541a6.9864,6.9864,0,0,1-2.5605-.4463c-3.5508-1.3945-4.69-3.6719-5.0215-5.336-.895-4.497,3.2061-8.7226,4.0371-9.5234l.1157-.1113,29.9873-23.2793,12.0782-36.4639a23.7274,23.7274,0,0,1,1.1948-3.57A24.0656,24.0656,0,0,1,123.7608,251.73l.07-.1875,1.2534-.4384a23.93,23.93,0,0,1,4.6343-1.4961,91.6415,91.6415,0,0,1,26.4107-4.0469c35.4873,0,59,22.9267,69.041,32.7158.562.5479,1.0849,1.0586,1.57,1.5254,12.7095,12.2393,15.4912,30.3135,6.2007,40.2891-1.4776,1.5869-7.1734,5.5361-20.668,14.3027A206.0593,206.0593,0,0,1,234.41,358.5422a58.0439,58.0439,0,1,1,24.77,110.5371ZM230.74,378.2434c-.835.7061-1.5884,1.3955-2.2739,2.08a43.8361,43.8361,0,1,0,14.7837-9.66A225.7541,225.7541,0,0,1,263.7789,408.15a7.3056,7.3056,0,1,1-13.4234,5.7705A210.4989,210.4989,0,0,0,230.74,378.2434ZM85.6226,368.22a43.2934,43.2934,0,1,0,14.71.0693,163.1881,163.1881,0,0,0-1.3238,21.7559c0,6.0039.2608,11.205.48,14.5107.12,1.8047.2383,3.2461.3277,4.2275l.1328,1.3838a7.3283,7.3283,0,0,1-6.4532,8.1289,7.2963,7.2963,0,0,1-8.0625-6.4609c-.1084-1.0127-1.0341-9.9951-1.0346-21.7891A184.1039,184.1039,0,0,1,85.6226,368.22Zm112.7363-24.84c-11.3149,7.2862-23.0151,14.8213-30.0263,19.6514a4.465,4.465,0,0,0-.8614,6.5723c7.6543,9.0283,21.4956,26.9726,28.1475,35.5966,1.771,2.2959,2.9912,3.878,3.38,4.3653a20.0212,20.0212,0,0,1,2.1689,3.4365q-.033-.98-.0332-1.9668a57.54,57.54,0,0,1,20.8931-44.6016c-3.17-3.9912-6.4741-7.8457-9.8477-11.4853a174.616,174.616,0,0,0-12.6147-12.3457Zm-94.9633,10.6133a57.7707,57.7707,0,0,1,29.6254,15.3242,34.76,34.76,0,0,1,2.417-16.2138c.4668-1.1661,1.3819-3.4561,16.3487-16.62-12.5718.0245-23.75.3321-33.2481.918a12.199,12.199,0,0,0-4.79,1.249,16.9077,16.9077,0,0,0-6.62,6.7276A40.9006,40.9006,0,0,0,103.3956,353.9934Z"/>
        <path class="a" d="M156.1278,248.5579c36.184.0009,59.3036,24.5141,68.5327,33.4021,11.566,11.1386,14.2392,27.3349,6.087,36.0886-1.6324,1.7532-11.5044,8.2693-23.3791,15.9534a199.8025,199.8025,0,0,1,26.177,28.32,55.0026,55.0026,0,1,1-7.3182,4.615c-4.1016-5.3208-8.1144-9.9966-11.8494-14.0261a174.1175,174.1175,0,0,0-14.5473-14.0442c-12.3953,7.9858-25.5112,16.4-33.1979,21.697a7.4612,7.4612,0,0,0-1.4469,10.9783c9.6953,11.435,29.6459,37.6111,31.4735,39.895,2.4344,3.0437,6.6317,11.2954-1.2817,16.165a10.8479,10.8479,0,0,1-5.76,1.7176c-5.1256,0-8.7861-3.8816-8.7861-3.8816s-31.6538-35.9153-39.5672-44.4373-5.4785-20.6968-3.0435-26.7842c1.0413-2.6032,10.7707-11.4428,21.5615-20.7065q-3.1508-.0226-6.4183-.0249h-.0184c-11.4349,0-23.7665.2332-34.9918.9246a15.1194,15.1194,0,0,0-5.9461,1.56,19.7136,19.7136,0,0,0-7.8529,7.8716,49.03,49.03,0,0,0-4.9825,12.59,55.066,55.066,0,1,1-8.7644-.3958c.4528-1.8872.9462-3.7509,1.5183-5.56,2.0164-6.315,4.8074-12.1118,8.9437-16.6353a25.278,25.278,0,0,1,7.2719-5.5715,23.7727,23.7727,0,0,1,9.2824-2.46c11.4954-.7071,23.9812-.94,35.54-.94,5.8,0,11.364.0591,16.4486.1473,11.0568-9.253,20.7589-17.0625,20.7589-17.0625s10.1491-5.3843-5.0693-9.2652-50.7893-4.3557-50.7893-4.3557a21.0937,21.0937,0,0,1-5.82-.831l-18.0647,24.5466s-28.7248,21.362-38.1023,21.362a4.0208,4.0208,0,0,1-1.465-.2382c-7.3049-2.87,0-9.9131,0-9.9131l30.581-23.74,12.3995-37.4324a21.0234,21.0234,0,0,1,1.0676-3.2226l.0006-.0015v0a21.1839,21.1839,0,0,1,10.8375-10.9514l.0015-.0046.0248-.0081a20.94,20.94,0,0,1,4.2836-1.384,88.24,88.24,0,0,1,25.6709-3.9565M257.07,415.345a4.31,4.31,0,0,1-3.9608-2.6084,212.9146,212.9146,0,0,0-21.7309-38.8252,46.847,46.847,0,0,0-5.03,4.2925,46.9565,46.9565,0,1,0,12.3843-8.8084A221.9944,221.9944,0,0,1,261.026,409.334a4.3107,4.3107,0,0,1-3.9563,6.011M92.6951,457.4661A46.4233,46.4233,0,0,0,97.8128,364.9c-.0289.1819-.0642.36-.0926.5422a162.4522,162.4522,0,0,0-1.7082,24.6031c0,5.8786.2435,11.0358.4865,14.7082.1215,1.8364.2425,3.3018.3329,4.3013.0453.5.0826.8833.1078,1.1386l.0294.2852.009.0842a4.3084,4.3084,0,0,1-3.81,4.7547,4.3923,4.3923,0,0,1-.4769.0263,4.31,4.31,0,0,1-4.2778-3.8369l0,0c-.011-.1055-1.0166-9.2324-1.017-21.4614a172.6888,172.6888,0,0,1,1.7181-25.2605,46.4093,46.4093,0,0,0,3.581,92.6809M156.1279,242.564h0a94.61,94.61,0,0,0-27.1575,4.1381,27.035,27.035,0,0,0-4.9685,1.6041l-2.4776.85-.1744.467a27.04,27.04,0,0,0-11.5454,12.868l-.031.072-.0027.0066a26.5993,26.5993,0,0,0-1.2865,3.8342L96.7255,301.9026l-29.14,22.6221-.2536.1967-.2311.2229c-1.028.991-6.0954,6.24-4.8965,12.2659.39,1.9624,1.8013,5.5515,6.8649,7.5408a9.96,9.96,0,0,0,3.6568.6535c2.6936,0,7.3978-.8178,18.093-6.9387a61.9583,61.9583,0,0,0-4.2023,10.187q-.2616.8272-.5163,1.7095a61.0193,61.0193,0,1,0,67.1469,52.9507c10.9677,12.3386,22.8938,25.8682,23.0879,26.0886l.0668.0757.0693.0735c.5563.59,5.6512,5.7629,13.1467,5.7629a16.8018,16.8018,0,0,0,8.9012-2.6064,17.8583,17.8583,0,0,0,2.8264-2.1365,61.0465,61.0465,0,1,0,33.9671-75.7163,210.9544,210.9544,0,0,0-18.2151-20.0269c13.1582-8.5957,16.6583-11.2141,18.0367-12.6943,5.2463-5.6335,7.3331-13.5266,5.8757-22.2251a40.8035,40.8035,0,0,0-12.1915-22.2656c-.4805-.4627-.9993-.9685-1.5561-1.5115-10.3015-10.0437-34.4315-33.5632-71.1343-33.5671Zm-39.193,77.299L131.46,300.1257a26.5441,26.5441,0,0,0,3.2081.2012c1.2916.019,35.2047.5615,49.3529,4.17q.52.1329.9705.261c-3.1042,2.5153-9.8139,7.9768-17.3107,14.2295-4.8988-.0743-9.7047-.1119-14.3168-.1119-13.5637,0-25.6448.3206-35.9077.9519q-.2616.0158-.5216.0359Zm-9.5831,31.9207a32.7044,32.7044,0,0,1,2.343-4.8587,14.0576,14.0576,0,0,1,5.4006-5.5974,9.1529,9.1529,0,0,1,3.6348-.9355c7.4027-.4558,15.8358-.7424,25.1561-.8565-9.8614,9.0311-10.6573,11.0225-11.2305,12.4554a39.507,39.507,0,0,0-2.6261,10.7739,60.657,60.657,0,0,0-22.6779-10.9812Zm91.1748,52.2793q-.2631-.341-.5408-.7012c-6.6643-8.64-20.5316-26.6177-28.2282-35.6955a1.4529,1.4529,0,0,1-.3436-1.158,1.4245,1.4245,0,0,1,.62-1.0085c6.8259-4.7037,18.1728-12.0169,29.2363-19.1421,3.5851,3.2507,7.1752,6.8122,10.7117,10.6281,2.6905,2.9026,5.3365,5.9441,7.9042,9.0843a60.3376,60.3376,0,0,0-19.3592,37.9929ZM247.89,372.2244a39.7709,39.7709,0,0,1,11.29-1.6263,40.4387,40.4387,0,1,1-28.9724,12.2276,207.644,207.644,0,0,1,17.3943,32.2776,10.3025,10.3025,0,1,0,18.93-8.1367A228.9,228.9,0,0,0,247.89,372.2244ZM92.69,421.3381a10.42,10.42,0,0,0,1.1328-.0622,10.3025,10.3025,0,0,0,9.1121-11.37l-.0063-.06-.0276-.2676c-.0214-.2175-.0572-.5844-.1-1.0632-.079-.8731-.199-2.303-.3216-4.1567-.2159-3.2642-.4733-8.397-.4733-14.3125a168.4491,168.4491,0,0,1,.9031-18.1255,40.6113,40.6113,0,1,1-20.7073.0969c-.5245,5.605-.7927,11.6365-.8,18.022,0,12.02.9429,21.1032,1.05,22.0993a10.2926,10.2926,0,0,0,10.2379,9.2Z"/>
      </g>
      <polygon class="b" points="76.826 350.312 76.826 350.312 76.826 350.312 76.826 350.312"/>
      <path class="b" d="M124.7449,240.9239q-.915.0092-1.7792.0263a21.1237,21.1237,0,0,1-42.2473-.0037s-5.9071-15.1758,14.4243-20.0212a21.06,21.06,0,0,1,6.6991-1.1026c20.3687-2.05,25.428,9.8361,26.6655,16.629A3.8268,3.8268,0,0,1,124.7449,240.9239Z"/>
      <path class="b" d="M271.8673,406.7263c4.24,6.3592-.0295,15.5213-6.7381,18.4884-6.5035,3.39-16.306,1.03-18.6653-6.2289,5.8908,1.0323,10.0124.76,14.924-1.53C266.0985,415.1,269.0573,411.9324,271.8673,406.7263Z"/>
      <path class="b" d="M96.4785,417.4559c4.7112-2.3561,7.67-5.5236,10.48-10.73,4.24,6.3592-.0294,15.5213-6.738,18.4884-6.504,3.39-16.306,1.03-18.6653-6.2289C87.4449,420.018,91.568,419.7453,96.4785,417.4559Z"/>
      <path class="b" d="M63.1775,326.61a8.9322,8.9322,0,0,0-5.0277-1.6581,7.4842,7.4842,0,0,0-5.3344,2.2335,8.1238,8.1238,0,0,0-2.3056,5.8166,11.4723,11.4723,0,0,0,.8988,4.3115,7.0478,7.0478,0,0,0,1.8317,2.6353,11.3706,11.3706,0,0,0,4.8653,2.3945,27.1738,27.1738,0,0,0,6.637.7345,47.1379,47.1379,0,0,0,7.0962-.5772c.93-.1448,1.6851-.2891,2.1957-.3945.2556-.0527.45-.0955.5743-.1238l.1331-.0309.0252-.0061v0a4.3081,4.3081,0,0,1,2.0585,8.3667,55.7108,55.7108,0,0,1-12.083,1.3818,32,32,0,0,1-11.7473-1.9678,18.3156,18.3156,0,0,1-5.5411-3.3932,15.7052,15.7052,0,0,1-4.0317-5.784,20.0786,20.0786,0,0,1-1.5288-7.5472,16.76,16.76,0,0,1,4.8021-11.8828,16.1083,16.1083,0,0,1,11.454-4.7837,17.5612,17.5612,0,0,1,9.8493,3.1329,4.3084,4.3084,0,1,1-4.8216,7.1416Z"/>
    </g>
    <g>
      <g>
        <g>
          <path class="a" d="M364.5194,343.66c54.2888-1.4068,108.9566,10.8495,162.6428,3.7475V15.913H207.1151V343.8822C257.212,359.0527,311.7586,345.027,364.5194,343.66Z"/>
          <path class="b" d="M364.5194,343.66c-52.7608,1.3674-107.3074,15.3931-157.4043.2226v53.9436a45.2688,45.2688,0,0,0,45.269,45.269H309.04c33.9032,0,58.0982,33.1184,58.0982,33.1184s24.195-33.1184,58.0985-33.1184h56.6562a45.269,45.269,0,0,0,45.269-45.269V347.4071C473.476,354.5091,418.8082,342.2528,364.5194,343.66Z"/>
        </g>
        <g>
          <path class="b" d="M357.7974,483.0432c-.1963-.2646-21.4375-28.376-48.7563-28.376H252.3829a56.9061,56.9061,0,0,1-56.8418-56.8408V4.34H538.7359V397.8264a56.9062,56.9062,0,0,1-56.8423,56.8408H425.2359c-27.38,0-48.5557,28.1123-48.7666,28.3965L367.1158,495.77ZM218.6885,397.8264a33.7326,33.7326,0,0,0,33.6944,33.6944h56.6582c26.0844,0,46.6357,15.791,58.0986,27.2334,11.4629-11.4424,32.0132-27.2334,58.0962-27.2334h56.6577a33.7331,33.7331,0,0,0,33.6953-33.6944V27.4866h-296.9Z"/>
          <path class="a" d="M534.3954,8.68v389.146a52.56,52.56,0,0,1-52.5016,52.5014h-56.658c-29.7275,0-52.0409,29.86-52.2613,30.1629l-5.8488,7.9453-5.8263-7.9568c-.2148-.291-22.5281-30.1514-52.2586-30.1514H252.3829a52.56,52.56,0,0,1-52.5015-52.5014V8.68h334.514M252.3829,435.8608h56.6579c27.2694,0,48.3735,18.6458,58.099,29.1485,9.7255-10.5027,30.8295-29.1485,58.096-29.1485h56.658a38.0793,38.0793,0,0,0,38.0348-38.0346V23.147h-305.58V397.8262a38.0792,38.0792,0,0,0,38.0347,38.0346M543.0754,0H191.2013V397.8262a61.2509,61.2509,0,0,0,61.1816,61.1816h56.6579c24.8536,0,44.7685,25.958,45.2848,26.64l5.7968,7.9165,6.9848,9.5388,7.0088-9.5213,5.8488-7.9453c.1831-.2446,20.193-26.6284,45.271-26.6284h56.658a61.2509,61.2509,0,0,0,61.1816-61.1816V0ZM223.0283,31.8271h288.22V397.8262a29.3877,29.3877,0,0,1-29.3547,29.3545h-56.658c-25.3926,0-45.6764,13.9917-58.096,25.5478-12.42-11.5561-32.704-25.5478-58.099-25.5478H252.3829a29.3877,29.3877,0,0,1-29.3546-29.3545V31.8271Z"/>
        </g>
      </g>
      <g>
        <circle class="b" cx="391.8263" cy="96.2594" r="22.9549"/>
        <circle class="b" cx="373.6556" cy="143.7037" r="23.3127"/>
        <circle class="b" cx="360.1878" cy="236.4778" r="22.9549"/>
        <g>
          <path class="b" d="M474.9771,369.6145c-12.6035,0-18.1851-20.9453-30.4146-66.835q-2.0148-7.56-4.2729-15.9687c-7.1475-2.794-39.7754-15.6377-62.771-26.2012-3.1694,14.1319-12.6909,52.2305-24.3462,58.001-21.3457,10.5693-89.2891,40.6455-89.9731,40.9473-.2486.12-7.9742,3.7636-15.13,3.7636-7.62,0-10.7471-3.9882-12.0283-7.3349-5.1148-13.3565,8.4257-20.9209,22.7617-28.93q1.71-.955,3.4546-1.9375c15.4272-8.7158,54.394-30.1817,61.7661-34.24,2.1782-10.6133,16.435-81.2676,18.5849-122.5049-6.7119,3.6631-19.4419,10.5127-29.9707,15.6162.8863,5.42,3.1392,19.8584,4.4771,34.34,3.1987,34.63-1.3086,40.3565-6.14,41.3916a5.9517,5.9517,0,0,1-1.24.1309c-12.1182.0019-20.3867-39.9463-20.458-40.3506-.5815-3.2871-1.187-6.5732-1.7852-9.8193-3.7954-20.5879-7.0727-38.3682-2.9467-47.5411,4.4653-9.9287,56.226-44.1543,83.934-44.166h.4561l23.2832,7.2471,45.8535,35.3262c8.4063-5.8174,38.9029-26.2393,52.7285-26.2393,4.72,0,6.834,2.2461,7.7759,4.1309,1.44,2.8818.7378,6.5517-2.1474,11.2207-10.7237,17.3515-51.7164,47.61-64.5035,47.6123a7.8934,7.8934,0,0,1-2.1948-.2871c-7.8379-2.2559-23.97-14.6709-31.938-21.0664l-3.6313,42.0849c4.9848,2.291,18.8794,8.7481,32.9707,15.9248,36.2759,18.4737,38.5459,23.6875,39.4,25.65,6.936,15.9287,23.89,89.2715,15.7685,105.544a7.273,7.273,0,0,1-4.7964,4.1845,10.9227,10.9227,0,0,1-2.5249.3057Z"/>
          <path class="a" d="M368.48,120.9729l22.3351,6.9519,47.17,36.3408s38.126-26.959,52.8149-26.959c2.4377,0,4.23.7425,5.0952,2.4739,5.6286,11.2612-49.766,54.4971-63.9709,54.4971a4.9434,4.9434,0,0,1-1.3649-.17c-9.7242-2.7991-35.2654-24.094-35.2654-24.094l-4.3,49.8391s68.4782,31.02,72.7909,40.9243c7.9925,18.3557,26.38,102.43,13.0241,105.617a7.8751,7.8751,0,0,1-1.83.2236c-11.6364,0-17.7176-28.4741-32.19-82.0481,0,0-41.4617-16.07-67.4017-28.2529,0,0-11.2752,53.5341-23.544,59.6093-21.5348,10.6631-89.8561,40.8921-89.8561,40.8921s-7.3574,3.5071-13.9177,3.5071c-3.9712,0-7.65-1.2844-9.2293-5.4094-4.5329-11.8379,9.6358-18.5659,24.8921-27.1863,17.1689-9.7009,62.9469-34.8914,62.9469-34.8914s17.9526-85.7187,19.1368-129.645c0,0-21.2221,11.8025-36.5046,19.0711,0,0,12.5064,72.0708,1.0363,74.5276a2.9321,2.9321,0,0,1-.6127.0649c-7.7205,0-16.164-30.2859-17.5062-37.8755-4.0648-22.9851-9.3186-45.8974-4.95-55.61,3.9986-8.89,54.904-42.3876,81.2019-42.3979m.91-5.9941-.9125,0c-16.94.0066-39.8174,11.6975-51.9466,18.6658-11.2461,6.4609-31.2141,19.4743-34.7193,27.2673-4.51,10.0266-1.1533,28.2344,2.7331,49.3174.5912,3.2068,1.2025,6.5227,1.7811,9.7949a151.318,151.318,0,0,0,6.6619,22.8728c5.2535,13.7991,10.4183,19.9529,16.7466,19.9529a8.9426,8.9426,0,0,0,1.8673-.1978c8.9035-1.9069,11.2856-14.4108,8.497-44.5974-1.2076-13.0727-3.1065-25.8242-4.1458-32.3479,8.0208-3.9458,16.851-8.62,23.3278-12.1137-2.8726,39.9626-15.1533,101.7583-17.9164,115.3281-9.6995,5.3418-45.8522,25.2668-60.5812,33.5891q-1.7328.9792-3.4391,1.9287c-7.1977,4.02-13.9961,7.8184-18.7,12.3267-7.9642,7.6333-7.3335,15.2485-5.402,20.2927,1.3243,3.4582,5.0114,9.26,14.8269,9.26,7.49,0,15.199-3.48,16.4125-4.05,3.6637-1.6211,68.7691-30.448,90.021-40.9712,4.2837-2.1211,10.96-8.1287,19.4419-35.6912,2.4264-7.885,4.37-15.4687,5.6421-20.7617,21.4569,9.6819,49.3365,20.7283,58.2024,24.2068q2.0454,7.6,3.8769,14.4971c5.6,21.0134,10.0234,37.611,14.3225,48.7771,3.8621,10.0312,9.1387,20.2861,18.9907,20.2861a13.9166,13.9166,0,0,0,3.221-.3872,10.1716,10.1716,0,0,0,6.7822-5.7605c3.9181-7.85,3.2874-26.1983-1.8744-54.5357-3.89-21.354-9.8343-44.373-13.8277-53.5439-1.1617-2.6682-3.8508-6.1253-15.5592-13.2922-6.3492-3.8865-14.8374-8.54-25.2288-13.8323-12.6124-6.4231-25.0694-12.2725-31.1641-15.0933l2.9711-34.4321c8.8077,6.8625,21.5253,16.0962,28.6026,18.1333a10.9341,10.9341,0,0,0,3.0228.4043c9.4286,0,26.0465-11.3118,35.113-18.0545,14.824-11.0246,26.7636-22.6045,31.9385-30.9763,1.2784-2.0681,5.1688-8.362,2.2809-14.14-1.08-2.1618-3.8757-5.7881-10.4567-5.7881-7.2834,0-18.723,4.6834-34.9726,14.3177-7.3015,4.3288-13.7964,8.6135-17.6447,11.2209l-43.71-33.6745-.8511-.6558-1.0257-.3193L370.2614,115.25l-.8712-.271Z"/>
        </g>
      </g>
    </g>
  </g>
</svg>
