<?xml version="1.0" encoding="UTF-8"?>
<svg xmlns="http://www.w3.org/2000/svg" viewBox="0 0 478.0636 34.3226">
  <defs>
    <style>
      .d {
        fill: #ce9500;
      }
    </style>
  </defs>
  <g id="a" data-name="Capa 1"/>
  <g id="b" data-name="Capa 2">
    <g id="c" data-name="shopNow">
      <g>
        <path class="d" d="M216.5295,25.7802l.6152-1.4805c.5928,.3037,1.2266,.5581,1.9023,.7632s1.5381,.3076,2.5859,.3076c1.5488,0,2.6875-.2886,3.417-.8657,.7285-.5771,1.0928-1.397,1.0928-2.4604,0-1.0024-.292-1.75-.877-2.2437s-1.5908-.7402-3.0186-.7402h-4.5557l-.2275-.251,.8652-7.9043h8.9072v1.7085h-7.4268l-.5234,4.9429h3.8037c1.6709,0,2.9238,.3574,3.7588,1.0708,.835,.7139,1.2529,1.8301,1.2529,3.3486,0,1.6709-.5654,2.9385-1.6973,3.8042-1.1309,.8657-2.6758,1.2988-4.6348,1.2988-1.1396,0-2.1074-.1104-2.9053-.3306-.7969-.2197-1.5752-.543-2.335-.9683Z"/>
        <path class="d" d="M231.6789,25.8261c0-.395,.0752-.6758,.2275-.8433,.1514-.1665,.4404-.2505,.8652-.2505,.4258,0,.7139,.084,.8662,.2505,.1514,.1675,.2275,.4482,.2275,.8433s-.0762,.6758-.2275,.8428c-.1523,.167-.4404,.2505-.8662,.2505-.4102,0-.6943-.0835-.8535-.2505-.1602-.167-.2393-.4478-.2393-.8428Z"/>
        <path class="d" d="M236.9172,18.8778c0-1.5942,.1484-2.9194,.4443-3.9751,.2969-1.0552,.7178-1.8906,1.2646-2.5054,.5469-.6152,1.1963-1.0557,1.9473-1.3213,.752-.2656,1.584-.3989,2.4951-.3989,1.2148,0,2.2812,.2432,3.2002,.729,.9189,.4863,1.6367,1.3252,2.1523,2.5171,.5166,1.1924,.7754,2.8442,.7754,4.9546,0,1.5796-.1484,2.897-.4443,3.9526-.2969,1.0557-.7178,1.8945-1.2646,2.5171-.5469,.623-1.1963,1.0669-1.9473,1.3325-.752,.2656-1.5762,.3989-2.4717,.3989-.9111,0-1.7393-.1333-2.4834-.3989s-1.3936-.7095-1.9473-1.3325c-.5547-.6226-.9795-1.4614-1.2764-2.5171-.2959-1.0557-.4443-2.373-.4443-3.9526Zm1.96,.0459c0,1.7617,.1816,3.1172,.5459,4.0659,.3652,.9492,.8623,1.606,1.4922,1.9707,.6299,.3643,1.3477,.5464,2.1533,.5464,.7891,0,1.5029-.1821,2.1406-.5464,.6387-.3647,1.1396-1.0254,1.5039-1.9819s.5469-2.3081,.5469-4.0547c0-1.3364-.1064-2.4414-.3193-3.3145-.2129-.8735-.5088-1.5527-.8887-2.0391-.3789-.4858-.8232-.8276-1.332-1.0249s-1.0596-.2964-1.6514-.2964c-.6084,0-1.166,.0991-1.6748,.2964s-.9531,.5391-1.332,1.0249c-.3799,.4863-.6729,1.1655-.8779,2.0391-.2041,.873-.3066,1.978-.3066,3.3145Z"/>
        <path class="d" d="M260.3576,20.8143c0-1.9893,.1738-3.7739,.5234-5.3535,.3496-1.5791,.8887-2.8701,1.6172-3.8726,.7295-1.002,1.6553-1.6094,2.7793-1.8223v1.5034c-1.124,.395-1.9551,1.4048-2.4941,3.0298s-.8086,3.7969-.8086,6.5151,.2695,4.8901,.8086,6.5151c.5391,1.6245,1.3701,2.6343,2.4941,3.0298v1.5034c-1.124-.2129-2.0498-.8203-2.7793-1.8228-.7285-1.002-1.2676-2.293-1.6172-3.8726-.3496-1.5791-.5234-3.3633-.5234-5.353Z"/>
        <path class="d" d="M268.5129,26.851v-1.5947h5.1934V13.0692l-5.0107,2.4829-.4785-1.5947,6.4238-3.1206h.9795v14.4194h4.3506v1.5947h-11.458Z"/>
        <path class="d" d="M282.8859,25.7802l.6152-1.4805c.5928,.3037,1.2266,.5581,1.9023,.7632s1.5381,.3076,2.5859,.3076c1.5488,0,2.6875-.2886,3.417-.8657,.7285-.5771,1.0928-1.397,1.0928-2.4604,0-1.0024-.292-1.75-.877-2.2437s-1.5908-.7402-3.0186-.7402h-4.5557l-.2275-.251,.8652-7.9043h8.9072v1.7085h-7.4268l-.5234,4.9429h3.8037c1.6709,0,2.9238,.3574,3.7588,1.0708,.835,.7139,1.2529,1.8301,1.2529,3.3486,0,1.6709-.5654,2.9385-1.6973,3.8042-1.1309,.8657-2.6758,1.2988-4.6348,1.2988-1.1396,0-2.1074-.1104-2.9053-.3306-.7969-.2197-1.5752-.543-2.335-.9683Z"/>
        <path class="d" d="M297.4201,30.3593c1.124-.3955,1.9551-1.4053,2.4941-3.0298,.5391-1.625,.8086-3.7964,.8086-6.5151s-.2695-4.8901-.8086-6.5151-1.3701-2.6348-2.4941-3.0298v-1.5034c1.124,.2129,2.0498,.8203,2.7793,1.8223,.7285,1.0024,1.2676,2.2935,1.6172,3.8726,.3486,1.5796,.5234,3.3643,.5234,5.3535s-.1748,3.7739-.5234,5.353c-.3496,1.5796-.8887,2.8706-1.6172,3.8726-.7295,1.0024-1.6553,1.6099-2.7793,1.8228v-1.5034Z"/>
        <path class="d" d="M327.1711,26.851h-2.0957l-3.3037-12.415-3.3936,12.415h-1.9365l-3.5312-15.9233,2.0732-.0684,2.5283,13.5996,3.4854-12.9844h1.7314l3.4395,12.9619,2.4834-13.5771,2.0732,.0684-3.5537,15.9233Z"/>
        <path class="d" d="M334.9377,14.641v1.5034c.6689-.6074,1.2949-1.0479,1.8799-1.3213,.584-.2734,1.2109-.4102,1.8789-.4102,.6377,0,1.2305,.084,1.7773,.251l-.3193,1.731c-.5918-.1514-1.1543-.2275-1.6855-.2275-.5322,0-1.0742,.1138-1.6289,.3413-.5547,.228-1.1357,.6152-1.7422,1.1621v9.1802h-1.8906V14.641h1.7305Z"/>
        <path class="d" d="M344.3,12.1805c-.4248,0-.7285-.0757-.9111-.2275-.1816-.1519-.2734-.4175-.2734-.7974,0-.3945,.0879-.668,.2627-.8203,.1738-.1514,.4814-.2275,.9219-.2275,.4248,0,.7256,.0762,.9004,.2275,.1738,.1523,.2617,.4258,.2617,.8203,0,.3799-.0879,.6455-.2617,.7974-.1748,.1519-.4756,.2275-.9004,.2275Zm-.9561,14.6704V14.641h1.8906v12.21h-1.8906Z"/>
        <path class="d" d="M353.6174,27.079c-1.124,0-1.9551-.3154-2.4941-.9458-.5391-.6299-.8086-1.5903-.8086-2.8813v-7.1758h-2.0957v-1.2759l2.0957-.1592,.25-2.8931h1.6631v2.8931h4.0781v1.4351h-4.0781v7.0391c0,.8198,.1553,1.4121,.4668,1.7769,.3115,.3643,.8242,.5464,1.5381,.5464,.3643,0,.7246-.0337,1.082-.1021,.3564-.0684,.7246-.1558,1.1045-.2622l.2734,1.481c-.5615,.1821-1.1016,.3149-1.6172,.3984-.5166,.0835-1.002,.1255-1.458,.1255Z"/>
        <path class="d" d="M364.0509,27.079c-1.6709,0-2.9658-.4746-3.8838-1.4238-.9189-.9492-1.3789-2.479-1.3789-4.5903,0-1.6553,.2471-2.9688,.7412-3.9409,.4932-.9717,1.165-1.6665,2.0156-2.0845,.8506-.4175,1.8066-.6265,2.8701-.6265,1.5488,0,2.7031,.4141,3.4629,1.2417,.7588,.8276,1.1387,2.168,1.1387,4.0205,0,.1064-.0039,.2393-.0117,.3989-.0078,.1592-.0186,.3154-.0342,.4668-.4248,.0308-1.04,.0762-1.8447,.1367-.8047,.061-1.751,.1177-2.8359,.1709-1.0859,.0532-2.2598,.0874-3.5195,.1025-.0156,.1367-.0225,.2959-.0225,.4785,0,1.4883,.3145,2.5435,.9453,3.166,.6299,.623,1.5215,.9341,2.6758,.9341,.7295,0,1.4658-.0571,2.21-.1709s1.4121-.2466,2.0049-.3984l.25,1.4351c-.6221,.2129-1.3398,.3799-2.1523,.501-.8125,.1216-1.6895,.1826-2.6309,.1826Zm-3.2578-7.4492c.9717,0,1.8906-.019,2.7568-.0571,.8652-.0376,1.6094-.0757,2.2324-.1138,.6221-.0376,1.0547-.0718,1.2979-.1025-.0146-1.2603-.25-2.1641-.7061-2.7109-.4551-.5464-1.1543-.8198-2.0957-.8198-.5166,0-1.0254,.1064-1.5264,.3188-.501,.2129-.9258,.5923-1.2754,1.1392-.3496,.5464-.5771,1.3291-.6836,2.3462Z"/>
        <path class="d" d="M379.3361,23.9125c0-.9717,.2734-1.7202,.8203-2.2441,.5459-.5239,1.3623-.9072,2.4482-1.1504,1.0859-.2427,2.4414-.4399,4.0664-.5923v-1.7085c0-1.4424-.9189-2.1641-2.7568-2.1641-.4707,0-1.0059,.0381-1.6055,.1143-.6006,.0762-1.2266,.2129-1.8799,.4097l-.3408-1.5488c1.3662-.4102,2.6797-.6152,3.9404-.6152,3.0371,0,4.5557,1.2607,4.5557,3.7817v5.9229c0,.501,.0723,.8389,.2168,1.0137s.3379,.2617,.5811,.2617c.0908,0,.1895-.0073,.2959-.0225s.2197-.0459,.3418-.0913l.2051,1.4121c-.4561,.2583-.957,.3877-1.5039,.3877-1.0928,0-1.7305-.5698-1.9131-1.7085-.5469,.4556-1.1846,.854-1.9141,1.1958-.7285,.3418-1.5566,.5127-2.4824,.5127-.9268,0-1.6709-.2695-2.2324-.8091-.5625-.5386-.8428-1.3247-.8428-2.3574Zm1.9365-.1597c0,.6533,.1621,1.1431,.4893,1.4692,.3262,.3267,.7637,.4897,1.3096,.4897,.623,0,1.2568-.144,1.9023-.4326s1.2109-.668,1.6973-1.1392v-3.0752c-1.0781,.0913-2.0234,.2202-2.8359,.3872-.8125,.1675-1.4434,.4292-1.8906,.7861-.4482,.3569-.6719,.8618-.6719,1.5146Z"/>
        <path class="d" d="M413.1632,27.079c-.6377,0-1.2871-.209-1.9482-.6265-.6602-.4175-1.3633-1.0972-2.1064-2.0391-.7441-.9414-1.5645-2.2017-2.4609-3.7812-.167,.0151-.3643,.0225-.5918,.0225h-1.9248c-.4639,0-.9229-.0073-1.3779-.0225v6.2188h-1.9824V10.8593c1.0029-.0601,1.8867-.106,2.6543-.1362,.7666-.0303,1.5371-.0459,2.3115-.0459,1.5645,0,2.8213,.1479,3.7705,.4443,.9492,.2959,1.6396,.7856,2.0732,1.4692,.4326,.6836,.6484,1.6025,.6484,2.7563,0,1.4277-.3145,2.5137-.9453,3.2578-.6299,.7441-1.5293,1.2603-2.6992,1.5488,1.0781,1.8223,2.0088,3.1133,2.791,3.8726,.7812,.7598,1.4463,1.1392,1.9932,1.1392,.0303,0,.083-.0078,.1592-.0229s.1367-.0229,.1826-.0229l.0449,1.8911c-.0762,.0146-.1631,.0303-.2617,.0454-.0986,.0146-.209,.0229-.3301,.0229Zm-7.335-8.0645c1.5029,0,2.6045-.2505,3.3027-.7515,.6982-.5015,1.0479-1.3896,1.0479-2.6655,0-.8198-.1328-1.4727-.3984-1.959-.2656-.4858-.7178-.835-1.3555-1.0479-.6377-.2124-1.5186-.3188-2.6426-.3188-.3955,0-.7402,.0039-1.0361,.0112-.2969,.0078-.5967,.0195-.9004,.0342-.3037,.0156-.668,.0381-1.0928,.0684v6.5605c.5762,.0156,1.1084,.0308,1.5938,.0459,.4863,.0151,.9805,.0225,1.4814,.0225Z"/>
        <path class="d" d="M421.0685,27.079c-1.6709,0-2.9658-.4746-3.8838-1.4238-.9189-.9492-1.3789-2.479-1.3789-4.5903,0-1.6553,.2471-2.9688,.7412-3.9409,.4932-.9717,1.165-1.6665,2.0156-2.0845,.8506-.4175,1.8066-.6265,2.8701-.6265,1.5488,0,2.7031,.4141,3.4629,1.2417,.7588,.8276,1.1387,2.168,1.1387,4.0205,0,.1064-.0039,.2393-.0117,.3989-.0078,.1592-.0186,.3154-.0342,.4668-.4248,.0308-1.04,.0762-1.8447,.1367-.8047,.061-1.751,.1177-2.8359,.1709-1.0859,.0532-2.2598,.0874-3.5195,.1025-.0156,.1367-.0225,.2959-.0225,.4785,0,1.4883,.3145,2.5435,.9453,3.166,.6299,.623,1.5215,.9341,2.6758,.9341,.7295,0,1.4658-.0571,2.21-.1709s1.4121-.2466,2.0049-.3984l.25,1.4351c-.6221,.2129-1.3398,.3799-2.1523,.501-.8125,.1216-1.6895,.1826-2.6309,.1826Zm-3.2578-7.4492c.9717,0,1.8906-.019,2.7568-.0571,.8652-.0376,1.6094-.0757,2.2324-.1138,.6221-.0376,1.0547-.0718,1.2979-.1025-.0146-1.2603-.25-2.1641-.7061-2.7109-.4551-.5464-1.1543-.8198-2.0957-.8198-.5166,0-1.0254,.1064-1.5264,.3188-.501,.2129-.9258,.5923-1.2754,1.1392-.3496,.5464-.5771,1.3291-.6836,2.3462Z"/>
        <path class="d" d="M432.6867,26.851l-4.4883-12.1646,2.0049-.1138,3.5762,10.3877,3.5088-10.3877,1.9814,.1138-4.5107,12.1646h-2.0723Z"/>
        <path class="d" d="M443.256,12.1805c-.4248,0-.7285-.0757-.9111-.2275-.1816-.1519-.2734-.4175-.2734-.7974,0-.3945,.0879-.668,.2627-.8203,.1738-.1514,.4814-.2275,.9219-.2275,.4248,0,.7256,.0762,.9004,.2275,.1738,.1523,.2617,.4258,.2617,.8203,0,.3799-.0879,.6455-.2617,.7974-.1748,.1519-.4756,.2275-.9004,.2275Zm-.9561,14.6704V14.641h1.8906v12.21h-1.8906Z"/>
        <path class="d" d="M453.1193,27.079c-1.6709,0-2.9658-.4746-3.8838-1.4238-.9189-.9492-1.3789-2.479-1.3789-4.5903,0-1.6553,.2471-2.9688,.7412-3.9409,.4932-.9717,1.165-1.6665,2.0156-2.0845,.8506-.4175,1.8066-.6265,2.8701-.6265,1.5488,0,2.7031,.4141,3.4629,1.2417,.7588,.8276,1.1387,2.168,1.1387,4.0205,0,.1064-.0039,.2393-.0117,.3989-.0078,.1592-.0186,.3154-.0342,.4668-.4248,.0308-1.04,.0762-1.8447,.1367-.8047,.061-1.751,.1177-2.8359,.1709-1.0859,.0532-2.2598,.0874-3.5195,.1025-.0156,.1367-.0225,.2959-.0225,.4785,0,1.4883,.3145,2.5435,.9453,3.166,.6299,.623,1.5215,.9341,2.6758,.9341,.7295,0,1.4658-.0571,2.21-.1709s1.4121-.2466,2.0049-.3984l.25,1.4351c-.6221,.2129-1.3398,.3799-2.1523,.501-.8125,.1216-1.6895,.1826-2.6309,.1826Zm-3.2578-7.4492c.9717,0,1.8906-.019,2.7568-.0571,.8652-.0376,1.6094-.0757,2.2324-.1138,.6221-.0376,1.0547-.0718,1.2979-.1025-.0146-1.2603-.25-2.1641-.7061-2.7109-.4551-.5464-1.1543-.8198-2.0957-.8198-.5166,0-1.0254,.1064-1.5264,.3188-.501,.2129-.9258,.5923-1.2754,1.1392-.3496,.5464-.5771,1.3291-.6836,2.3462Z"/>
        <path class="d" d="M463.6213,26.851l-3.2803-12.1416,1.9365-.1138,2.4834,10.2964,2.6426-10.251h2.0039l2.665,10.228,2.5059-10.2734,1.8682,.1138-3.3027,12.1416h-2.0957l-2.665-9.9546-2.6201,9.9546h-2.1416Z"/>
      </g>
      <polygon class="d" points="17.0218 26.8467 6.5018 32.3775 8.5109 20.6632 0 12.3671 11.7618 10.658 17.0218 0 22.2819 10.658 34.0437 12.3671 25.5328 20.6632 27.5419 32.3775 17.0218 26.8467"/>
      <polygon class="d" points="57.0879 26.8467 46.5679 32.3775 48.577 20.6632 40.0661 12.3671 51.8279 10.658 57.0879 0 62.348 10.658 74.1098 12.3671 65.5989 20.6632 67.608 32.3775 57.0879 26.8467"/>
      <polygon class="d" points="97.154 26.8467 86.634 32.3775 88.6431 20.6632 80.1322 12.3671 91.894 10.658 97.154 0 102.4141 10.658 114.1759 12.3671 105.665 20.6632 107.6741 32.3775 97.154 26.8467"/>
      <polygon class="d" points="137.2201 26.8467 126.7001 32.3775 128.7092 20.6632 120.1983 12.3671 131.9601 10.658 137.2201 0 142.4802 10.658 154.242 12.3671 145.7311 20.6632 147.7402 32.3775 137.2201 26.8467"/>
      <polygon class="d" points="177.2862 26.8467 166.7662 32.3775 168.7753 20.6632 160.2644 12.3671 172.0262 10.658 177.2862 0 182.5463 10.658 194.3081 12.3671 185.7972 20.6632 187.8063 32.3775 177.2862 26.8467"/>
    </g>
  </g>
</svg>